SplineFontDB: 3.0
FontName: SPThotsakan-Bold
FullName: SP Thotsakan Bold
FamilyName: SP Thotsakan
Weight: Bold
Copyright: Copyright (c) 2006 by Department of Intellectual Property (DIP), Ministry of Commerce and Software Industry Promotion Agency (Public Organization) (SIPA). All rights reserved.
Version: 2.2
ItalicAngle: 0
UnderlinePosition: -58
UnderlineWidth: 35
Ascent: 800
Descent: 200
LayerCount: 2
Layer: 0 0 "Back"  1
Layer: 1 0 "Fore"  0
NeedsXUIDChange: 1
XUID: [1021 375 425136265 15694398]
FSType: 0
OS2Version: 3
OS2_WeightWidthSlopeOnly: 0
OS2_UseTypoMetrics: 1
CreationTime: 1154211420
ModificationTime: 1241002266
PfmFamily: 17
TTFWeight: 700
TTFWidth: 5
LineGap: 21
VLineGap: 0
Panose: 2 0 5 6 4 0 0 2 0 4
OS2TypoAscent: 0
OS2TypoAOffset: 1
OS2TypoDescent: 0
OS2TypoDOffset: 1
OS2TypoLinegap: 0
OS2WinAscent: -78
OS2WinAOffset: 1
OS2WinDescent: -208
OS2WinDOffset: 1
HheadAscent: 0
HheadAOffset: 1
HheadDescent: 170
HheadDOffset: 1
OS2SubXSize: 700
OS2SubYSize: 650
OS2SubXOff: 0
OS2SubYOff: 140
OS2SupXSize: 700
OS2SupYSize: 650
OS2SupXOff: 0
OS2SupYOff: 477
OS2StrikeYSize: 50
OS2StrikeYPos: 250
OS2FamilyClass: 2053
OS2Vendor: 'b513'
Lookup: 4 0 1 "'rlig' Required Ligatures in Latin lookup 0"  {"'rlig' Required Ligatures in Latin lookup 0 subtable"  } ['rlig' ('latn' <'dflt' > ) ]
Lookup: 4 0 0 "'frac' Diagonal Fractions in Latin lookup 1"  {"'frac' Diagonal Fractions in Latin lookup 1 subtable"  } ['frac' ('latn' <'dflt' > ) ]
Lookup: 4 0 0 "'ccmp' Glyph Composition/Decomposition in Latin lookup 2"  {"'ccmp' Glyph Composition/Decomposition in Latin lookup 2 subtable"  } ['ccmp' ('latn' <'dflt' > ) ]
Lookup: 6 0 0 "'liga' Standard Ligatures in Latin lookup 3"  {"'liga' Standard Ligatures in Latin lookup 3 subtable"  } ['liga' ('latn' <'dflt' > ) ]
Lookup: 6 0 0 "'liga' Standard Ligatures in Latin lookup 4"  {"'liga' Standard Ligatures in Latin lookup 4 subtable"  } ['liga' ('latn' <'dflt' > ) ]

StartChar: exclam
Encoding: 33 33 2
Width: 281
VWidth: 1473
Flags: W
HStem: 0 116<77 205> 696 20G<77 205>
VStem: 77 128<0 116 552.333 716> 97 87<225 388.667>
LayerCount: 2
Fore
SplineSet
205 716 m 1xe0
 184 225 l 1
 97 225 l 1xd0
 77 716 l 1
 205 716 l 1xe0
77 0 m 1xe0
 77 116 l 1
 205 116 l 1
 205 0 l 1
 77 0 l 1xe0
EndSplineSet
Validated: 3073
EndChar

StartChar: quotedbl
Encoding: 34 34 3
Width: 331
VWidth: 1473
Flags: W
HStem: 517 237<52 133 199 280>
VStem: 52 81<517 754> 199 81<517 754>
LayerCount: 2
Fore
SplineSet
52 754 m 1
 133 754 l 1
 133 517 l 1
 52 517 l 1
 52 754 l 1
199 754 m 1
 280 754 l 1
 280 517 l 1
 199 517 l 1
 199 754 l 1
EndSplineSet
Validated: 3073
EndChar

StartChar: numbersign
Encoding: 35 35 4
Width: 530
VWidth: 1473
Flags: W
HStem: 0 21G<90 169.128 277 357.033> 211 60<25 122 205 309 392 480> 405 61<52 150 233 337 421 507>
LayerCount: 2
Fore
SplineSet
480 211 m 1
 386 211 l 1
 354 0 l 1
 277 0 l 1
 309 211 l 1
 199 211 l 1
 166 0 l 1
 90 0 l 1
 122 211 l 1
 25 211 l 1
 25 271 l 1
 128 271 l 1
 150 405 l 1
 52 405 l 1
 52 466 l 1
 155 466 l 1
 187 689 l 1
 265 689 l 1
 233 466 l 1
 343 466 l 1
 374 689 l 1
 452 689 l 1
 421 466 l 1
 507 466 l 1
 507 405 l 1
 412 405 l 1
 392 271 l 1
 480 271 l 1
 480 211 l 1
225 405 m 1
 205 271 l 1
 315 271 l 1
 337 405 l 1
 225 405 l 1
EndSplineSet
Validated: 3073
EndChar

StartChar: dollar
Encoding: 36 36 5
Width: 623
VWidth: 1473
Flags: W
HStem: 0 68<201.453 286 339 433.85> 334 83<222.262 286> 651 69<197.701 286 339 402.229>
VStem: 62 90<470.088 610.811> 286 53<-133 0 68 321 417 650 720 828> 491 89<115.806 255.365>
LayerCount: 2
Fore
SplineSet
551 588 m 1
 548 588 497 538 488 535 c 1
 444 613 402 641 339 650 c 1
 339 401 l 1
 442 372 580 328 580 181 c 0
 580 36 450 -0 339 0 c 1
 339 -133 l 1
 286 -133 l 1
 286 0 l 1
 165 4 76 71 32 164 c 1
 100 215 l 1
 148 109 212 68 286 68 c 1
 286 334 l 1
 167 370 62 411 62 536 c 0
 62 610 86 716 286 720 c 1
 286 828 l 1
 339 828 l 1
 339 720 l 1
 434 717 522 652 551 588 c 1
286 651 m 1
 204 651 152 621 152 541 c 0
 152 467 192 438 286 417 c 1
 286 651 l 1
339 68 m 1
 408 69 491 91 491 184 c 0
 491 280 425 292 339 321 c 1
 339 68 l 1
EndSplineSet
Validated: 3073
EndChar

StartChar: percent
Encoding: 37 37 6
Width: 879
VWidth: 1473
Flags: W
HStem: -10 21G<205 290.761> 0 69<577.727 695> 256 68<578.156 694.141> 390 70<182.749 301.549> 645 71<182.608 302.181>
VStem: 81 69<492.251 612.23> 336 69<494.335 612.423> 473 71<101.858 221.28> 729 69<103.508 220.694>
LayerCount: 2
Fore
SplineSet
81 552 m 256x3f80
 81 649 162 716 242 716 c 0
 322 716 405 651 405 552 c 256
 405 468 338 390 242 390 c 0
 154 390 81 462 81 552 c 256x3f80
336 552 m 0
 336 608 293 645 242 645 c 0
 192 645 150 609 150 552 c 0
 150 502 188 460 242 460 c 0
 296 460 336 502 336 552 c 0
473 162 m 0
 473 258 554 324 635 324 c 0
 730 324 798 247 798 162 c 0
 798 78 726 0 635 0 c 0x7f80
 554 0 473 71 473 162 c 0
729 162 m 0
 729 214 688 256 635 256 c 0
 585 256 544 215 544 162 c 0
 544 108 587 69 635 69 c 0
 687 69 729 109 729 162 c 0
280 -10 m 1xbf80
 205 -10 l 1
 600 726 l 1
 676 726 l 1
 280 -10 l 1xbf80
EndSplineSet
Validated: 3073
EndChar

StartChar: ampersand
Encoding: 38 38 7
Width: 702
VWidth: 1473
Flags: W
HStem: -10 75<175.966 363.389 566.122 630.4> 650 76<247.258 343.38>
VStem: 41 89<106.767 253.476> 152 78<484.82 633.554> 359 80<501.489 634.481> 519 76<220.413 324>
LayerCount: 2
Fore
SplineSet
417 124 m 1
 353 186 277 302 252 340 c 1
 155 284 130 239 130 171 c 0
 130 86 208 65 261 65 c 0
 342 65 390 96 417 124 c 1
295 650 m 0
 243 650 230 605 230 569 c 0
 230 519 254 475 277 443 c 1
 295 454 359 496 359 575 c 0
 359 618 340 650 295 650 c 0
471 168 m 1
 498 205 519 269 519 336 c 1
 595 324 l 1
 591 240 555 166 520 113 c 1
 585 70 619 67 644 65 c 1
 629 -10 l 1
 563 -6 513 23 467 68 c 1
 409 11 326 -10 258 -10 c 0
 133 -10 41 62 41 175 c 0
 41 298 131 360 208 404 c 1
 170 462 152 524 152 576 c 0
 152 673 208 726 298 726 c 0
 375 726 439 675 439 582 c 0
 439 524 426 451 320 376 c 1
 410 250 402 243 471 168 c 1
EndSplineSet
Validated: 3073
EndChar

StartChar: quotesingle
Encoding: 39 39 8
Width: 235
VWidth: 1473
Flags: W
HStem: 517 237<74 162>
VStem: 74 88<517 754>
LayerCount: 2
Fore
SplineSet
74 754 m 1
 162 754 l 1
 162 517 l 1
 74 517 l 1
 74 754 l 1
EndSplineSet
Validated: 3073
EndChar

StartChar: parenleft
Encoding: 40 40 9
Width: 397
VWidth: 1473
Flags: W
VStem: 81 102<171.557 601.935>
LayerCount: 2
Fore
SplineSet
81 389 m 0
 81 680 181 826 217 874 c 1
 331 874 l 1
 212 729 183 560 183 389 c 0
 183 221 212 47 331 -99 c 1
 217 -99 l 1
 181 -52 81 96 81 389 c 0
EndSplineSet
Validated: 3073
EndChar

StartChar: parenright
Encoding: 41 41 10
Width: 397
VWidth: 1473
Flags: W
VStem: 217 100<175.064 599.86>
LayerCount: 2
Fore
SplineSet
317 389 m 0
 317 96 216 -52 181 -99 c 1
 66 -99 l 1
 166 18 217 183 217 389 c 0
 217 548 187 732 66 874 c 1
 181 874 l 1
 217 826 317 680 317 389 c 0
EndSplineSet
Validated: 3073
EndChar

StartChar: asterisk
Encoding: 42 42 11
Width: 736
VWidth: 1473
Flags: W
LayerCount: 2
Fore
SplineSet
408 869 m 1
 579 944 l 1
 608 857 l 1
 423 807 l 1
 547 666 l 1
 471 604 l 1
 371 766 l 1
 268 604 l 1
 192 659 l 1
 318 807 l 1
 128 852 l 1
 161 941 l 1
 334 869 l 1
 320 1064 l 1
 420 1064 l 1
 408 869 l 1
EndSplineSet
Validated: 3073
EndChar

StartChar: plus
Encoding: 43 43 12
Width: 751
VWidth: 1473
Flags: W
HStem: 270 79<74 329 423 678> 569 20G<329 423>
VStem: 329 94<29 270 349 589>
LayerCount: 2
Fore
SplineSet
329 589 m 1
 423 589 l 1
 423 349 l 1
 678 349 l 1
 678 270 l 1
 423 270 l 1
 423 29 l 1
 329 29 l 1
 329 270 l 1
 74 270 l 1
 74 349 l 1
 329 349 l 1
 329 589 l 1
EndSplineSet
Validated: 3073
EndChar

StartChar: comma
Encoding: 44 44 13
Width: 315
VWidth: 1473
Flags: W
HStem: 0 116<93 141>
VStem: 93 129<0 116>
LayerCount: 2
Fore
SplineSet
222 116 m 1
 222 0 l 1
 149 -171 l 1
 91 -171 l 1
 141 0 l 1
 93 0 l 1
 93 116 l 1
 222 116 l 1
EndSplineSet
Validated: 3073
EndChar

StartChar: hyphen
Encoding: 45 45 14
Width: 490
VWidth: 1473
Flags: W
HStem: 299 88<62 429>
LayerCount: 2
Fore
SplineSet
62 299 m 1
 62 387 l 1
 429 387 l 1
 429 299 l 1
 62 299 l 1
EndSplineSet
Validated: 3073
EndChar

StartChar: period
Encoding: 46 46 15
Width: 315
VWidth: 1473
Flags: W
HStem: 0 116<93 222>
VStem: 93 129<0 116>
LayerCount: 2
Fore
SplineSet
93 0 m 1
 93 116 l 1
 222 116 l 1
 222 0 l 1
 93 0 l 1
EndSplineSet
Validated: 3073
EndChar

StartChar: slash
Encoding: 47 47 16
Width: 331
VWidth: 1473
Flags: W
LayerCount: 2
Fore
SplineSet
100 -56 m 1
 0 -56 l 1
 267 829 l 1
 361 829 l 1
 100 -56 l 1
EndSplineSet
Validated: 3073
EndChar

StartChar: zero
Encoding: 48 48 17
Width: 626
VWidth: 1473
Flags: W
HStem: -7 72<216.986 410.407> 601 74<213.584 413.057>
VStem: 52 92<161.877 499.223> 483 92<161.653 500.482>
LayerCount: 2
Fore
SplineSet
575 327 m 0
 575 77 471 -7 314 -7 c 256
 157 -7 52 76 52 327 c 0
 52 590 157 675 314 675 c 0
 516 675 575 530 575 327 c 0
144 327 m 0
 144 142 171 65 314 65 c 256
 455 65 483 140 483 327 c 0
 483 543 449 601 314 601 c 256
 178 601 144 543 144 327 c 0
EndSplineSet
Validated: 3073
EndChar

StartChar: one
Encoding: 49 49 18
Width: 475
VWidth: 1473
Flags: W
HStem: 0 68<66 197 283 410>
VStem: 197 86<68 573>
LayerCount: 2
Fore
SplineSet
66 0 m 1
 66 68 l 1
 197 68 l 1
 197 573 l 1
 74 544 l 1
 74 608 l 1
 228 672 l 1
 283 672 l 1
 283 68 l 1
 410 68 l 1
 410 0 l 1
 66 0 l 1
EndSplineSet
Validated: 3073
EndChar

StartChar: two
Encoding: 50 50 19
Width: 558
VWidth: 1473
Flags: W
HStem: 0 72<137 488> 604 72<211.345 367.864>
VStem: 59 78<72 153.144> 66 81<489.79 535.31> 407 92<400.511 564.652>
LayerCount: 2
Fore
SplineSet
289 604 m 0xe8
 175 604 154 506 147 477 c 1
 66 491 l 1xd8
 97 666 254 676 295 676 c 0
 458 676 499 567 499 482 c 0
 499 266 238 257 160 156 c 0
 146 136 137 118 137 72 c 1
 488 72 l 1
 488 0 l 1
 59 0 l 1
 59 55 l 2
 59 150 76 233 264 312 c 0
 394 367 407 423 407 486 c 0
 407 580 351 604 289 604 c 0xe8
EndSplineSet
Validated: 3073
EndChar

StartChar: three
Encoding: 51 51 20
Width: 584
VWidth: 1473
Flags: W
HStem: -10 73<201.376 375.432> 320 72<190 357.237> 605 71<204.847 372.062>
VStem: 405 93<433.746 574.043> 426 93<112.958 272.806>
LayerCount: 2
Fore
SplineSet
519 193 m 0xe8
 519 31 420 -10 290 -10 c 0
 181 -10 102 35 52 124 c 1
 119 166 l 1
 144 129 189 63 293 63 c 0
 403 63 426 138 426 190 c 0xe8
 426 268 401 320 252 320 c 2
 190 320 l 1
 190 392 l 1
 242 392 l 2
 380 392 405 440 405 511 c 0
 405 586 351 605 284 605 c 0
 216 605 171 564 140 524 c 1
 81 573 l 1
 128 629 194 676 290 676 c 0
 393 676 498 644 498 517 c 0xf0
 498 452 479 386 395 358 c 1
 464 339 519 288 519 193 c 0xe8
EndSplineSet
Validated: 3073
EndChar

StartChar: four
Encoding: 52 52 21
Width: 545
VWidth: 1473
Flags: W
HStem: 0 21G<343 429> 131 74<124 343 429 530>
VStem: 343 86<0 131 205 575>
LayerCount: 2
Fore
SplineSet
29 202 m 1
 323 672 l 1
 429 672 l 1
 429 205 l 1
 530 205 l 1
 530 131 l 1
 429 131 l 1
 429 0 l 1
 343 0 l 1
 343 131 l 1
 29 131 l 1
 29 202 l 1
124 205 m 1
 343 205 l 1
 343 575 l 1
 336 575 l 1
 124 205 l 1
EndSplineSet
Validated: 3073
EndChar

StartChar: five
Encoding: 53 53 22
Width: 608
VWidth: 1473
Flags: W
HStem: -10 73<198.199 390.99> 379 73<223.031 399.491> 600 72<203 492>
VStem: 90 63<302.222 327.054> 449 93<122.076 326.363>
LayerCount: 2
Fore
SplineSet
308 379 m 0
 260 379 181 359 153 296 c 1
 90 303 l 1
 121 672 l 1
 492 672 l 1
 492 600 l 1
 203 600 l 1
 184 402 l 1
 200 418 238 452 318 452 c 0
 464 452 542 368 542 224 c 0
 542 59 444 -10 283 -10 c 0
 189 -10 102 41 66 116 c 1
 130 161 l 1
 155 111 194 63 289 63 c 0
 384 63 449 93 449 220 c 0
 449 329 417 379 308 379 c 0
EndSplineSet
Validated: 3073
EndChar

StartChar: six
Encoding: 54 54 23
Width: 601
VWidth: 1473
Flags: W
HStem: -10 75<218.299 414.333> 345 72<241.89 415.753> 605 71<232.005 426.799>
VStem: 66 95<143.426 489.49> 457 93<107.13 301.19>
LayerCount: 2
Fore
SplineSet
323 -10 m 0
 169 -10 66 53 66 309 c 0
 66 426 86 517 126 580 c 0
 166 644 233 676 327 676 c 0
 396 676 466 652 505 622 c 1
 466 557 l 1
 433 587 383 605 326 605 c 0
 192 605 158 531 158 336 c 1
 198 381 258 417 340 417 c 0
 453 417 550 373 550 197 c 0
 550 100 505 -10 323 -10 c 0
457 208 m 0
 457 318 409 345 324 345 c 0
 224 345 161 259 161 237 c 0
 161 89 223 65 324 65 c 0
 418 65 457 96 457 208 c 0
EndSplineSet
Validated: 3073
EndChar

StartChar: seven
Encoding: 55 55 24
Width: 499
VWidth: 1473
Flags: W
HStem: 0 21G<84 195.296> 600 72<44 370>
LayerCount: 2
Fore
SplineSet
44 672 m 1
 470 672 l 1
 470 611 l 1
 186 0 l 1
 84 0 l 1
 370 600 l 1
 44 600 l 1
 44 672 l 1
EndSplineSet
Validated: 3073
EndChar

StartChar: eight
Encoding: 56 56 25
Width: 623
VWidth: 1473
Flags: W
HStem: -10 73<208.975 411.391> 607 71<221.892 401.612>
VStem: 66 93<108.731 245.055> 91 92<444.893 571.201> 440 92<445.179 571.201> 464 93<109.96 243.414>
LayerCount: 2
Fore
SplineSet
312 678 m 256xd0
 443 678 532 623 532 501 c 0xd8
 532 443 488 385 404 355 c 1
 459 331 557 284 557 178 c 0
 557 28 439 -10 312 -10 c 256
 134 -10 66 65 66 178 c 0xe4
 66 284 167 332 220 355 c 1
 134 385 91 443 91 501 c 0
 91 623 181 678 312 678 c 256xd0
312 321 m 1
 192 274 159 245 159 178 c 0
 159 101 210 63 312 63 c 0
 401 63 464 95 464 178 c 0xe4
 464 239 434 272 312 321 c 1
312 387 m 1
 437 421 440 481 440 504 c 0
 440 573 397 607 312 607 c 0
 226 607 183 573 183 504 c 0xd8
 183 449 226 410 312 387 c 1
EndSplineSet
Validated: 3073
EndChar

StartChar: nine
Encoding: 57 57 26
Width: 599
VWidth: 1473
Flags: W
HStem: -9 72<166.498 365.519> 250 74<185.812 358.57> 604 74<183.182 381.9>
VStem: 52 92<367.944 562.133> 440 93<153.889 526.779>
LayerCount: 2
Fore
SplineSet
533 359 m 0
 533 123 488 -9 274 -9 c 0
 240 -9 142 3 81 47 c 1
 122 112 l 1
 165 73 236 63 274 63 c 0
 408 63 442 143 442 333 c 1
 402 289 343 250 261 250 c 0
 115 250 52 325 52 470 c 0
 52 566 97 678 277 678 c 0
 431 678 533 616 533 359 c 0
144 460 m 0
 144 351 190 324 275 324 c 0
 377 324 440 407 440 430 c 0
 440 570 385 604 275 604 c 0
 182 604 144 574 144 460 c 0
EndSplineSet
Validated: 3073
EndChar

StartChar: colon
Encoding: 58 58 27
Width: 331
VWidth: 1473
Flags: W
HStem: 0 122<99 233> 364 122<99 233>
VStem: 99 134<0 122 364 486>
LayerCount: 2
Fore
SplineSet
99 0 m 1
 99 122 l 1
 233 122 l 1
 233 0 l 1
 99 0 l 1
99 364 m 1
 99 486 l 1
 233 486 l 1
 233 364 l 1
 99 364 l 1
EndSplineSet
Validated: 3073
EndChar

StartChar: semicolon
Encoding: 59 59 28
Width: 331
VWidth: 1473
Flags: W
HStem: 364 122<99 233>
VStem: 99 134<0 122 364 486>
LayerCount: 2
Fore
SplineSet
233 122 m 1
 233 0 l 1
 156 -180 l 1
 96 -180 l 1
 150 0 l 1
 99 0 l 1
 99 122 l 1
 233 122 l 1
99 364 m 1
 99 486 l 1
 233 486 l 1
 233 364 l 1
 99 364 l 1
EndSplineSet
Validated: 3073
EndChar

StartChar: less
Encoding: 60 60 29
Width: 715
VWidth: 1473
Flags: W
HStem: -7 21G<624.09 669>
LayerCount: 2
Fore
SplineSet
669 -7 m 1
 47 270 l 1
 47 351 l 1
 669 628 l 1
 669 536 l 1
 143 311 l 1
 669 84 l 1
 669 -7 l 1
EndSplineSet
Validated: 3073
EndChar

StartChar: equal
Encoding: 61 61 30
Width: 715
VWidth: 1473
Flags: W
HStem: 159 78<47 669> 398 78<47 669>
LayerCount: 2
Fore
SplineSet
669 398 m 1
 47 398 l 1
 47 476 l 1
 669 476 l 1
 669 398 l 1
669 159 m 1
 47 159 l 1
 47 237 l 1
 669 237 l 1
 669 159 l 1
EndSplineSet
Validated: 3073
EndChar

StartChar: greater
Encoding: 62 62 31
Width: 715
VWidth: 1473
Flags: W
HStem: -7 21G<47 93.2454>
LayerCount: 2
Fore
SplineSet
47 84 m 1
 573 311 l 1
 47 536 l 1
 47 628 l 1
 669 358 l 1
 669 262 l 1
 47 -7 l 1
 47 84 l 1
EndSplineSet
Validated: 3073
EndChar

StartChar: question
Encoding: 63 63 32
Width: 508
VWidth: 1473
Flags: W
HStem: 0 122<153 301> 787 87<185.985 330.004>
VStem: 153 148<0 122> 177 107<262 406.972> 365 108<607.724 750.69>
LayerCount: 2
Fore
SplineSet
365 695 m 0xd8
 365 729 339 787 261 787 c 0
 184 787 144 738 124 682 c 1
 34 726 l 1
 65 810 149 874 262 874 c 0
 379 874 473 807 473 679 c 0
 473 568 394 535 314 423 c 0
 294 396 284 361 284 320 c 2
 284 262 l 1
 177 262 l 1
 177 320 l 2
 177 425 246 461 336 595 c 0
 355 624 365 658 365 695 c 0xd8
153 0 m 1xe8
 153 122 l 1
 301 122 l 1
 301 0 l 1
 153 0 l 1xe8
EndSplineSet
Validated: 3073
EndChar

StartChar: at
Encoding: 64 64 33
Width: 808
VWidth: 1473
Flags: W
HStem: -10 65<306.25 548> 150 65<303.397 412.707 514.362 597.947> 505 67<358.286 470.644> 670 64<304.412 540.555>
VStem: 52 70<242.933 479.279> 211 76<230.762 421.097> 485 28<245 421> 687 70<320.945 529.825>
LayerCount: 2
Fore
SplineSet
287 305 m 0
 287 231 314 215 355 215 c 0
 443 215 485 339 485 421 c 0
 485 462 474 505 432 505 c 0
 316 505 287 388 287 305 c 0
436 572 m 0
 477 572 520 551 530 498 c 1
 551 551 l 1
 619 551 l 1
 520 295 l 2
 513 276 513 270 513 245 c 0
 513 227 522 218 541 218 c 0
 623 218 687 317 687 427 c 0
 687 573 585 670 421 670 c 0
 240 670 122 537 122 358 c 0
 122 184 242 55 423 55 c 0
 571 55 635 122 669 174 c 1
 741 174 l 1
 649 9 484 -10 423 -10 c 0
 200 -10 52 172 52 365 c 256
 52 573 222 734 420 734 c 0
 591 734 757 623 757 426 c 0
 757 264 629 150 530 150 c 0
 493 150 464 175 463 208 c 1
 461 208 l 1
 404 151 366 150 342 150 c 0
 255 150 211 225 211 299 c 0
 211 459 301 572 436 572 c 0
EndSplineSet
Validated: 3073
EndChar

StartChar: A
Encoding: 65 65 34
Width: 682
VWidth: 1473
Flags: W
HStem: 0 21G<29 142.529 540.368 653> 193 80<222 461> 695 20G<276.867 406.105>
LayerCount: 2
Fore
SplineSet
461 273 m 1
 342 619 l 1
 222 273 l 1
 461 273 l 1
284 715 m 1
 399 715 l 1
 653 0 l 1
 547 0 l 1
 483 193 l 1
 199 193 l 1
 136 0 l 1
 29 0 l 1
 284 715 l 1
EndSplineSet
Validated: 3073
EndChar

StartChar: B
Encoding: 66 66 35
Width: 629
VWidth: 1473
Flags: W
HStem: 0 77<189 428.337> 359 74<189 399.763> 635 81<189 413.253>
VStem: 88 101<77 359 433 635> 440 104<473.693 611.793> 482 103<125.267 306.866>
LayerCount: 2
Fore
SplineSet
544 550 m 0xf8
 544 468 506 416 457 399 c 1
 532 383 585 297 585 221 c 0xf4
 585 88 517 -0 340 0 c 2
 88 0 l 1
 88 716 l 1
 343 716 l 2
 514 716 544 616 544 550 c 0xf8
440 550 m 0xf8
 440 618 399 635 343 635 c 2
 189 635 l 1
 189 433 l 1
 314 433 l 2
 381 433 440 456 440 550 c 0xf8
482 221 m 0xf4
 482 324 439 359 311 359 c 2
 189 359 l 1
 189 77 l 1
 326 77 l 2
 445 77 482 119 482 221 c 0xf4
EndSplineSet
Validated: 3073
EndChar

StartChar: C
Encoding: 67 67 36
Width: 558
VWidth: 1473
Flags: W
HStem: -10 79<232.533 434.535> 591 21G<460 496.143> 644 79<232.533 434.535>
VStem: 59 100<161.768 551.284>
LayerCount: 2
Fore
SplineSet
330 -10 m 0
 113 -10 59 112 59 357 c 256
 59 601 113 723 330 723 c 0
 380 723 467 709 529 661 c 1
 483 591 l 1
 437 630 387 644 329 644 c 0
 193 644 159 571 159 357 c 256
 159 141 193 69 329 69 c 0
 387 69 437 83 483 122 c 1
 529 52 l 1
 467 4 380 -10 330 -10 c 0
EndSplineSet
Validated: 3073
EndChar

StartChar: D
Encoding: 68 68 37
Width: 687
VWidth: 1473
Flags: W
HStem: 0 77<192 439.99> 639 77<192 436.053>
VStem: 88 104<77 639> 523 106<184.098 521.898>
LayerCount: 2
Fore
SplineSet
523 348 m 0
 523 574 487 639 326 639 c 2
 192 639 l 1
 192 77 l 1
 326 77 l 2
 490 77 523 147 523 348 c 0
629 348 m 0
 629 87 508 0 326 0 c 2
 88 0 l 1
 88 716 l 1
 326 716 l 2
 508 716 629 624 629 348 c 0
EndSplineSet
Validated: 3073
EndChar

StartChar: E
Encoding: 69 69 38
Width: 539
VWidth: 1473
Flags: W
HStem: 0 77<192 505> 336 76<192 466> 639 77<192 510>
VStem: 88 104<77 336 412 639>
LayerCount: 2
Fore
SplineSet
192 77 m 1
 505 77 l 1
 505 0 l 1
 88 0 l 1
 88 716 l 1
 510 716 l 1
 510 639 l 1
 192 639 l 1
 192 412 l 1
 466 412 l 1
 466 336 l 1
 192 336 l 1
 192 77 l 1
EndSplineSet
Validated: 3073
EndChar

StartChar: F
Encoding: 70 70 39
Width: 539
VWidth: 1473
Flags: W
HStem: 0 21G<88 192> 336 76<192 466> 639 77<192 510>
VStem: 88 104<0 336 412 639>
LayerCount: 2
Fore
SplineSet
192 0 m 1
 88 0 l 1
 88 716 l 1
 510 716 l 1
 510 639 l 1
 192 639 l 1
 192 412 l 1
 466 412 l 1
 466 336 l 1
 192 336 l 1
 192 0 l 1
EndSplineSet
Validated: 3073
EndChar

StartChar: G
Encoding: 71 71 40
Width: 640
VWidth: 1473
Flags: W
HStem: -10 79<247.359 420.063> 296 86<342.981 435.817> 303 79<361.522 468> 591 21G<489.5 511.143> 644 79<246.378 450.702>
VStem: 74 100<161.768 550.389> 468 99<105.442 303>
LayerCount: 2
Fore
SplineSet
361 296 m 0xde
 341 296 338 344 338 356 c 0
 338 367 340 377 342 382 c 1
 567 382 l 1
 567 80 l 1
 553 64 478 -10 345 -10 c 0
 128 -10 74 112 74 357 c 256
 74 601 128 723 345 723 c 0
 395 723 482 709 544 661 c 1
 498 591 l 1
 481 606 436 644 343 644 c 0
 212 644 174 579 174 357 c 256
 174 141 208 69 343 69 c 0
 365 69 418 78 468 122 c 1
 468 303 l 1
 438 303 l 2xbe
 391 303 372 296 361 296 c 0xde
EndSplineSet
Validated: 3073
EndChar

StartChar: H
Encoding: 72 72 41
Width: 671
VWidth: 1473
Flags: W
HStem: 0 21G<88 192 480 583> 336 76<192 480> 696 20G<88 192 480 583>
VStem: 88 104<0 336 412 716> 480 103<0 336 412 716>
LayerCount: 2
Fore
SplineSet
480 412 m 1
 480 716 l 1
 583 716 l 1
 583 0 l 1
 480 0 l 1
 480 336 l 1
 192 336 l 1
 192 0 l 1
 88 0 l 1
 88 716 l 1
 192 716 l 1
 192 412 l 1
 480 412 l 1
EndSplineSet
Validated: 3073
EndChar

StartChar: I
Encoding: 73 73 42
Width: 406
VWidth: 1473
Flags: W
HStem: 0 69<29 150 252 373> 647 69<34 150 252 377>
VStem: 150 102<69 647>
LayerCount: 2
Fore
SplineSet
252 69 m 1
 373 69 l 1
 373 0 l 1
 29 0 l 1
 29 69 l 1
 150 69 l 1
 150 647 l 1
 34 647 l 1
 34 716 l 1
 377 716 l 1
 377 647 l 1
 252 647 l 1
 252 69 l 1
EndSplineSet
Validated: 3073
EndChar

StartChar: J
Encoding: 74 74 43
Width: 487
VWidth: 1473
Flags: W
HStem: -10 79<105.377 261.349> 696 20G<296 399>
VStem: 296 103<108.965 716>
LayerCount: 2
Fore
SplineSet
200 69 m 0
 283 69 296 116 296 323 c 2
 296 716 l 1
 399 716 l 1
 399 323 l 2
 399 61 359 -10 199 -10 c 0
 139 -10 73 7 15 52 c 1
 60 122 l 1
 108 81 144 69 200 69 c 0
EndSplineSet
Validated: 3073
EndChar

StartChar: K
Encoding: 75 75 44
Width: 639
VWidth: 1473
Flags: W
HStem: 0 21G<88 192 449.046 585> 696 20G<88 192 433.961 582>
VStem: 88 104<0 280 412 716>
LayerCount: 2
Fore
SplineSet
88 0 m 1
 88 716 l 1
 192 716 l 1
 192 412 l 1
 451 716 l 1
 582 716 l 1
 318 415 l 1
 585 0 l 1
 461 0 l 1
 253 348 l 1
 192 280 l 1
 192 0 l 1
 88 0 l 1
EndSplineSet
Validated: 3073
EndChar

StartChar: L
Encoding: 76 76 45
Width: 524
VWidth: 1473
Flags: W
HStem: 0 77<192 510> 696 20G<88 192>
VStem: 88 104<77 716>
LayerCount: 2
Fore
SplineSet
192 77 m 1
 510 77 l 1
 510 0 l 1
 88 0 l 1
 88 716 l 1
 192 716 l 1
 192 77 l 1
EndSplineSet
Validated: 3073
EndChar

StartChar: M
Encoding: 77 77 46
Width: 857
VWidth: 1473
Flags: W
HStem: 0 21G<88 189 370.681 486.353 669 769> 696 20G<88 246.321 610.712 769>
VStem: 88 101<0 595> 669 100<0 595>
LayerCount: 2
Fore
SplineSet
617 716 m 1
 769 716 l 1
 769 0 l 1
 669 0 l 1
 669 595 l 1
 480 0 l 1
 377 0 l 1
 189 595 l 1
 189 0 l 1
 88 0 l 1
 88 716 l 1
 240 716 l 1
 429 118 l 1
 617 716 l 1
EndSplineSet
Validated: 3073
EndChar

StartChar: N
Encoding: 78 78 47
Width: 701
VWidth: 1473
Flags: W
HStem: 0 21G<88 192 484.815 613> 696 20G<88 235.42 510 613>
VStem: 88 104<0 595> 510 103<169 716>
LayerCount: 2
Fore
SplineSet
88 0 m 1
 88 716 l 1
 225 716 l 1
 510 169 l 1
 510 716 l 1
 613 716 l 1
 613 0 l 1
 495 0 l 1
 192 595 l 1
 192 0 l 1
 88 0 l 1
EndSplineSet
Validated: 3073
EndChar

StartChar: O
Encoding: 79 79 48
Width: 695
VWidth: 1473
Flags: W
HStem: -9 84<248.818 445.812> 639 81<248.397 443.855>
VStem: 59 106<179.787 529.442> 530 106<177.246 530.922>
LayerCount: 2
Fore
SplineSet
165 349 m 0
 165 138 217 75 348 75 c 256
 492 75 530 166 530 349 c 0
 530 549 494 639 348 639 c 256
 206 639 165 564 165 349 c 0
636 349 m 0
 636 76 521 -9 348 -9 c 0
 175 -9 59 79 59 349 c 0
 59 639 175 720 348 720 c 0
 570 720 636 576 636 349 c 0
EndSplineSet
Validated: 3073
EndChar

StartChar: P
Encoding: 80 80 49
Width: 629
VWidth: 1473
Flags: W
HStem: 0 21G<88 192> 265 77<192 426.447> 639 77<192 424.169>
VStem: 88 104<0 265 342 639> 482 103<395.924 586.944>
LayerCount: 2
Fore
SplineSet
482 488 m 0
 482 587 450 639 326 639 c 2
 192 639 l 1
 192 342 l 1
 311 342 l 2
 438 342 482 382 482 488 c 0
585 488 m 0
 585 354 515 265 296 265 c 2
 192 265 l 1
 192 0 l 1
 88 0 l 1
 88 716 l 1
 326 716 l 2
 526 716 585 636 585 488 c 0
EndSplineSet
Validated: 3073
EndChar

StartChar: Q
Encoding: 81 81 50
Width: 754
VWidth: 1473
Flags: W
HStem: -9 84<278.602 445.895> 639 81<278.82 472.984>
VStem: 88 106<177.45 530.097> 560 106<177.588 528.799>
LayerCount: 2
Fore
SplineSet
194 349 m 0
 194 165 231 75 377 75 c 0
 404 75 427 78 447 84 c 1
 368 193 l 1
 445 215 l 1
 514 131 l 1
 548 175 560 247 560 349 c 0
 560 551 523 639 377 639 c 0
 232 639 194 556 194 349 c 0
500 10 m 1
 464 -3 422 -9 377 -9 c 0
 204 -9 88 78 88 349 c 0
 88 637 204 720 377 720 c 0
 599 720 666 577 666 349 c 0
 666 203 633 111 576 56 c 1
 666 -53 l 1
 563 -77 l 1
 500 10 l 1
EndSplineSet
Validated: 3073
EndChar

StartChar: R
Encoding: 82 82 51
Width: 643
VWidth: 1473
Flags: W
HStem: 0 21G<88 192 452.481 582> 324 77<192 323> 625 91<192 434.944>
VStem: 88 104<0 324 401 625> 479 106<443.234 583.379>
LayerCount: 2
Fore
SplineSet
585 510 m 0
 585 365 469 334 427 329 c 1
 582 0 l 1
 461 0 l 1
 323 324 l 1
 192 324 l 1
 192 0 l 1
 88 0 l 1
 88 716 l 1
 326 716 l 2
 489 716 585 666 585 510 c 0
479 510 m 0
 479 579 451 625 326 625 c 2
 192 625 l 1
 192 401 l 1
 340 401 l 2
 409 401 479 423 479 510 c 0
EndSplineSet
Validated: 3073
EndChar

StartChar: S
Encoding: 83 83 52
Width: 657
VWidth: 1473
Flags: W
HStem: -9 84<261.01 440.44> 636 83<234.094 408.876>
VStem: 59 99<176.234 213.485> 81 103<478.151 589.93> 495 103<124.026 235.318>
LayerCount: 2
Fore
SplineSet
495 178 m 256xe8
 495 350 81 291 81 532 c 0
 81 607 123 719 317 719 c 0
 420 719 533 674 579 523 c 1
 485 504 l 1
 460 582 419 636 317 636 c 0
 218 636 184 577 184 532 c 0xd8
 184 400 455 416 567 283 c 0
 588 258 598 227 598 189 c 0
 598 110 550 -9 359 -9 c 0
 180 -9 101 71 59 212 c 1
 158 233 l 1
 182 130 255 75 361 75 c 0
 438 75 495 123 495 178 c 256xe8
EndSplineSet
Validated: 3073
EndChar

StartChar: T
Encoding: 84 84 53
Width: 545
VWidth: 1473
Flags: W
HStem: 0 21G<221 324> 639 77<15 221 324 530>
VStem: 221 103<0 639>
LayerCount: 2
Fore
SplineSet
324 0 m 1
 221 0 l 1
 221 639 l 1
 15 639 l 1
 15 716 l 1
 530 716 l 1
 530 639 l 1
 324 639 l 1
 324 0 l 1
EndSplineSet
Validated: 3073
EndChar

StartChar: U
Encoding: 85 85 54
Width: 724
VWidth: 1473
Flags: W
HStem: -9 83<251.917 471.231> 696 20G<88 192 533 636>
VStem: 88 104<141.646 716> 533 103<145.771 716>
LayerCount: 2
Fore
SplineSet
362 74 m 256
 486 74 533 102 533 301 c 2
 533 716 l 1
 636 716 l 1
 636 301 l 2
 636 82 581 -9 362 -9 c 256
 154 -9 88 72 88 301 c 2
 88 716 l 1
 192 716 l 1
 192 301 l 2
 192 92 248 74 362 74 c 256
EndSplineSet
Validated: 3073
EndChar

StartChar: V
Encoding: 86 86 55
Width: 652
VWidth: 1473
Flags: W
HStem: 0 21G<267.156 386.788> 696 20G<29 144.038 508.026 623>
LayerCount: 2
Fore
SplineSet
514 716 m 1
 623 716 l 1
 380 0 l 1
 274 0 l 1
 29 716 l 1
 138 716 l 1
 327 90 l 1
 514 716 l 1
EndSplineSet
Validated: 3073
EndChar

StartChar: W
Encoding: 87 87 56
Width: 833
VWidth: 1473
Flags: W
HStem: 0 21G<155.369 281.568 552.432 678.603> 696 20G<29 140.881 362.209 471.791 692.152 804>
LayerCount: 2
Fore
SplineSet
467 716 m 1
 610 119 l 1
 695 716 l 1
 804 716 l 1
 675 0 l 1
 557 0 l 1
 417 613 l 1
 277 0 l 1
 159 0 l 1
 29 716 l 1
 138 716 l 1
 224 119 l 1
 367 716 l 1
 467 716 l 1
EndSplineSet
Validated: 3073
EndChar

StartChar: X
Encoding: 88 88 57
Width: 617
VWidth: 1473
Flags: W
HStem: 0 21G<15 143.563 470.148 603> 696 20G<29 157.897 450.241 579>
LayerCount: 2
Fore
SplineSet
29 716 m 1
 147 716 l 1
 305 426 l 1
 461 716 l 1
 579 716 l 1
 365 355 l 1
 603 0 l 1
 483 0 l 1
 305 277 l 1
 131 0 l 1
 15 0 l 1
 246 355 l 1
 29 716 l 1
EndSplineSet
Validated: 3073
EndChar

StartChar: Y
Encoding: 89 89 58
Width: 623
VWidth: 1473
Flags: W
HStem: 0 21G<259 362> 696 20G<29 155.794 467.265 594>
VStem: 259 103<0 280>
LayerCount: 2
Fore
SplineSet
362 0 m 1
 259 0 l 1
 259 280 l 1
 29 716 l 1
 146 716 l 1
 312 377 l 1
 477 716 l 1
 594 716 l 1
 362 280 l 1
 362 0 l 1
EndSplineSet
Validated: 3073
EndChar

StartChar: Z
Encoding: 90 90 59
Width: 583
VWidth: 1473
Flags: W
HStem: 0 77<177 524> 638 78<59 407>
LayerCount: 2
Fore
SplineSet
407 638 m 1
 59 638 l 1
 59 716 l 1
 517 716 l 1
 517 633 l 1
 177 77 l 1
 524 77 l 1
 524 0 l 1
 62 0 l 1
 62 77 l 1
 407 638 l 1
EndSplineSet
Validated: 3073
EndChar

StartChar: bracketleft
Encoding: 91 91 60
Width: 397
VWidth: 1473
Flags: W
HStem: -87 59<206 327> 803 59<206 327>
VStem: 105 101<-28 803>
LayerCount: 2
Fore
SplineSet
327 862 m 1
 327 803 l 1
 206 803 l 1
 206 -28 l 1
 327 -28 l 1
 327 -87 l 1
 105 -87 l 1
 105 862 l 1
 327 862 l 1
EndSplineSet
Validated: 3073
EndChar

StartChar: backslash
Encoding: 92 92 61
Width: 331
VWidth: 1473
Flags: W
HStem: -12 21G<240.108 346>
LayerCount: 2
Fore
SplineSet
-15 874 m 1
 81 874 l 1
 346 -12 l 1
 246 -12 l 1
 -15 874 l 1
EndSplineSet
Validated: 3073
EndChar

StartChar: bracketright
Encoding: 93 93 62
Width: 397
VWidth: 1473
Flags: W
HStem: -87 59<71 192> 803 59<71 192>
VStem: 192 101<-28 803>
LayerCount: 2
Fore
SplineSet
71 -87 m 1
 71 -28 l 1
 192 -28 l 1
 192 803 l 1
 71 803 l 1
 71 862 l 1
 293 862 l 1
 293 -87 l 1
 71 -87 l 1
EndSplineSet
Validated: 3073
EndChar

StartChar: asciicircum
Encoding: 94 94 63
Width: 671
VWidth: 1473
Flags: W
LayerCount: 2
Fore
SplineSet
380 809 m 1
 608 331 l 1
 505 331 l 1
 333 698 l 1
 166 331 l 1
 63 331 l 1
 290 809 l 1
 380 809 l 1
EndSplineSet
Validated: 3073
EndChar

StartChar: underscore
Encoding: 95 95 64
Width: 699
VWidth: 1473
Flags: W
HStem: -175 85<0 700>
LayerCount: 2
Fore
SplineSet
0 -175 m 1
 0 -90 l 1
 700 -90 l 1
 700 -175 l 1
 0 -175 l 1
EndSplineSet
Validated: 3073
EndChar

StartChar: grave
Encoding: 96 96 65
Width: 248
VWidth: 1473
Flags: W
HStem: 647 154
VStem: -15 209
LayerCount: 2
Fore
SplineSet
100 801 m 1
 194 647 l 1
 122 647 l 1
 -15 801 l 1
 100 801 l 1
EndSplineSet
Validated: 3073
EndChar

StartChar: a
Encoding: 97 97 66
Width: 559
VWidth: 1473
Flags: W
HStem: -12 69<140.393 280.516> 284 70<199.446 373> 526 68<185.816 335.49>
VStem: 29 92<76.1702 227.164> 373 93<135.001 284 353.38 490.071> 382 114<3.13279 70.5781>
LayerCount: 2
Fore
SplineSet
373 423 m 2xf8
 373 506 307 526 271 526 c 0
 208 526 163 501 102 427 c 0
 101 425 99 425 97 425 c 0
 84 425 59 445 48 456 c 2
 29 474 l 1
 71 530 174 594 262 594 c 0
 419 594 466 521 466 411 c 2
 466 175 l 2xf8
 466 93 481 40 496 12 c 1
 478 -1 427 -7 414 -7 c 256
 383 -7 390 18 382 46 c 0xf4
 380 53 378 62 377 71 c 1
 337 31 294 -12 189 -12 c 0
 98 -12 29 56 29 156 c 0
 29 314 127 341 373 354 c 1
 373 423 l 2xf8
200 57 m 0
 244 57 291 71 373 153 c 1
 373 284 l 1
 299 283 140 278 126 194 c 1
 122 178 121 160 121 143 c 0
 121 79 153 57 200 57 c 0
EndSplineSet
Validated: 3073
Substitution2: "Single Substitution lookup 27 subtable" uni0E38
Substitution2: "Single Substitution lookup 27 subtable" uni0E38
EndChar

StartChar: b
Encoding: 98 98 67
Width: 611
VWidth: 1473
Flags: W
HStem: -12 69<284.965 417.819> -4 21G<148.5 157.5> 526 68<270.381 425.367>
VStem: 103 93<137.458 472.103 544 809> 474 96<130.507 461.85>
LayerCount: 2
Fore
SplineSet
352 526 m 0xb8
 321 526 272 515 196 457 c 1
 196 164 l 1
 223 125 287 57 355 57 c 0
 426 57 474 105 474 283 c 0
 474 414 474 526 352 526 c 0xb8
77 7 m 1
 82 23 103 106 103 180 c 2
 103 809 l 1
 196 809 l 1
 196 544 l 1
 241 572 298 594 370 594 c 0
 445 594 498 568 526 514 c 0
 556 462 570 388 570 295 c 0
 570 131 528 -12 359 -12 c 0xb8
 300 -12 260 5 226 36 c 2
 186 75 l 1
 183 46 l 2
 179 22 177 14 174 7 c 1
 169 -0 162 -4 153 -4 c 0x78
 144 -4 94 -2 77 7 c 1
EndSplineSet
Validated: 3073
Substitution2: "Single Substitution lookup 27 subtable" uni0E39
Substitution2: "Single Substitution lookup 27 subtable" uni0E39
EndChar

StartChar: c
Encoding: 99 99 68
Width: 533
VWidth: 1473
Flags: W
HStem: -10 67<193.67 344.027> 526 68<193.704 344.362>
VStem: 41 96<138.255 446.373>
LayerCount: 2
Fore
SplineSet
492 109 m 1
 409 1 325 -10 274 -10 c 0
 100 -10 41 119 41 292 c 256
 41 465 100 594 274 594 c 0
 326 594 409 582 492 474 c 1
 480 460 444 425 426 425 c 0
 424 425 422 425 420 427 c 2
 386 468 l 1
 338 524 295 526 265 526 c 0
 188 526 137 488 137 292 c 256
 137 120 176 57 265 57 c 0
 313 57 350 74 386 116 c 2
 420 156 l 2
 422 158 424 159 427 159 c 0
 447 159 489 113 492 109 c 1
EndSplineSet
Validated: 3073
Substitution2: "Single Substitution lookup 27 subtable" uni0E3A
Substitution2: "Single Substitution lookup 27 subtable" uni0E3A
EndChar

StartChar: d
Encoding: 100 100 69
Width: 611
VWidth: 1473
Flags: W
HStem: -12 69<193.181 337.458> -4 21G<449.5 463> 526 68<184.369 349.983>
VStem: 41 96<130.507 457.645> 415 93<135.094 474.644 551 809>
LayerCount: 2
Fore
SplineSet
256 57 m 0xb8
 339 57 375 106 415 164 c 1
 415 457 l 1
 346 526 280 526 259 526 c 0
 144 526 137 438 137 283 c 0
 137 105 185 57 256 57 c 0xb8
249 594 m 0
 315 594 348 585 415 551 c 1
 415 809 l 1
 508 809 l 1
 508 180 l 2
 508 112 525 38 535 7 c 1
 516 -2 468 -4 458 -4 c 0x78
 441 -4 432 10 429 46 c 2
 426 75 l 1
 386 36 l 1
 347 1 302 -12 252 -12 c 0
 83 -12 41 131 41 295 c 0
 41 518 124 594 249 594 c 0
EndSplineSet
Validated: 3073
EndChar

StartChar: e
Encoding: 101 101 70
Width: 565
VWidth: 1473
Flags: W
HStem: -13 78<208.783 382.089> 267 69<137 423> 526 68<202.334 363.028>
VStem: 41 96<150.688 267 336 443.406> 423 90<336 447.417>
LayerCount: 2
Fore
SplineSet
423 336 m 1
 423 486 366 526 281 526 c 0
 166 526 137 435 137 336 c 1
 423 336 l 1
280 65 m 0
 426 65 440 154 457 154 c 0
 468 154 495 143 524 106 c 1
 479 47 396 -13 289 -13 c 0
 140 -13 41 73 41 289 c 2
 41 292 l 2
 41 511 137 594 280 594 c 0
 445 594 513 503 513 267 c 1
 137 267 l 1
 137 97 223 65 280 65 c 0
EndSplineSet
Validated: 3073
EndChar

StartChar: f
Encoding: 102 102 71
Width: 312
VWidth: 1473
Flags: W
HStem: 0 21G<93 189> 514 68<12 93 189 293> 744 77<202.857 315.814>
VStem: 93 96<0 514 582 729.559>
LayerCount: 2
Fore
SplineSet
315 728 m 0
 311 728 290 744 243 744 c 0
 230 744 189 737 189 673 c 2
 189 582 l 1
 293 582 l 1
 293 514 l 1
 189 514 l 1
 189 0 l 1
 93 0 l 1
 93 514 l 1
 12 514 l 1
 12 582 l 1
 93 582 l 1
 93 664 l 2
 93 790 171 821 246 821 c 0
 269 821 293 817 318 810 c 1
 324 799 327 782 327 767 c 0
 327 747 322 728 315 728 c 0
EndSplineSet
Validated: 3073
EndChar

StartChar: g
Encoding: 103 103 72
Width: 559
VWidth: 1473
Flags: W
HStem: -206 68<151.445 406.625> 28 75<150.803 421.118> 192 67<198.803 345.92> 526 68<199.895 343.775> 544 78<457.416 538.466>
VStem: 22 90<-103.387 -5.62731> 47 83<122.975 195.196> 50 97<310.865 472.079> 390 98<305.004 478.203> 452 90<-101.542 -0.0985012>
LayerCount: 2
Fore
SplineSet
295 103 m 0xea80
 427 103 542 73 542 -47 c 0
 542 -142 466 -206 277 -206 c 256
 56 -206 22 -124 22 -69 c 0xec40
 22 12 83 39 125 55 c 1
 125 57 l 1
 53 71 47 120 47 136 c 0xea
 47 198 92 229 125 240 c 1
 89 260 50 317 50 383 c 0
 50 515 141 594 281 594 c 0xf1
 340 594 386 568 401 558 c 1
 426 586 475 622 523 622 c 0
 535 622 541 616 541 604 c 0
 541 583 539 559 533 544 c 1
 499 544 475 537 448 516 c 1
 480 476 488 443 488 395 c 0
 488 257 391 192 262 192 c 0
 246 192 218 195 180 211 c 1
 158 202 130 186 130 155 c 0
 130 113 199 103 295 103 c 0xea80
452 -53 m 0
 452 2 428 28 262 28 c 0
 132 28 112 -22 112 -56 c 0
 112 -123 197 -138 267 -138 c 0
 406 -138 452 -104 452 -53 c 0
268 526 m 0xf180
 229 526 147 505 147 390 c 0
 147 285 226 259 268 259 c 0
 329 259 390 285 390 390 c 0
 390 499 327 526 268 526 c 0xf180
EndSplineSet
Validated: 3073
EndChar

StartChar: h
Encoding: 104 104 73
Width: 637
VWidth: 1473
Flags: W
HStem: 0 21G<93 189 448 545> 526 68<284.453 418.509>
VStem: 93 96<0 450.577 505 809> 448 97<0 494.456>
LayerCount: 2
Fore
SplineSet
359 526 m 0
 291 526 219 463 189 429 c 1
 189 0 l 1
 93 0 l 1
 93 809 l 1
 189 809 l 1
 189 505 l 1
 247 577 336 594 373 594 c 0
 476 594 545 543 545 398 c 2
 545 0 l 1
 448 0 l 1
 448 390 l 2
 448 472 430 526 359 526 c 0
EndSplineSet
Validated: 3073
EndChar

StartChar: i
Encoding: 105 105 74
Width: 263
VWidth: 1473
Flags: W
HStem: 0 21G<84 180> 562 20G<84 180> 710 99<84 180>
VStem: 84 96<0 582 710 809>
LayerCount: 2
Fore
SplineSet
180 0 m 1
 84 0 l 1
 84 582 l 1
 180 582 l 1
 180 0 l 1
84 710 m 1
 84 809 l 1
 180 809 l 1
 180 710 l 1
 84 710 l 1
EndSplineSet
Validated: 3073
EndChar

StartChar: j
Encoding: 106 106 75
Width: 248
VWidth: 1473
Flags: W
HStem: -206 84<-59.0126 71.4239> 562 20G<77 172> 710 99<77 172>
VStem: 77 95<-114.533 582 710 809>
LayerCount: 2
Fore
SplineSet
-83 -143 m 0
 -83 -123 -80 -98 -68 -98 c 0
 -54 -98 -28 -122 22 -122 c 0
 72 -122 77 -95 77 -71 c 2
 77 582 l 1
 172 582 l 1
 172 -63 l 2
 172 -177 89 -206 31 -206 c 0
 4 -206 -58 -203 -69 -197 c 1
 -79 -184 -83 -162 -83 -143 c 0
77 710 m 1
 77 809 l 1
 172 809 l 1
 172 710 l 1
 77 710 l 1
EndSplineSet
Validated: 3073
EndChar

StartChar: k
Encoding: 107 107 76
Width: 586
VWidth: 1473
Flags: W
HStem: 0 21G<93 186 419.282 561> 562 20G<388.506 533>
VStem: 93 93<0 227 343 809>
LayerCount: 2
Fore
SplineSet
93 0 m 1
 93 809 l 1
 186 809 l 1
 186 343 l 1
 407 582 l 1
 533 582 l 1
 277 321 l 1
 561 0 l 1
 436 0 l 1
 217 262 l 1
 186 227 l 1
 186 0 l 1
 93 0 l 1
EndSplineSet
Validated: 3073
EndChar

StartChar: l
Encoding: 108 108 77
Width: 263
VWidth: 1473
Flags: W
HStem: 0 21G<84 180>
VStem: 84 96<0 809>
LayerCount: 2
Fore
SplineSet
84 809 m 1
 180 809 l 1
 180 0 l 1
 84 0 l 1
 84 809 l 1
EndSplineSet
Validated: 3073
EndChar

StartChar: m
Encoding: 109 109 78
Width: 947
VWidth: 1473
Flags: W
HStem: 0 21G<93 189 426 522 757 854> 519 75<278.912 406.953 602.676 738.556> 562 20G<93 189>
VStem: 93 96<0 441.514 508 582> 426 96<0 444.198> 757 97<0 501.16>
LayerCount: 2
Fore
SplineSet
346 519 m 0xdc
 289 519 219 462 189 414 c 1
 189 0 l 1
 93 0 l 1
 93 582 l 1
 189 582 l 1xbc
 189 508 l 1
 262 586 338 594 359 594 c 0
 438 594 485 563 501 502 c 1
 578 591 650 594 694 594 c 0
 770 594 854 562 854 435 c 2
 854 0 l 1
 757 0 l 1
 757 442 l 2
 757 483 741 519 679 519 c 0
 605 519 551 463 522 414 c 1
 522 0 l 1
 426 0 l 1
 426 442 l 2
 426 504 386 519 346 519 c 0xdc
EndSplineSet
Validated: 3073
EndChar

StartChar: n
Encoding: 110 110 79
Width: 652
VWidth: 1473
Flags: W
HStem: 0 21G<93 189 463 560> 519 75<282.759 427.048> 562 20G<93 189>
VStem: 93 96<0 439.566 505 582> 463 97<0 480.482>
LayerCount: 2
Fore
SplineSet
359 519 m 0xd8
 291 519 223 463 189 414 c 1
 189 0 l 1
 93 0 l 1
 93 582 l 1
 189 582 l 1xb8
 189 505 l 1
 233 566 307 594 387 594 c 0
 469 594 560 532 560 398 c 2
 560 0 l 1
 463 0 l 1
 463 390 l 2
 463 462 442 519 359 519 c 0xd8
EndSplineSet
Validated: 3073
EndChar

StartChar: o
Encoding: 111 111 80
Width: 574
VWidth: 1473
Flags: W
HStem: -12 69<203.194 371.174> 526 68<203.194 371.56>
VStem: 41 96<139.215 443.376> 438 95<137.926 444.958>
LayerCount: 2
Fore
SplineSet
438 292 m 256
 438 484 378 526 287 526 c 256
 197 526 137 483 137 292 c 256
 137 99 197 57 287 57 c 256
 378 57 438 99 438 292 c 256
41 292 m 256
 41 517 139 594 287 594 c 0
 471 594 533 477 533 292 c 256
 533 58 435 -12 287 -12 c 0
 139 -12 41 64 41 292 c 256
EndSplineSet
Validated: 3073
EndChar

StartChar: p
Encoding: 112 112 81
Width: 606
VWidth: 1473
Flags: W
HStem: -206 21G<103 196> -12 68<233.387 396.921> 524 70<270.161 429.593> 562 20G<147.5 171>
VStem: 103 93<-206 16 87.2188 449.871> 474 96<147.896 465.108>
LayerCount: 2
Fore
SplineSet
355 524 m 0xec
 291 524 243 502 196 418 c 1
 196 103 l 1
 221 83 262 56 308 56 c 0
 408 56 474 101 474 299 c 0
 474 462 458 524 355 524 c 0xec
103 386 m 2
 103 471 93 548 87 567 c 1
 102 571 130 582 165 582 c 0xdc
 177 582 196 574 196 523 c 2
 196 507 l 1
 197 507 l 1
 219 540 265 594 367 594 c 0
 529 594 570 470 570 287 c 0
 570 111 488 -12 326 -12 c 0
 277 -12 234 -3 196 16 c 1
 196 -206 l 1
 103 -206 l 1
 103 386 l 2
EndSplineSet
Validated: 3073
EndChar

StartChar: q
Encoding: 113 113 82
Width: 611
VWidth: 1473
Flags: W
HStem: -206 21G<415 508> -12 68<188.653 363.511> 524 70<191.123 333.246> 562 20G<438.5 466.5>
VStem: 41 96<133.417 453.757> 415 93<-206 31 96.5152 444.736>
LayerCount: 2
Fore
SplineSet
245 594 m 0xec
 290 594 346 592 420 514 c 1
 422 559 431 582 446 582 c 0xdc
 487 582 503 572 527 567 c 1
 516 533 508 432 508 386 c 2
 508 -206 l 1
 415 -206 l 1
 415 31 l 1
 375 8 324 -12 264 -12 c 0
 86 -12 41 139 41 287 c 0
 41 462 85 594 245 594 c 0xec
281 56 m 0
 311 56 377 71 415 118 c 1
 415 418 l 1
 366 489 320 524 256 524 c 0xec
 185 524 137 477 137 299 c 0
 137 128 145 56 281 56 c 0
EndSplineSet
Validated: 3073
EndChar

StartChar: r
Encoding: 114 114 83
Width: 424
VWidth: 1473
Flags: W
HStem: 0 21G<87 184> 489 105<262.125 393.021> 562 20G<87 184>
VStem: 87 97<0 405.262 486 582>
LayerCount: 2
Fore
SplineSet
186 486 m 1xb0
 224 577 304 594 354 594 c 0
 366 594 391 593 404 586 c 1
 407 579 408 570 408 560 c 0
 408 523 392 476 386 476 c 1
 371 485 355 489 336 489 c 256xd0
 255 489 184 420 184 314 c 2
 184 0 l 1
 87 0 l 1
 87 582 l 1
 184 582 l 1
 184 486 l 1
 186 486 l 1xb0
EndSplineSet
Validated: 3073
EndChar

StartChar: s
Encoding: 115 115 84
Width: 511
VWidth: 1473
Flags: W
HStem: -12 69<182.223 317.989> 526 68<167.067 299.11>
VStem: 44 97<390.424 499.478> 358 97<94.3688 212.236>
LayerCount: 2
Fore
SplineSet
455 155 m 0
 455 55 366 -12 253 -12 c 0
 212 -12 102 -5 28 106 c 1
 34 113 75 156 91 156 c 0
 96 156 101 154 106 147 c 0
 135 111 187 57 258 57 c 0
 289 57 358 83 358 155 c 0
 358 282 152 245 68 353 c 0
 52 373 44 400 44 435 c 0
 44 544 131 594 230 594 c 0
 315 594 389 555 430 489 c 1
 414 467 380 442 368 442 c 0
 359 442 355 450 351 455 c 0
 305 513 265 526 227 526 c 0
 173 526 141 492 141 438 c 0
 141 332 346 366 432 244 c 0
 447 222 455 192 455 155 c 0
EndSplineSet
Validated: 3073
EndChar

StartChar: t
Encoding: 116 116 85
Width: 355
VWidth: 1473
Flags: W
HStem: -12 84<204.499 327.114> 514 68<12 99 194 324>
VStem: 99 95<83.49 514 582 772>
LayerCount: 2
Fore
SplineSet
326 88 m 0
 336 88 338 62 338 47 c 0
 338 26 334 6 330 -3 c 1
 301 -11 293 -8 255 -12 c 1
 178 -12 99 9 99 91 c 2
 99 514 l 1
 12 514 l 1
 12 582 l 1
 99 582 l 1
 99 772 l 1
 194 772 l 1
 194 582 l 1
 324 582 l 1
 324 514 l 1
 194 514 l 1
 194 131 l 2
 194 92 214 72 255 72 c 0
 300 72 317 88 326 88 c 0
EndSplineSet
Validated: 3073
EndChar

StartChar: u
Encoding: 117 117 86
Width: 652
VWidth: 1473
Flags: W
HStem: -12 69<227.572 363.953> 0 21G<494 516> 562 20G<93 189 463 560>
VStem: 93 96<100.604 582> 463 97<140.357 582>
LayerCount: 2
Fore
SplineSet
579 12 m 1xb8
 566 6 527 0 505 0 c 0x78
 483 0 470 5 470 78 c 1
 436 28 345 -12 280 -12 c 0
 130 -12 93 89 93 184 c 2
 93 582 l 1
 189 582 l 1
 189 192 l 2
 189 95 230 57 292 57 c 0
 326 57 411 86 463 169 c 1
 463 582 l 1
 560 582 l 1
 560 150 l 2
 560 95 575 25 579 12 c 1xb8
EndSplineSet
Validated: 3073
EndChar

StartChar: v
Encoding: 118 118 87
Width: 525
VWidth: 1473
Flags: W
HStem: 0 21G<208.127 317.873> 562 20G<15 122.25 403.707 511>
LayerCount: 2
Fore
SplineSet
15 582 m 1
 116 582 l 1
 261 118 l 1
 264 118 l 1
 410 582 l 1
 511 582 l 1
 311 0 l 1
 215 0 l 1
 15 582 l 1
EndSplineSet
Validated: 3073
EndChar

StartChar: w
Encoding: 119 119 88
Width: 776
VWidth: 1473
Flags: W
HStem: 0 21G<165.433 258.841 511.248 603.842> 562 20G<9 110.088 333.779 441.044 663.823 768>
LayerCount: 2
Fore
SplineSet
9 582 m 1
 105 582 l 1
 220 130 l 1
 221 130 l 1
 339 582 l 1
 436 582 l 1
 550 130 l 1
 552 130 l 1
 669 582 l 1
 768 582 l 1
 598 0 l 1
 517 0 l 1
 387 452 l 1
 385 452 l 1
 253 0 l 1
 171 0 l 1
 9 582 l 1
EndSplineSet
Validated: 3073
EndChar

StartChar: x
Encoding: 120 120 89
Width: 527
VWidth: 1473
Flags: W
HStem: 0 21G<12 134.348 394.565 516> 562 20G<34 156.308 370.795 492>
LayerCount: 2
Fore
SplineSet
122 0 m 1
 12 0 l 1
 209 309 l 1
 34 582 l 1
 144 582 l 1
 264 387 l 1
 383 582 l 1
 492 582 l 1
 318 309 l 1
 516 0 l 1
 407 0 l 1
 264 230 l 1
 122 0 l 1
EndSplineSet
Validated: 3073
EndChar

StartChar: y
Encoding: 121 121 90
Width: 525
VWidth: 1473
Flags: W
HStem: -206 82<-3.35806 147.448> 562 20G<15 122.577 404.378 514>
LayerCount: 2
Fore
SplineSet
-2 -107 m 0
 -0 -107 28 -124 71 -124 c 0
 110 -124 181 -115 215 9 c 1
 15 582 l 1
 116 582 l 1
 262 138 l 1
 264 138 l 1
 411 582 l 1
 514 582 l 1
 296 -43 l 2
 251 -173 150 -206 66 -206 c 0
 43 -206 19 -203 -6 -196 c 1
 -12 -182 -15 -165 -15 -149 c 0
 -15 -127 -10 -107 -2 -107 c 0
EndSplineSet
Validated: 3073
EndChar

StartChar: z
Encoding: 122 122 91
Width: 496
VWidth: 1473
Flags: W
HStem: 0 68<147 463> 514 68<55 334>
LayerCount: 2
Fore
SplineSet
55 582 m 1
 454 582 l 1
 454 526 l 1
 147 68 l 1
 463 68 l 1
 463 0 l 1
 28 0 l 1
 28 57 l 1
 334 514 l 1
 55 514 l 1
 55 582 l 1
EndSplineSet
Validated: 3073
EndChar

StartChar: braceleft
Encoding: 123 123 92
Width: 402
VWidth: 1473
Flags: W
HStem: -93 56<219.311 314> 337 53<49 98.5869> 765 56<219.311 314>
VStem: 116 96<-30.9844 320.875 407 757.879>
LayerCount: 2
Fore
SplineSet
116 246 m 2
 116 317 89 337 49 337 c 1
 49 390 l 1
 89 390 116 411 116 482 c 2
 116 692 l 2
 116 767 146 821 215 821 c 2
 314 821 l 1
 314 765 l 1
 258 765 l 2
 221 765 212 742 212 691 c 2
 212 485 l 2
 212 420 192 382 133 365 c 1
 133 362 l 1
 193 349 212 305 212 243 c 2
 212 37 l 2
 212 -14 221 -37 258 -37 c 2
 314 -37 l 1
 314 -93 l 1
 215 -93 l 2
 175 -93 116 -74 116 35 c 2
 116 246 l 2
EndSplineSet
Validated: 3073
EndChar

StartChar: bar
Encoding: 124 124 93
Width: 263
VWidth: 1473
Flags: W
HStem: -12 21G<87 177>
VStem: 87 90<-12 821>
LayerCount: 2
Fore
SplineSet
87 821 m 1
 177 821 l 1
 177 -12 l 1
 87 -12 l 1
 87 821 l 1
EndSplineSet
Validated: 3073
EndChar

StartChar: braceright
Encoding: 125 125 94
Width: 402
VWidth: 1473
Flags: W
HStem: -93 56<88 182.689> 337 53<302.769 354> 765 56<88 182.689>
VStem: 190 96<-30.627 320.083 406.479 757.879>
LayerCount: 2
Fore
SplineSet
286 482 m 2
 286 410 313 390 354 390 c 1
 354 337 l 1
 317 337 286 322 286 246 c 2
 286 35 l 2
 286 -40 256 -93 187 -93 c 2
 88 -93 l 1
 88 -37 l 1
 144 -37 l 2
 181 -37 190 -14 190 37 c 2
 190 243 l 2
 190 307 210 350 270 362 c 1
 270 365 l 1
 212 381 190 417 190 485 c 2
 190 691 l 2
 190 742 181 765 144 765 c 2
 88 765 l 1
 88 821 l 1
 187 821 l 2
 256 821 286 767 286 692 c 2
 286 482 l 2
EndSplineSet
Validated: 3073
EndChar

StartChar: asciitilde
Encoding: 126 126 95
Width: 671
VWidth: 1473
Flags: W
HStem: 222 79<379.141 525.088> 296 78<147.467 290.113>
LayerCount: 2
Fore
SplineSet
466 301 m 0x80
 507 301 525 315 558 364 c 1
 614 317 l 1
 601 293 584 271 560 252 c 1
 538 232 505 222 463 222 c 0x80
 375 222 278 296 206 296 c 0
 164 296 149 282 113 233 c 1
 57 281 l 1
 70 304 89 325 112 344 c 0
 135 364 168 374 209 374 c 0x40
 297 374 392 301 466 301 c 0x80
EndSplineSet
Validated: 3073
EndChar

StartChar: uni0E33.alt1
Encoding: 65537 -1 96
Width: 514
VWidth: 1473
Flags: W
HStem: 0 21G<334 427> 532 66<148.795 291.963> 688 59<-370.819 -301.181> 826 59<-371.495 -300.58>
VStem: -435 59<751.536 820.976> -296 59<751.536 820.916> 334 98<0 283.307> 334 90<0 390.317> 342 88<140.625 477.794>
LayerCount: 2
Fore
SplineSet
-336 885 m 256xfc
 -279 885 -237 840 -237 787 c 256
 -237 729 -282 688 -336 688 c 256
 -390 688 -435 729 -435 787 c 256
 -435 846 -388 885 -336 885 c 256xfc
-336 747 m 256
 -315 747 -296 763 -296 787 c 256
 -296 810 -315 826 -336 826 c 256
 -359 826 -376 808 -376 787 c 256
 -376 763 -357 747 -336 747 c 256
430 410 m 0xfc80
 430 339 424 304 424 233 c 2
 424 186 l 2xfd
 424 172 427 51 432 21 c 0
 435 6 433 0 421 0 c 2
 334 0 l 1
 334 225 l 2xfe
 334 327 342 293 342 395 c 0
 342 519 253 532 225 532 c 0
 163 532 134 508 71 435 c 0
 70 433 68 432 65 432 c 0
 50 432 14 463 0 480 c 1
 37 534 143 598 217 598 c 0
 306 598 430 560 430 410 c 0xfc80
EndSplineSet
Validated: 3073
EndChar

StartChar: exclamdown
Encoding: 161 161 100
Width: 279
VWidth: 1473
Flags: W
HStem: 467 115<77 203>
VStem: 77 126<-227 -53.5909 467 582> 99 85<144.591 318>
LayerCount: 2
Fore
SplineSet
77 -227 m 1xc0
 99 318 l 1
 184 318 l 1xa0
 203 -227 l 1
 77 -227 l 1xc0
203 582 m 1xc0
 203 467 l 1
 77 467 l 1
 77 582 l 1
 203 582 l 1xc0
EndSplineSet
Validated: 3073
EndChar

StartChar: cent
Encoding: 162 162 101
Width: 623
VWidth: 1473
Flags: W
HStem: -10 66<243.506 376.529> 491 64<209.061 329.311>
VStem: 62 82<135.552 414.116> 411 62<410.726 432.102>
LayerCount: 2
Fore
SplineSet
286 491 m 0
 201 491 144 444 144 273 c 0
 144 206 150 136 197 85 c 1
 330 482 l 1
 304 489 304 491 286 491 c 0
62 273 m 0
 62 420 107 555 286 555 c 0
 307 555 326 552 345 547 c 1
 380 653 l 1
 433 653 l 1
 390 526 l 1
 430 500 457 464 473 414 c 1
 411 385 l 1
 401 413 391 434 373 454 c 1
 243 63 l 1
 255 59 270 56 286 56 c 0
 380 56 402 92 424 152 c 1
 488 121 l 1
 444 11 358 -10 286 -10 c 0
 265 -10 246 -8 228 -3 c 1
 190 -119 l 1
 137 -119 l 1
 181 15 l 1
 97 61 62 140 62 273 c 0
EndSplineSet
Validated: 3073
EndChar

StartChar: sterling
Encoding: 163 163 102
Width: 581
VWidth: 1473
Flags: W
HStem: -10 66<239.953 393.991> 333 59<15 119 211 324> 659 67<237.065 379.909>
VStem: 106 84<395.338 609.955> 131 84<146.397 333> 446 70<541.3 581.865> 461 69<132.369 167.536>
LayerCount: 2
Fore
SplineSet
334 -10 m 0xea
 244 -10 197 14 140 53 c 1
 108 14 48 -3 16 -10 c 1
 16 65 l 1
 97 94 131 155 131 267 c 0xea
 131 293 126 320 125 333 c 1
 15 333 l 1
 15 392 l 1
 119 392 l 1
 114 459 106 472 106 526 c 0
 106 650 185 726 305 726 c 0
 423 726 497 651 516 544 c 1
 446 517 l 1
 428 603 389 659 305 659 c 0
 259 659 190 636 190 523 c 0xf4
 190 497 190 469 208 392 c 1
 324 392 l 1
 324 333 l 1
 211 333 l 1
 214 323 215 312 215 280 c 0
 215 221 208 173 180 112 c 1
 264 59 288 56 324 56 c 0
 369 56 432 76 461 190 c 1
 530 165 l 1
 510 62 452 -10 334 -10 c 0xea
EndSplineSet
Validated: 3073
EndChar

StartChar: currency
Encoding: 164 164 103
Width: 623
VWidth: 1473
Flags: W
HStem: 82 80<224.687 397.978> 560 78<226.422 395.656>
VStem: 34 85<271.027 449.594> 504 85<271.027 449.812>
LayerCount: 2
Fore
SplineSet
138 576 m 1
 191 620 255 638 311 638 c 0
 377 638 435 617 485 576 c 1
 547 638 l 1
 589 595 l 1
 529 535 l 1
 573 482 589 422 589 361 c 256
 589 304 574 237 529 186 c 1
 589 125 l 1
 547 82 l 1
 485 143 l 1
 434 102 376 82 311 82 c 0
 276 82 205 89 138 143 c 1
 75 82 l 1
 34 125 l 1
 94 186 l 1
 49 237 34 304 34 361 c 256
 34 422 50 482 94 535 c 1
 34 595 l 1
 75 638 l 1
 138 576 l 1
119 361 m 256
 119 252 207 162 311 162 c 256
 416 162 504 252 504 361 c 256
 504 474 410 560 311 560 c 256
 212 560 119 473 119 361 c 256
EndSplineSet
Validated: 3073
EndChar

StartChar: yen
Encoding: 165 165 104
Width: 598
VWidth: 1473
Flags: W
HStem: 0 21G<249 342> 231 59<72 249 342 517> 376 60<72 184 408 517> 696 20G<37 138.03 460.179 561>
VStem: 249 93<0 231 290 303>
LayerCount: 2
Fore
SplineSet
517 376 m 1
 380 376 l 1
 342 303 l 1
 342 290 l 1
 517 290 l 1
 517 231 l 1
 342 231 l 1
 342 0 l 1
 249 0 l 1
 249 231 l 1
 72 231 l 1
 72 290 l 1
 249 290 l 1
 249 303 l 1
 212 376 l 1
 72 376 l 1
 72 436 l 1
 184 436 l 1
 37 716 l 1
 128 716 l 1
 293 387 l 1
 471 716 l 1
 561 716 l 1
 408 436 l 1
 517 436 l 1
 517 376 l 1
EndSplineSet
Validated: 3073
EndChar

StartChar: brokenbar
Encoding: 166 166 105
Width: 278
VWidth: 1473
Flags: W
HStem: -12 21G<94 184>
VStem: 94 90<-12 287 433 732>
LayerCount: 2
Fore
SplineSet
94 287 m 1
 184 287 l 1
 184 -12 l 1
 94 -12 l 1
 94 287 l 1
94 732 m 1
 184 732 l 1
 184 433 l 1
 94 433 l 1
 94 732 l 1
EndSplineSet
Validated: 3073
EndChar

StartChar: section
Encoding: 167 167 106
Width: 539
VWidth: 1473
Flags: W
HStem: -90 63<198.653 317.366> 426 57<165.152 203> 660 65<219.108 338.15>
VStem: 74 82<312.347 415.609> 134 71<553.653 645.065> 334 71<-9.76341 80.8736> 383 83<215.94 328.992>
LayerCount: 2
Fore
SplineSet
134 608 m 0xe8
 134 702 210 725 275 725 c 0
 360 725 419 676 449 614 c 1
 390 572 l 1
 360 632 322 660 277 660 c 0
 215 660 205 621 205 600 c 0
 205 583 210 559 272 514 c 2
 335 468 l 1
 461 378 466 300 466 265 c 0xea
 466 184 406 153 343 147 c 1
 390 92 405 74 405 28 c 0
 405 -59 336 -90 256 -90 c 0
 188 -90 115 -50 85 15 c 1
 146 59 l 1
 164 18 212 -27 256 -27 c 0
 327 -27 334 18 334 35 c 256
 334 64 305 92 266 122 c 1
 204 172 l 2
 84 269 74 338 74 377 c 0xf4
 74 462 148 483 203 483 c 1
 206 486 l 1
 146 529 134 568 134 608 c 0xe8
383 262 m 0
 383 341 284 426 217 426 c 256
 185 426 156 408 156 382 c 0xf2
 156 293 267 205 318 205 c 0
 370 205 383 235 383 262 c 0
EndSplineSet
Validated: 3073
EndChar

StartChar: dieresis
Encoding: 168 168 107
Width: 307
VWidth: 1473
Flags: W
HStem: 659 120<0 103 205 308>
VStem: 0 103<659 779> 205 103<659 779>
LayerCount: 2
Fore
SplineSet
103 779 m 1
 103 659 l 1
 0 659 l 1
 0 779 l 1
 103 779 l 1
308 779 m 1
 308 659 l 1
 205 659 l 1
 205 779 l 1
 308 779 l 1
EndSplineSet
Validated: 3073
EndChar

StartChar: copyright
Encoding: 169 169 108
Width: 895
VWidth: 1473
Flags: W
HStem: -10 66<287.32 507.662> 137 62<336.754 465.424> 517 62<334.47 466.933> 660 66<290.185 506.384>
VStem: 28 74<244.289 471.423> 211 82<249.158 472.901> 496 80<231.522 287 432 488.077> 691 74<242.041 475.533>
LayerCount: 2
Fore
SplineSet
28 358 m 256
 28 569 203 726 396 726 c 256
 602 726 765 556 765 358 c 256
 765 159 601 -10 396 -10 c 256
 202 -10 28 147 28 358 c 256
102 358 m 256
 102 197 225 56 396 56 c 0
 571 56 691 196 691 358 c 256
 691 545 548 660 396 660 c 0
 238 660 102 534 102 358 c 256
408 199 m 0
 443 199 483 211 496 287 c 1
 576 287 l 1
 557 203 513 137 408 137 c 0
 250 137 211 250 211 359 c 256
 211 497 268 579 404 579 c 0
 511 579 564 527 576 432 c 1
 496 432 l 1
 483 510 438 517 405 517 c 0
 337 517 293 489 293 359 c 0
 293 236 339 199 408 199 c 0
EndSplineSet
Validated: 3073
EndChar

StartChar: ordfeminine
Encoding: 170 170 109
Width: 335
VWidth: 1473
Flags: W
HStem: 460 54<89.0368 197.719> 642 55<140.726 227> 719 21G<37.5217 87> 768 53<106.199 220.868>
VStem: 15 69<519.912 602.276> 227 71<541.422 642 691.614 759.747> 234 71<466 504>
LayerCount: 2
Fore
SplineSet
171 768 m 0xfc
 117 768 93 736 81 719 c 1
 31 742 l 1
 62 796 102 821 177 821 c 0
 271 821 298 778 298 713 c 2
 298 538 l 2xfc
 298 509 299 494 305 466 c 1
 240 466 l 1
 234 504 l 1xfa
 186 462 142 460 123 460 c 0
 34 460 15 514 15 550 c 0
 15 670 158 677 227 697 c 1
 227 725 l 2
 227 754 208 768 171 768 c 0xfc
84 557 m 0
 84 523 112 514 127 514 c 0
 167 514 200 530 227 563 c 1
 227 642 l 1
 166 627 84 621 84 557 c 0
EndSplineSet
Validated: 3073
EndChar

StartChar: guillemotleft
Encoding: 171 171 110
Width: 559
VWidth: 1473
Flags: W
LayerCount: 2
Fore
SplineSet
357 295 m 1
 467 119 l 1
 365 119 l 1
 258 295 l 1
 365 463 l 1
 467 463 l 1
 357 295 l 1
192 295 m 1
 301 119 l 1
 197 119 l 1
 93 295 l 1
 197 463 l 1
 301 463 l 1
 192 295 l 1
EndSplineSet
Validated: 3073
EndChar

StartChar: logicalnot
Encoding: 172 172 111
Width: 671
VWidth: 1473
Flags: W
HStem: 358 77<44 538>
VStem: 538 90<149 358>
LayerCount: 2
Fore
SplineSet
538 358 m 1
 44 358 l 1
 44 435 l 1
 628 435 l 1
 628 149 l 1
 538 149 l 1
 538 358 l 1
EndSplineSet
Validated: 3073
EndChar

StartChar: registered
Encoding: 174 174 112
Width: 895
VWidth: 1473
Flags: W
HStem: -10 66<287.32 507.662> 321 61<346 398> 505 61<346 475.351> 660 66<290.185 506.384>
VStem: 28 74<244.289 471.423> 268 78<149 321 382 505> 483 78<391.13 497.001> 691 74<242.041 475.533>
LayerCount: 2
Fore
SplineSet
561 443 m 0
 561 358 498 328 466 321 c 1
 567 149 l 1
 483 149 l 1
 398 321 l 1
 346 321 l 1
 346 149 l 1
 268 149 l 1
 268 566 l 1
 427 566 l 2
 534 566 561 505 561 443 c 0
426 382 m 2
 472 382 483 407 483 445 c 0
 483 489 473 505 414 505 c 2
 346 505 l 1
 346 382 l 1
 426 382 l 2
28 358 m 256
 28 569 203 726 396 726 c 256
 602 726 765 556 765 358 c 256
 765 159 601 -10 396 -10 c 256
 202 -10 28 147 28 358 c 256
102 358 m 256
 102 197 225 56 396 56 c 0
 571 56 691 196 691 358 c 256
 691 545 548 660 396 660 c 0
 238 660 102 534 102 358 c 256
EndSplineSet
Validated: 3073
EndChar

StartChar: macron
Encoding: 175 175 113
Width: 248
VWidth: 1473
Flags: W
HStem: 676 80<-43 290>
LayerCount: 2
Fore
SplineSet
-43 756 m 1
 290 756 l 1
 290 676 l 1
 -43 676 l 1
 -43 756 l 1
EndSplineSet
Validated: 3073
EndChar

StartChar: degree
Encoding: 176 176 114
Width: 447
VWidth: 1473
Flags: W
HStem: 492 66<162.113 286.649> 756 65<161.484 286.653>
VStem: 60 68<592.057 722.929> 320 67<591.204 722.499>
LayerCount: 2
Fore
SplineSet
320 657 m 256
 320 715 282 756 224 756 c 256
 165 756 128 714 128 657 c 256
 128 599 166 558 224 558 c 256
 283 558 320 600 320 657 c 256
60 657 m 256
 60 753 139 821 224 821 c 256
 311 821 387 750 387 657 c 256
 387 562 310 492 224 492 c 256
 141 492 60 558 60 657 c 256
EndSplineSet
Validated: 3073
EndChar

StartChar: plusminus
Encoding: 177 177 115
Width: 671
VWidth: 1473
Flags: W
HStem: 0 75<44 628> 330 75<44 290 382 628>
VStem: 290 92<122 330 405 611>
LayerCount: 2
Fore
SplineSet
290 611 m 1
 382 611 l 1
 382 405 l 1
 628 405 l 1
 628 330 l 1
 382 330 l 1
 382 122 l 1
 290 122 l 1
 290 330 l 1
 44 330 l 1
 44 405 l 1
 290 405 l 1
 290 611 l 1
44 75 m 1
 628 75 l 1
 628 0 l 1
 44 0 l 1
 44 75 l 1
EndSplineSet
Validated: 3073
EndChar

StartChar: twosuperior
Encoding: 178 178 116
Width: 340
VWidth: 1473
Flags: W
HStem: 289 60<97 317> 595 21G<28 101.5> 667 59<120.214 229.486>
VStem: 22 75<349 391.225 602.243 641.459> 245 73<542.361 652.229>
LayerCount: 2
Fore
SplineSet
186 667 m 0
 122 667 107 636 96 595 c 1
 28 603 l 1
 43 676 95 726 183 726 c 256
 266 726 318 679 318 597 c 0
 318 450 97 435 97 349 c 1
 317 349 l 1
 317 289 l 1
 22 289 l 1
 22 337 l 2
 22 378 26 426 128 477 c 0
 219 527 245 551 245 601 c 0
 245 626 228 667 186 667 c 0
EndSplineSet
Validated: 3073
EndChar

StartChar: threesuperior
Encoding: 179 179 117
Width: 359
VWidth: 1473
Flags: W
HStem: 284 58<110.326 244.87> 488 59<118 235.286> 667 59<112.025 242.505>
VStem: 249 74<561.197 660.638> 264 73<360.771 470.243>
LayerCount: 2
Fore
SplineSet
256 519 m 1xf0
 306 504 337 473 337 410 c 0
 337 326 284 284 178 284 c 0
 84 284 38 334 22 361 c 1
 71 399 l 1
 115 347 156 342 181 342 c 0
 217 342 264 355 264 410 c 0xe8
 264 470 239 488 161 488 c 2
 118 488 l 1
 118 547 l 1
 153 547 l 2
 229 547 249 564 249 617 c 0
 249 655 233 667 186 667 c 0
 137 667 111 653 96 625 c 1
 44 656 l 1
 62 680 102 726 190 726 c 0
 277 726 323 703 323 620 c 0
 323 554 296 534 256 519 c 1xf0
EndSplineSet
Validated: 3073
EndChar

StartChar: acute
Encoding: 180 180 118
Width: 248
VWidth: 1473
Flags: W
HStem: 647 154
VStem: 53 212
LayerCount: 2
Fore
SplineSet
265 801 m 1
 125 647 l 1
 53 647 l 1
 149 801 l 1
 265 801 l 1
EndSplineSet
Validated: 3073
EndChar

StartChar: mu
Encoding: 181 181 119
Width: 623
VWidth: 1473
Flags: W
HStem: -206 21G<93 189> -12 69<223.474 346.491> 0 21G<433 530> 562 20G<93 189 433 530>
VStem: 93 96<-206 15 95.1403 582> 433 97<0 78 131.66 582>
LayerCount: 2
Fore
SplineSet
277 57 m 256xdc
 329 57 384 97 433 155 c 1
 433 582 l 1
 530 582 l 1
 530 0 l 1
 433 0 l 1xbc
 433 78 l 1
 379 -4 295 -12 273 -12 c 0
 249 -12 209 -8 189 15 c 1
 189 -206 l 1
 93 -206 l 1
 93 582 l 1
 189 582 l 1
 189 192 l 2
 189 80 242 57 277 57 c 256xdc
EndSplineSet
Validated: 3073
EndChar

StartChar: paragraph
Encoding: 182 182 120
Width: 559
VWidth: 1473
Flags: W
HStem: 744 65<334 423 508 563>
VStem: 18 316<500.071 695.057> 249 85<-90 377> 423 85<-90 744>
LayerCount: 2
Fore
SplineSet
18 589 m 0xd0
 18 735 114 809 267 809 c 2
 563 809 l 1
 563 744 l 1
 508 744 l 1
 508 -90 l 1
 423 -90 l 1
 423 744 l 1
 334 744 l 1
 334 -90 l 1
 249 -90 l 1
 249 377 l 1xb0
 123 377 18 468 18 589 c 0xd0
EndSplineSet
Validated: 3073
EndChar

StartChar: periodcentered
Encoding: 183 183 121
Width: 310
VWidth: 1473
Flags: W
HStem: 224 135<106.961 203.543>
VStem: 87 135<243.753 340.125>
LayerCount: 2
Fore
SplineSet
87 292 m 256
 87 331 122 359 155 359 c 0
 189 359 222 331 222 292 c 256
 222 253 189 224 155 224 c 0
 124 224 87 251 87 292 c 256
EndSplineSet
Validated: 3073
EndChar

StartChar: cedilla
Encoding: 184 184 122
Width: 248
VWidth: 1473
Flags: W
HStem: -233 46<9.2469 149.215> -97 45<79.9944 148.148> -20 20G<91.8064 149>
VStem: 155 70<-178.643 -103.853>
LayerCount: 2
Fore
SplineSet
225 -146 m 0
 225 -206 150 -233 108 -233 c 0
 67 -233 30 -224 0 -211 c 1
 15 -171 l 1
 60 -185 68 -187 81 -187 c 0
 142 -187 155 -169 155 -143 c 256
 155 -105 124 -97 105 -97 c 0
 86 -97 70 -100 56 -106 c 1
 40 -93 l 1
 106 0 l 1
 149 0 l 1
 100 -56 l 1
 103 -59 l 1
 110 -54 121 -52 137 -52 c 0
 192 -52 225 -87 225 -146 c 0
EndSplineSet
Validated: 3073
EndChar

StartChar: onesuperior
Encoding: 185 185 123
Width: 387
VWidth: 1473
Flags: W
HStem: 289 60<91 159 234 306>
VStem: 159 75<349 661>
LayerCount: 2
Fore
SplineSet
91 289 m 1
 91 349 l 1
 159 349 l 1
 159 661 l 1
 81 642 l 1
 81 692 l 1
 171 726 l 1
 234 726 l 1
 234 349 l 1
 306 349 l 1
 306 289 l 1
 91 289 l 1
EndSplineSet
Validated: 3073
EndChar

StartChar: ordmasculine
Encoding: 186 186 124
Width: 304
VWidth: 1473
Flags: W
HStem: 407 66<102.367 203.594> 660 66<102.367 203.594>
VStem: 15 70<490.003 642.794> 221 69<488.221 644.586>
LayerCount: 2
Fore
SplineSet
153 660 m 256
 112 660 85 641 85 566 c 256
 85 492 112 473 153 473 c 256
 194 473 221 490 221 566 c 256
 221 643 194 660 153 660 c 256
15 566 m 256
 15 646 43 726 153 726 c 256
 263 726 290 645 290 566 c 256
 290 488 263 407 153 407 c 256
 43 407 15 487 15 566 c 256
EndSplineSet
Validated: 3073
EndChar

StartChar: guillemotright
Encoding: 187 187 125
Width: 559
VWidth: 1473
Flags: W
LayerCount: 2
Fore
SplineSet
203 289 m 1
 93 463 l 1
 194 463 l 1
 302 289 l 1
 194 119 l 1
 93 119 l 1
 203 289 l 1
368 289 m 1
 259 463 l 1
 362 463 l 1
 467 289 l 1
 362 119 l 1
 259 119 l 1
 368 289 l 1
EndSplineSet
Validated: 3073
EndChar

StartChar: onequarter
Encoding: 188 188 126
Width: 907
VWidth: 1473
Flags: W
HStem: 0 11G<196 279.522 681 756> 96 57<557 681 756 819> 289 60<91 159 234 306>
VStem: 159 75<349 661> 681 75<0 96 153 340>
LayerCount: 2
Fore
SplineSet
620 726 m 1
 692 726 l 1
 268 -10 l 1
 196 -10 l 1
 620 726 l 1
91 289 m 1
 91 349 l 1
 159 349 l 1
 159 661 l 1
 81 642 l 1
 81 692 l 1
 171 726 l 1
 234 726 l 1
 234 349 l 1
 306 349 l 1
 306 289 l 1
 91 289 l 1
557 153 m 1
 681 153 l 1
 681 340 l 1
 678 340 l 1
 557 153 l 1
489 159 m 1
 667 430 l 1
 756 430 l 1
 756 153 l 1
 819 153 l 1
 819 96 l 1
 756 96 l 1
 756 0 l 1
 681 0 l 1
 681 96 l 1
 489 96 l 1
 489 159 l 1
EndSplineSet
Validated: 3073
LCarets2: 2 0 0 
Ligature2: "'frac' Diagonal Fractions in Latin lookup 1 subtable" one fraction four
Ligature2: "'frac' Diagonal Fractions in Latin lookup 1 subtable" one slash four
EndChar

StartChar: onehalf
Encoding: 189 189 127
Width: 903
VWidth: 1473
Flags: W
HStem: -10 21G<183 267.495> 0 60<594 813> 289 60<91 159 234 306> 379 59<617.514 725.717>
VStem: 159 75<349 661> 519 75<60 103.468 313.233 353.665> 741 74<255.715 363.709>
LayerCount: 2
Fore
SplineSet
608 726 m 1xbe
 679 726 l 1
 256 -10 l 1
 183 -10 l 1
 608 726 l 1xbe
91 289 m 1
 91 349 l 1
 159 349 l 1
 159 661 l 1
 81 642 l 1
 81 692 l 1
 171 726 l 1
 234 726 l 1
 234 349 l 1
 306 349 l 1
 306 289 l 1
 91 289 l 1
682 379 m 0
 619 379 603 347 592 306 c 1
 524 314 l 1
 540 390 593 438 679 438 c 256
 763 438 815 390 815 308 c 0
 815 168 613 145 596 77 c 0
 595 72 594 66 594 60 c 1
 813 60 l 1
 813 0 l 1
 519 0 l 1x7e
 519 49 l 2
 519 180 655 178 722 256 c 0
 729 264 741 278 741 312 c 0
 741 345 719 379 682 379 c 0
EndSplineSet
Validated: 3073
LCarets2: 2 0 0 
Ligature2: "'frac' Diagonal Fractions in Latin lookup 1 subtable" one fraction two
Ligature2: "'frac' Diagonal Fractions in Latin lookup 1 subtable" one slash two
EndChar

StartChar: threequarters
Encoding: 190 190 128
Width: 906
VWidth: 1473
Flags: W
HStem: 0 21G<211 295.467 681 756> 96 57<557 681 756 818> 284 58<117.096 252.67> 488 59<125 243.99> 667 59<119.607 249.505>
VStem: 256 74<560.063 660.638> 271 74<360.503 469.994> 681 75<0 96 153 340>
LayerCount: 2
Fore
SplineSet
557 153 m 1xf9
 681 153 l 1
 681 340 l 1
 678 340 l 1
 557 153 l 1xf9
489 159 m 1
 667 430 l 1
 756 430 l 1
 756 153 l 1
 818 153 l 1
 818 96 l 1
 756 96 l 1
 756 0 l 1
 681 0 l 1
 681 96 l 1
 489 96 l 1
 489 159 l 1
635 726 m 1
 706 726 l 1
 284 -10 l 1
 211 -10 l 1
 635 726 l 1
264 519 m 1
 327 499 345 458 345 410 c 0
 345 326 292 284 186 284 c 0
 92 284 45 336 29 361 c 1
 78 399 l 1
 123 346 164 342 189 342 c 0
 216 342 271 351 271 410 c 0xfb
 271 470 246 488 168 488 c 2
 125 488 l 1
 125 547 l 1
 161 547 l 2
 237 547 256 563 256 617 c 0
 256 655 240 667 193 667 c 0
 142 667 118 651 103 625 c 1
 52 656 l 1
 69 679 110 726 197 726 c 0
 284 726 330 703 330 620 c 0xfd
 330 555 304 535 264 519 c 1
EndSplineSet
Validated: 3073
LCarets2: 2 0 0 
Ligature2: "'frac' Diagonal Fractions in Latin lookup 1 subtable" three fraction four
Ligature2: "'frac' Diagonal Fractions in Latin lookup 1 subtable" three slash four
EndChar

StartChar: questiondown
Encoding: 191 191 129
Width: 434
VWidth: 1473
Flags: W
HStem: -239 87<176.416 319.737> 458 122<206 354>
VStem: 34 107<-115.69 22.3573> 206 148<458 580> 222 108<207.516 333>
LayerCount: 2
Fore
SplineSet
246 -152 m 0xe8
 301 -152 355 -124 383 -47 c 1
 473 -91 l 1
 442 -175 358 -239 245 -239 c 0
 127 -239 34 -173 34 -44 c 0
 34 64 106 99 193 198 c 0
 212 220 222 246 222 275 c 2
 222 333 l 1
 330 333 l 1
 330 275 l 2
 330 168 252 139 170 34 c 0
 151 9 141 -23 141 -60 c 0
 141 -93 167 -152 246 -152 c 0xe8
354 580 m 1xf0
 354 458 l 1
 206 458 l 1
 206 580 l 1
 354 580 l 1xf0
EndSplineSet
Validated: 3073
EndChar

StartChar: AE
Encoding: 198 198 136
Width: 956
VWidth: 1473
Flags: W
HStem: 0 77<608 922> 193 80<275 513> 336 76<608 882> 639 77<474 513 608 927>
VStem: 513 95<77 193 273 336 412 639>
LayerCount: 2
Fore
SplineSet
608 77 m 1
 922 77 l 1
 922 0 l 1
 513 0 l 1
 513 193 l 1
 245 193 l 1
 146 0 l 1
 29 0 l 1
 426 716 l 1
 927 716 l 1
 927 639 l 1
 608 639 l 1
 608 412 l 1
 882 412 l 1
 882 336 l 1
 608 336 l 1
 608 77 l 1
513 273 m 1
 513 641 l 1
 474 641 l 1
 275 273 l 1
 513 273 l 1
EndSplineSet
Validated: 3073
EndChar

StartChar: Ccedilla
Encoding: 199 199 137
Width: 558
VWidth: 1473
Flags: W
HStem: -233 46<206.247 346.215> -97 45<276.994 345.148> -10 79<337 433.214> 591 21G<460 496.143> 644 79<232.533 434.535>
VStem: 59 100<162.187 551.284> 352 70<-178.643 -103.853>
LayerCount: 2
Fore
SplineSet
422 -146 m 0
 422 -206 347 -233 305 -233 c 0
 264 -233 227 -224 197 -211 c 1
 212 -171 l 1
 257 -185 265 -187 278 -187 c 0
 339 -187 352 -169 352 -143 c 0
 352 -105 321 -97 302 -97 c 0
 283 -97 267 -100 253 -106 c 1
 237 -93 l 1
 297 -9 l 1
 107 3 59 125 59 357 c 0
 59 601 113 723 330 723 c 0
 380 723 467 709 529 661 c 1
 483 591 l 1
 437 630 387 644 329 644 c 0
 193 644 159 571 159 357 c 0
 159 141 193 69 329 69 c 0
 387 69 437 83 483 122 c 1
 529 52 l 1
 470 6 388 -9 337 -10 c 1
 297 -56 l 1
 300 -59 l 1
 307 -54 318 -52 334 -52 c 0
 389 -52 422 -87 422 -146 c 0
EndSplineSet
Validated: 3073
EndChar

StartChar: Eth
Encoding: 208 208 146
Width: 687
VWidth: 1473
Flags: W
HStem: 0 77<192 451.587> 327 74<-29 88 192 385> 639 77<192 446.06>
VStem: 88 104<77 327 401 639> 526 103<165.687 543.1>
LayerCount: 2
Fore
SplineSet
629 348 m 0
 629 122 569 -0 355 0 c 2
 88 0 l 1
 88 327 l 1
 -29 327 l 1
 -29 401 l 1
 88 401 l 1
 88 716 l 1
 355 716 l 2
 574 716 629 579 629 348 c 0
526 348 m 0
 526 569 490 639 355 639 c 2
 192 639 l 1
 192 401 l 1
 385 401 l 1
 385 327 l 1
 192 327 l 1
 192 77 l 1
 355 77 l 2
 492 77 526 148 526 348 c 0
EndSplineSet
Validated: 3073
EndChar

StartChar: multiply
Encoding: 215 215 153
Width: 565
VWidth: 1473
Flags: W
LayerCount: 2
Fore
SplineSet
330 311 m 1
 533 108 l 1
 479 53 l 1
 275 256 l 1
 72 53 l 1
 18 108 l 1
 221 311 l 1
 18 516 l 1
 72 570 l 1
 275 365 l 1
 479 570 l 1
 533 516 l 1
 330 311 l 1
EndSplineSet
Validated: 3073
EndChar

StartChar: Oslash
Encoding: 216 216 154
Width: 695
VWidth: 1473
Flags: W
HStem: -9 84<245.041 445.812> 639 81<248.397 445.036>
VStem: 59 106<177.546 529.442> 530 106<177.246 530.653>
LayerCount: 2
Fore
SplineSet
348 -9 m 0
 263 -9 202 11 156 50 c 1
 68 -88 l 1
 3 -88 l 1
 118 93 l 1
 90 133 59 202 59 349 c 0
 59 639 175 720 348 720 c 0
 408 720 457 710 496 689 c 1
 582 819 l 1
 656 819 l 1
 547 654 l 1
 586 615 636 539 636 349 c 0
 636 76 521 -9 348 -9 c 0
209 124 m 1
 247 86 286 75 348 75 c 0
 492 75 530 166 530 349 c 0
 530 487 515 513 494 579 c 1
 209 124 l 1
446 617 m 1
 412 635 387 639 348 639 c 0
 206 639 165 564 165 349 c 0
 165 285 169 239 177 175 c 1
 446 617 l 1
EndSplineSet
Validated: 3073
EndChar

StartChar: Thorn
Encoding: 222 222 160
Width: 685
VWidth: 1473
Flags: W
HStem: 0 21G<112 215> 190 75<215 488.86> 564 77<215 494.472>
VStem: 112 103<0 190 265 564 641 809> 526 105<297.502 534.206>
LayerCount: 2
Fore
SplineSet
631 415 m 0
 631 257 554 190 385 190 c 2
 215 190 l 1
 215 0 l 1
 112 0 l 1
 112 809 l 1
 215 809 l 1
 215 641 l 1
 385 641 l 2
 583 641 631 544 631 415 c 0
526 415 m 256
 526 529 521 564 385 564 c 2
 215 564 l 1
 215 265 l 1
 385 265 l 2
 523 265 526 307 526 415 c 256
EndSplineSet
Validated: 3073
EndChar

StartChar: germandbls
Encoding: 223 223 161
Width: 559
VWidth: 1473
Flags: W
HStem: -12 77<253.401 395.864> 0 21G<85 183> 330 68<255 339.984> 644 76<211.607 347.759>
VStem: 85 98<0 613.002> 377 97<446.486 614.839> 429 95<101.595 259.667>
LayerCount: 2
Fore
SplineSet
271 644 m 0xbc
 218 644 183 614 183 527 c 2
 183 0 l 1
 85 0 l 1
 85 523 l 2
 85 623 125 720 283 720 c 0
 394 720 474 652 474 535 c 0x7c
 474 461 440 407 373 374 c 1
 510 332 524 245 524 181 c 0
 524 67 486 -12 333 -12 c 0
 298 -12 255 1 231 15 c 1
 262 87 l 1
 289 72 314 65 337 65 c 0
 374 65 429 83 429 187 c 0xba
 429 244 392 330 255 330 c 1
 255 398 l 1
 349 401 377 428 377 538 c 0
 377 623 338 644 271 644 c 0xbc
EndSplineSet
Validated: 3073
EndChar

StartChar: ae
Encoding: 230 230 168
Width: 917
VWidth: 1473
Flags: W
HStem: -12 69<149.764 309.073 556.984 729.569> 281 70<177.088 385 480 773> 526 68<188.275 352.841 556.809 718.96>
VStem: 29 92<85.5611 238.095> 385 95<147.713 281 354 439.867>
LayerCount: 2
Fore
SplineSet
451 489 m 1
 513 583 580 594 631 594 c 0
 811 594 856 471 856 281 c 1
 480 281 l 1
 480 159 514 57 638 57 c 0
 711 57 757 76 800 168 c 1
 862 131 l 1
 820 41 759 -12 632 -12 c 0
 574 -12 504 1 443 99 c 1
 378 29 325 -12 203 -12 c 0
 105 -12 29 55 29 156 c 0
 29 314 144 354 387 354 c 1
 387 423 l 2
 387 485 358 526 268 526 c 0
 203 526 155 491 106 420 c 1
 47 463 l 1
 120 580 225 594 271 594 c 0
 332 594 416 580 451 489 c 1
215 57 m 0
 283 57 338 85 385 138 c 1
 385 284 l 1
 133 284 121 238 121 158 c 0
 121 91 152 57 215 57 c 0
773 351 m 1
 762 472 744 526 628 526 c 0
 538 526 480 436 480 351 c 1
 773 351 l 1
EndSplineSet
Validated: 3073
EndChar

StartChar: ccedilla
Encoding: 231 231 169
Width: 533
VWidth: 1473
Flags: W
HStem: -233 46<159.247 299.215> -97 45<229.994 298.148> 526 68<193.704 344.362>
VStem: 41 96<138.427 446.373> 305 70<-178.643 -103.853>
LayerCount: 2
Fore
SplineSet
375 -146 m 0
 375 -206 300 -233 258 -233 c 0
 217 -233 180 -224 150 -211 c 1
 165 -171 l 1
 210 -185 218 -187 231 -187 c 0
 292 -187 305 -169 305 -143 c 0
 305 -105 274 -97 255 -97 c 0
 236 -97 220 -100 206 -106 c 1
 190 -93 l 1
 250 -9 l 1
 94 3 41 127 41 292 c 0
 41 465 100 594 274 594 c 0
 326 594 409 582 492 474 c 1
 480 460 444 425 426 425 c 0
 424 425 422 425 420 427 c 2
 386 468 l 1
 338 524 295 526 265 526 c 0
 188 526 137 488 137 292 c 0
 137 120 176 57 265 57 c 0
 313 57 350 74 386 116 c 2
 420 156 l 2
 422 158 424 159 427 159 c 0
 447 159 489 113 492 109 c 1
 417 12 342 -7 291 -10 c 1
 250 -56 l 1
 253 -59 l 1
 260 -54 271 -52 287 -52 c 0
 342 -52 375 -87 375 -146 c 0
EndSplineSet
Validated: 3073
EndChar

StartChar: eth
Encoding: 240 240 178
Width: 530
VWidth: 1473
Flags: W
HStem: -12 69<188.972 341.028> 438 67<190.342 340.763> 700 20G<173.276 249.5 379 431.545>
VStem: 41 96<115.774 378.33> 393 96<115.774 378>
LayerCount: 2
Fore
SplineSet
393 247 m 256
 393 367 367 438 265 438 c 256
 163 438 137 367 137 247 c 256
 137 125 163 57 265 57 c 256
 367 57 393 125 393 247 c 256
265 505 m 0
 312 505 335 494 361 480 c 1
 364 483 l 1
 341 522 313 548 273 592 c 1
 159 532 l 1
 127 576 l 1
 231 631 l 1
 208 654 181 674 150 691 c 1
 225 720 l 1
 274 687 296 667 303 660 c 1
 417 720 l 1
 449 676 l 1
 345 620 l 1
 455 507 489 399 489 247 c 0
 489 123 444 -12 265 -12 c 256
 86 -12 41 123 41 247 c 256
 41 373 86 505 265 505 c 0
EndSplineSet
Validated: 3073
EndChar

StartChar: divide
Encoding: 247 247 185
Width: 565
VWidth: 1473
Flags: W
HStem: 21 128<235.186 330.451> 264 81<38 527> 460 128<234.15 331.51>
VStem: 218 130<37.9945 131.449 477.097 570.903>
CounterMasks: 1 e0
LayerCount: 2
Fore
SplineSet
38 264 m 1
 38 345 l 1
 527 345 l 1
 527 264 l 1
 38 264 l 1
218 524 m 0
 218 558 245 588 283 588 c 256
 317 588 348 561 348 524 c 0
 348 487 317 460 283 460 c 256
 245 460 218 490 218 524 c 0
218 84 m 0
 218 118 245 149 283 149 c 256
 320 149 348 118 348 84 c 0
 348 51 319 21 283 21 c 256
 246 21 218 51 218 84 c 0
EndSplineSet
Validated: 3073
EndChar

StartChar: oslash
Encoding: 248 248 186
Width: 559
VWidth: 1473
Flags: W
HStem: -12 69<201.081 371.505> 526 68<188.908 358.83>
VStem: 41 96<134.749 449.938> 423 96<129.737 451.623>
LayerCount: 2
Fore
SplineSet
371 495 m 1
 345 517 323 526 280 526 c 0
 146 526 137 453 137 292 c 0
 137 218 150 134 150 134 c 1
 371 495 l 1
183 91 m 1
 224 59 252 57 273 57 c 0
 408 57 423 111 423 292 c 0
 423 324 423 375 405 454 c 1
 183 91 l 1
280 -12 m 0
 219 -12 172 0 136 25 c 1
 63 -88 l 1
 3 -88 l 1
 99 62 l 1
 56 114 41 195 41 292 c 0
 41 476 98 594 280 594 c 0
 336 594 382 583 418 560 c 1
 499 687 l 1
 560 687 l 1
 457 526 l 1
 486 494 519 432 519 292 c 0
 519 55 423 -12 280 -12 c 0
EndSplineSet
Validated: 3073
EndChar

StartChar: thorn
Encoding: 254 254 192
Width: 623
VWidth: 1473
Flags: W
HStem: -206 21G<103 200> -12 69<281.459 424.388> 526 68<280.213 431.909>
VStem: 103 97<-206 53 121.984 460.903 529 809> 486 96<143.926 455.025>
LayerCount: 2
Fore
SplineSet
382 -12 m 0
 324 -12 247 3 200 53 c 1
 200 -206 l 1
 103 -206 l 1
 103 809 l 1
 200 809 l 1
 200 529 l 1
 202 529 l 1
 279 594 352 594 371 594 c 0
 498 594 582 534 582 289 c 0
 582 123 543 -12 382 -12 c 0
367 526 m 0
 267 526 210 450 200 435 c 1
 200 147 l 1
 229 102 298 57 364 57 c 0
 437 57 486 127 486 299 c 0
 486 434 462 526 367 526 c 0
EndSplineSet
Validated: 3073
EndChar

StartChar: dotlessi
Encoding: 305 305 194
Width: 248
VWidth: 1473
Flags: W
HStem: 0 21G<77 172> 562 20G<77 172>
VStem: 77 95<0 582>
LayerCount: 2
Fore
SplineSet
172 0 m 1
 77 0 l 1
 77 582 l 1
 172 582 l 1
 172 0 l 1
EndSplineSet
Validated: 3073
EndChar

StartChar: Lslash
Encoding: 321 321 195
Width: 559
VWidth: 1473
Flags: W
HStem: 0 75<215 547>
VStem: 112 103<75 348 477 809>
LayerCount: 2
Fore
SplineSet
215 393 m 1
 215 75 l 1
 547 75 l 1
 547 0 l 1
 112 0 l 1
 112 348 l 1
 18 309 l 1
 18 395 l 1
 112 433 l 1
 112 809 l 1
 215 809 l 1
 215 477 l 1
 407 554 l 1
 407 468 l 1
 215 393 l 1
EndSplineSet
Validated: 3073
EndChar

StartChar: lslash
Encoding: 322 322 196
Width: 278
VWidth: 1473
Flags: W
HStem: 0 21G<91 187>
VStem: 91 96<0 359 480 809>
LayerCount: 2
Fore
SplineSet
187 0 m 1
 91 0 l 1
 91 359 l 1
 1 312 l 1
 1 399 l 1
 91 445 l 1
 91 809 l 1
 187 809 l 1
 187 480 l 1
 277 526 l 1
 277 440 l 1
 187 393 l 1
 187 0 l 1
EndSplineSet
Validated: 3073
EndChar

StartChar: OE
Encoding: 338 338 197
Width: 969
VWidth: 1473
Flags: W
HStem: -9 83<248.781 518.134> 0 77<352.135 517.281 622 935> 336 76<622 896> 641 79<251.567 517.426 622 940>
VStem: 59 103<181.007 529.297> 519 103<89.2172 336 412 628.731>
LayerCount: 2
Fore
SplineSet
348 74 m 0xbc
 403 74 483 80 519 96 c 1
 519 625 l 1
 486 632 416 641 348 641 c 0
 199 641 162 549 162 349 c 0
 162 118 236 74 348 74 c 0xbc
348 720 m 0
 416 720 468 716 519 716 c 2
 940 716 l 1
 940 639 l 1
 622 639 l 1
 622 412 l 1
 896 412 l 1
 896 336 l 1
 622 336 l 1
 622 77 l 1
 935 77 l 1
 935 0 l 1
 519 0 l 2x7c
 476 0 437 -9 348 -9 c 0
 175 -9 59 79 59 349 c 0
 59 639 175 720 348 720 c 0
EndSplineSet
Validated: 3073
EndChar

StartChar: oe
Encoding: 339 339 198
Width: 932
VWidth: 1473
Flags: W
HStem: -12 77<587.725 736.841> -12 69<197.284 359.661> 281 70<519 790> 526 68<198.024 359.287 576.532 739.273>
VStem: 41 96<130.121 449.033> 421 98<151.201 281 351 446.337> 790 95<351 455.696>
LayerCount: 2
Fore
SplineSet
421 292 m 256x7e
 421 485 365 526 280 526 c 0
 194 526 137 494 137 292 c 0
 137 119 171 57 280 57 c 0
 365 57 421 97 421 292 c 256x7e
467 482 m 1
 488 533 519 594 667 594 c 0
 805 594 885 527 885 281 c 1
 519 281 l 1
 519 180 547 65 660 65 c 0
 763 65 821 173 822 174 c 1
 893 131 l 1
 825 21 761 -12 661 -12 c 0xbe
 498 -12 473 81 466 102 c 1
 441 10 367 -12 280 -12 c 0
 137 -12 41 42 41 292 c 0
 41 532 137 594 280 594 c 0
 404 594 452 534 467 482 c 1
790 351 m 1
 790 485 740 526 666 526 c 0
 538 526 527 450 519 351 c 1
 790 351 l 1
EndSplineSet
Validated: 3073
EndChar

StartChar: florin
Encoding: 402 402 204
Width: 564
VWidth: 1473
Flags: W
HStem: -200 81<31.2817 135.583> 408 66<96 242 351 480> 716 82<419.631 531.382>
VStem: 249 102<474 599.219>
LayerCount: 2
Fore
SplineSet
72 -200 m 0
 30 -200 15 -195 15 -174 c 0
 15 -162 21 -142 38 -110 c 1
 52 -115 62 -119 75 -119 c 0
 141 -119 168 -80 189 43 c 1
 242 408 l 1
 96 408 l 1
 96 474 l 1
 249 474 l 1
 259 587 297 798 457 798 c 0
 488 798 511 795 535 790 c 1
 540 782 547 759 547 739 c 0
 547 725 544 706 529 706 c 0
 527 706 500 716 468 716 c 0
 374 716 365 562 351 474 c 1
 480 474 l 1
 480 408 l 1
 343 408 l 1
 281 -13 l 2
 270 -84 239 -200 72 -200 c 0
EndSplineSet
Validated: 3073
EndChar

StartChar: circumflex
Encoding: 710 710 205
Width: 248
VWidth: 1473
Flags: W
HStem: 647 154
LayerCount: 2
Fore
SplineSet
290 647 m 1
 200 647 l 1
 125 745 l 1
 47 647 l 1
 -43 647 l 1
 87 801 l 1
 162 801 l 1
 290 647 l 1
EndSplineSet
Validated: 3073
EndChar

StartChar: caron
Encoding: 711 711 206
Width: 248
VWidth: 1473
Flags: W
HStem: 647 154
LayerCount: 2
Fore
SplineSet
-43 801 m 1
 62 801 l 1
 125 703 l 1
 186 801 l 1
 290 801 l 1
 162 647 l 1
 87 647 l 1
 -43 801 l 1
EndSplineSet
Validated: 3073
EndChar

StartChar: breve
Encoding: 728 728 207
Width: 248
VWidth: 1473
Flags: W
HStem: 653 75<58.2622 190.787>
VStem: -37 80<744.036 794> 206 80<744.036 794>
LayerCount: 2
Fore
SplineSet
43 794 m 1
 47 745 69 728 125 728 c 0
 179 728 202 746 206 794 c 1
 286 794 l 1
 277 672 193 653 125 653 c 0
 56 653 -28 672 -37 794 c 1
 43 794 l 1
EndSplineSet
Validated: 3073
EndChar

StartChar: dotaccent
Encoding: 729 729 208
Width: 248
VWidth: 1473
Flags: W
HStem: 659 106<72 175>
VStem: 72 103<659 765>
LayerCount: 2
Fore
SplineSet
175 765 m 1
 175 659 l 1
 72 659 l 1
 72 765 l 1
 175 765 l 1
EndSplineSet
Validated: 3073
EndChar

StartChar: ring
Encoding: 730 730 209
Width: 248
VWidth: 1473
Flags: W
HStem: 642 59<81.9957 167.263> 807 59<81.7614 167.347>
VStem: 13 58<711.623 796.818> 178 59<711.039 797.024>
LayerCount: 2
Fore
SplineSet
13 754 m 256
 13 819 66 866 125 866 c 0
 182 866 237 820 237 754 c 256
 237 688 182 642 125 642 c 0
 66 642 13 689 13 754 c 256
178 754 m 0
 178 786 154 807 125 807 c 256
 95 807 71 786 71 754 c 0
 71 725 94 701 125 701 c 256
 156 701 178 725 178 754 c 0
EndSplineSet
Validated: 3073
EndChar

StartChar: ogonek
Encoding: 731 731 210
Width: 248
VWidth: 1473
Flags: W
HStem: -231 70<88.0159 194.267>
VStem: 3 82<-157.405 -79.3159>
LayerCount: 2
Fore
SplineSet
267 -172 m 1
 250 -183 172 -231 108 -231 c 0
 57 -231 3 -213 3 -141 c 0
 3 -68 74 -18 168 12 c 2
 240 35 l 1
 240 -3 l 1
 169 -25 85 -76 85 -125 c 0
 85 -143 94 -161 127 -161 c 0
 146 -161 180 -149 224 -124 c 2
 250 -109 l 1
 267 -172 l 1
EndSplineSet
Validated: 3073
EndChar

StartChar: tilde
Encoding: 732 732 211
Width: 248
VWidth: 1473
Flags: W
HStem: 664 70<133.45 230.915> 715 69<18.7396 115.038>
VStem: -52 58<659 701.832> 243 56<745.558 788>
LayerCount: 2
Fore
SplineSet
57 715 m 0x70
 16 715 7 667 6 659 c 1
 -52 659 l 1
 -47 708 -12 784 47 784 c 0x70
 100 784 156 734 193 734 c 0
 233 734 241 776 243 788 c 1
 299 788 l 1
 290 720 259 664 200 664 c 0xb0
 159 664 85 715 57 715 c 0x70
EndSplineSet
Validated: 3073
EndChar

StartChar: hungarumlaut
Encoding: 733 733 212
Width: 248
VWidth: 1473
Flags: W
HStem: 647 154
LayerCount: 2
Fore
SplineSet
203 801 m 1
 63 647 l 1
 -9 647 l 1
 87 801 l 1
 203 801 l 1
368 801 m 1
 199 647 l 1
 127 647 l 1
 252 801 l 1
 368 801 l 1
EndSplineSet
Validated: 3073
EndChar

StartChar: uni0E01
Encoding: 3585 3585 214
Width: 648
VWidth: 1473
Flags: W
HStem: 0 21G<97 186 479 567> 385 61<216.371 264.587> 532 66<216.214 444.505>
VStem: 66 87<438.026 492.3> 97 89<0 352.226> 479 88<0 491.017>
LayerCount: 2
Fore
SplineSet
66 470 m 0xf4
 66 503 192 598 340 598 c 0
 469 598 567 552 567 367 c 2
 567 0 l 1
 479 0 l 1
 479 367 l 2
 479 517 449 532 340 532 c 0
 232 532 153 487 153 473 c 0xf4
 153 463 179 427 192 427 c 0
 212 427 220 446 243 446 c 0
 254 446 281 402 281 389 c 0
 281 386 280 385 278 385 c 0
 204 385 186 332 186 247 c 2
 186 0 l 1
 97 0 l 1
 97 262 l 2xec
 97 330 108 359 144 395 c 1
 126 404 66 449 66 470 c 0xf4
EndSplineSet
Validated: 3073
EndChar

StartChar: uni0E02
Encoding: 3586 3586 215
Width: 617
VWidth: 1473
Flags: W
HStem: -9 66<243.192 417.694> 367 53<124.527 188.874> 532 63<137.261 272.068>
VStem: 59 60<423.789 513.173> 122 89<88.5653 261.246> 194 52<424.797 466> 292 72<391.883 511.287> 446 90<83.9193 589>
LayerCount: 2
Fore
SplineSet
536 174 m 2xfb
 536 28 424 -9 324 -9 c 0
 220 -9 122 36 122 149 c 2
 122 206 l 2xfb
 122 288 193 313 266 386 c 0
 283 403 292 425 292 451 c 0
 292 510 262 532 205 532 c 0
 170 532 119 519 119 467 c 0
 119 450 126 420 156 420 c 0
 171 420 194 427 194 466 c 2
 194 508 l 1
 220 508 l 1
 246 466 l 1xf7
 246 405 212 367 153 367 c 256
 95 367 59 408 59 467 c 0
 59 544 132 595 211 595 c 0
 290 595 364 546 364 451 c 0
 364 322 211 297 211 209 c 2
 211 159 l 2
 211 98 237 57 326 57 c 0
 422 57 449 88 449 166 c 0
 449 216 446 228 446 290 c 2
 446 589 l 1
 536 589 l 1
 536 174 l 2xfb
EndSplineSet
Validated: 3073
EndChar

StartChar: uni0E03
Encoding: 3587 3587 216
Width: 637
VWidth: 1473
Flags: W
HStem: -9 66<254.27 438.833> 390 52<108.03 183.887> 542 52<108.396 185.897> 569 20G<467 557>
VStem: 52 50<447.159 536.997> 143 88<78.5756 274.299> 308 69<397.695 522.987> 467 90<83.9193 589>
LayerCount: 2
Fore
SplineSet
143 214 m 2xdf
 143 356 308 334 308 466 c 0
 308 498 302 511 289 524 c 1
 228 476 l 1
 182 525 172 542 143 542 c 0
 118 542 102 522 102 494 c 0
 102 464 114 442 144 442 c 0
 164 442 182 461 193 473 c 1
 208 455 l 1
 199 421 l 1
 181 400 162 390 143 390 c 0
 84 390 52 436 52 492 c 0
 54 580 117 594 143 594 c 0xef
 186 594 222 553 231 541 c 1
 290 600 l 1
 323 587 377 528 377 468 c 0
 377 301 231 326 231 214 c 2
 231 144 l 2
 231 84 251 57 346 57 c 0
 443 57 470 88 470 166 c 0
 470 216 467 228 467 290 c 2
 467 589 l 1
 557 589 l 1
 557 174 l 2
 557 28 446 -9 345 -9 c 0
 170 -9 143 77 143 134 c 2
 143 214 l 2xdf
EndSplineSet
Validated: 3073
EndChar

StartChar: uni0E04
Encoding: 3588 3588 217
Width: 655
VWidth: 1473
Flags: W
HStem: 0 21G<98 184 489 575> 202 51<303.956 382.413> 355 57<292.278 385.221> 532 66<231.976 430.281>
VStem: 74 81<246.104 455.132> 93 90<0 112.023> 392 56<261.345 348.14> 489 86<0 465.193>
LayerCount: 2
Fore
SplineSet
132 178 m 0xf7
 132 198 74 235 74 357 c 256
 74 511 186 598 324 598 c 0
 480 598 575 548 575 348 c 2
 575 0 l 1
 489 0 l 1
 489 333 l 2
 489 481 453 532 331 532 c 0
 190 532 155 449 155 357 c 0xfb
 155 316 159 274 171 245 c 1
 183 300 239 412 342 412 c 0
 380 412 445 394 448 305 c 1
 448 245 400 202 345 202 c 0
 317 202 293 212 274 231 c 1
 268 277 l 1
 283 295 l 1
 311 268 l 2
 320 258 330 253 343 253 c 0
 372 253 392 277 392 306 c 0
 392 335 375 355 342 355 c 0
 255 355 185 171 183 0 c 1
 103 0 l 2
 93 0 93 5 93 21 c 0
 93 83 132 148 132 178 c 0xf7
EndSplineSet
Validated: 3073
EndChar

StartChar: uni0E05
Encoding: 3589 3589 218
Width: 655
VWidth: 1473
Flags: W
HStem: 0 21G<98 184 489 575> 202 51<303.956 382.413> 355 57<292.278 385.221> 578 20G<170 266.645 391.231 456.5>
VStem: 74 81<246.104 473.678> 93 90<0 112.023> 392 56<261.345 348.14> 489 86<0 493.57>
LayerCount: 2
Fore
SplineSet
132 178 m 0xf7
 132 198 74 235 74 357 c 0
 74 450 104 550 236 598 c 1
 331 536 l 1
 418 601 l 1
 495 588 575 550 575 348 c 2
 575 0 l 1
 489 0 l 1
 489 365 l 2
 489 480 483 513 415 532 c 1
 331 470 l 1
 242 530 l 1
 200 516 155 492 155 357 c 0xfb
 155 316 159 274 171 245 c 1
 183 300 239 412 342 412 c 0
 380 412 445 394 448 305 c 1
 448 245 400 202 345 202 c 0
 317 202 293 212 274 231 c 1
 268 277 l 1
 283 295 l 1
 311 268 l 2
 320 258 330 253 343 253 c 0
 372 253 392 277 392 306 c 0
 392 335 375 355 342 355 c 0
 255 355 185 171 183 0 c 1
 103 0 l 2
 93 0 93 5 93 21 c 0
 93 83 132 148 132 178 c 0xf7
EndSplineSet
Validated: 3073
EndChar

StartChar: uni0E06
Encoding: 3590 3590 219
Width: 721
VWidth: 1473
Flags: W
HStem: -3 53<169.538 226.994> 376 51<107.955 186.456> 535 59<111.626 194.395> 580 20G<294.915 339>
VStem: 52 50<431.847 527.954> 106 53<59.1116 177.434> 230 81<51.7581 202> 324 83<398.844 521.709> 542 97<0 62.4071> 544 88<119 589>
LayerCount: 2
Fore
SplineSet
320 600 m 1xdf80
 358 584 407 521 407 468 c 0
 407 374 316 344 308 262 c 1
 420 256 499 194 548 119 c 1
 546 163 544 219 544 268 c 2
 544 589 l 1
 632 589 l 1
 632 228 l 2xdf40
 632 145 637 42 639 21 c 1
 642 6 641 0 629 0 c 2
 542 0 l 1
 507 148 410 198 308 205 c 1
 311 146 l 1
 311 65 289 -3 200 -3 c 0
 162 -3 106 14 106 116 c 0
 106 232 202 256 228 261 c 1
 228 367 324 369 324 466 c 0
 324 500 314 502 302 523 c 1
 243 468 l 1
 198 513 175 535 143 535 c 0
 118 535 102 506 102 479 c 0
 102 456 110 427 144 427 c 0
 158 427 169 431 178 440 c 2
 205 468 l 1
 220 451 l 1
 212 408 l 1
 191 387 168 376 143 376 c 0
 83 376 52 423 52 477 c 0
 53 554 103 594 143 594 c 0xef80
 184 594 224 560 246 541 c 1
 320 600 l 1xdf80
200 50 m 0
 228 50 230 72 230 111 c 2
 230 141 l 2
 230 168 228 165 228 202 c 1
 200 191 159 185 159 119 c 0
 159 68 184 50 200 50 c 0
EndSplineSet
Validated: 3073
EndChar

StartChar: uni0E07
Encoding: 3591 3591 220
Width: 565
VWidth: 1473
Flags: W
HStem: -3 58<268.732 405.036> 402 52<294.505 333> 545 53<293.61 383.233>
VStem: 234 53<460.986 537.868> 362 86<56.2136 272.906> 396 89<221.719 530.106>
LayerCount: 2
Fore
SplineSet
448 19 m 2xf8
 448 4 390 -3 329 -3 c 0
 264 -3 196 6 193 21 c 0
 167 172 151 245 47 361 c 1
 47 362 46 362 46 363 c 0
 46 373 77 399 125 423 c 1
 175 373 232 257 270 65 c 1
 270 57 299 55 316 55 c 0
 336 55 362 57 362 66 c 0xf8
 362 97 364 130 368 162 c 2
 391 344 l 2
 394 371 396 395 396 414 c 2
 396 466 l 2
 396 535 366 545 336 545 c 0
 309 545 287 527 287 499 c 0
 287 476 303 454 333 454 c 2
 377 454 l 1
 377 429 l 1
 333 402 l 1
 273 402 234 441 234 499 c 0
 234 560 294 598 351 598 c 0
 458 598 485 501 485 424 c 0xf4
 485 409 484 389 481 365 c 2
 472 291 l 2
 456 155 460 223 452 120 c 2
 450 80 l 2
 448 67 448 55 448 44 c 2
 448 19 l 2xf8
EndSplineSet
Validated: 3073
EndChar

StartChar: uni0E08
Encoding: 3592 3592 221
Width: 630
VWidth: 1473
Flags: W
HStem: -3 58<335.066 439.878> 187 52<151.505 190> 330 53<151.197 229.454> 526 71<214.069 401.663>
VStem: 91 53<245.902 322.492> 253 81<21 292.007> 440 79<56.8623 307.156> 461 89<210.242 467.445>
LayerCount: 2
Fore
SplineSet
440 65 m 0xfe
 440 69 439 74 439 110 c 0
 439 238 461 334 461 393 c 0
 461 508 360 526 315 526 c 0
 266 526 193 518 116 426 c 0
 115 424 112 423 108 423 c 0
 89 423 46 447 29 479 c 1
 62 520 182 597 306 597 c 0
 429 597 550 545 550 408 c 0xfd
 550 393 549 374 546 352 c 2
 538 282 l 1
 525 182 519 161 519 80 c 0
 519 43 520 37 520 19 c 0
 520 1 445 -3 392 -3 c 0
 311 -3 253 7 253 21 c 0
 255 66 256 106 256 141 c 0
 256 266 241 330 193 330 c 0
 164 330 144 310 144 284 c 0
 144 266 157 239 190 239 c 2
 234 239 l 1
 234 214 l 1
 190 187 l 1
 130 187 91 226 91 284 c 256
 91 343 133 383 193 383 c 0
 272 383 335 336 335 116 c 0
 335 100 335 83 334 65 c 0
 334 57 366 55 386 55 c 256
 404 55 440 57 440 65 c 0xfe
EndSplineSet
Validated: 3073
EndChar

StartChar: uni0E09
Encoding: 3593 3593 222
Width: 692
VWidth: 1473
Flags: W
HStem: -6 53<477.383 557.764> 161 50<135.474 171> 187 62<375.817 462.438> 320 51<137.028 214.167> 526 71<252.619 465.755>
VStem: 74 53<219.293 309.962> 207 83<0 95.1792> 227 74<134.375 310.098> 417 51<54.5425 150.623> 523 88<240.828 470.791> 567 81<55.0517 156.48>
LayerCount: 2
Fore
SplineSet
519 240 m 1xbd80
 523 248 523 263 523 287 c 2
 523 408 l 2
 523 455 494 526 367 526 c 0
 271 526 192 485 147 432 c 0
 146 430 144 430 141 430 c 0
 124 430 84 470 68 494 c 1
 123 539 229 597 367 597 c 0
 485 597 611 559 611 408 c 2
 611 287 l 2xbdc0
 611 271 605 241 588 224 c 1
 624 204 648 159 648 105 c 0
 648 9 567 -6 530 -6 c 256
 487 -6 417 15 417 97 c 0
 417 125 423 152 463 186 c 1
 459 187 454 187 448 187 c 0
 358 187 290 108 290 0 c 1
 218 0 l 2
 210 0 207 3 207 11 c 0xbea0
 207 30 227 81 227 194 c 2
 227 245 l 2
 227 283 213 320 180 320 c 0
 138 320 127 284 127 265 c 256
 127 246 137 211 175 211 c 2
 212 211 l 1
 212 184 l 1
 171 161 l 1xdd80
 112 161 74 207 74 265 c 256
 74 326 123 371 180 371 c 0
 247 371 301 329 301 249 c 2
 301 236 l 1
 298 194 l 2
 298 182 295 169 292 158 c 2
 286 134 l 1
 322 215 402 249 460 249 c 0
 482 249 505 245 519 240 c 1xbd80
468 105 m 0
 468 81 478 47 516 47 c 0
 550 47 567 67 567 108 c 0x9ca0
 567 148 533 169 517 174 c 1
 499 162 468 136 468 105 c 0
EndSplineSet
Validated: 3073
EndChar

StartChar: uni0E0A
Encoding: 3594 3594 223
Width: 629
VWidth: 1473
Flags: W
HStem: -9 66<244.047 432.379> 371 55<106.59 176.978> 421 53<368.098 413.224> 539 56<118.84 254.996>
VStem: 44 58<429.61 522.182> 125 89<85.5674 278.047> 181 52<430.512 470> 275 64<389.568 519.818> 460 88<84.5965 413.477> 498 84<571.726 604.869>
LayerCount: 2
Fore
SplineSet
339 461 m 0xdb
 339 342 214 307 214 221 c 2
 214 152 l 2
 214 95 236 57 331 57 c 0
 439 57 460 88 460 159 c 2
 460 351 l 258xdd80
 460 382 455 403 444 414 c 0
 434 424 424 429 415 429 c 0
 399 429 407 421 389 421 c 0
 379 421 356 458 356 470 c 0
 356 472 357 474 358 474 c 0
 427 490 451 521 482 582 c 0
 489 596 494 610 498 625 c 1
 510 623 521 620 532 616 c 2
 558 606 l 1
 576 598 582 589 582 585 c 0xb940
 582 581 538 505 480 466 c 1
 517 441 548 414 548 354 c 2
 548 166 l 2
 548 96 519 -9 330 -9 c 0
 228 -9 125 29 125 141 c 2
 125 206 l 2xbd80
 125 291 182 311 252 388 c 1
 267 406 275 429 275 458 c 256
 275 517 245 539 187 539 c 0
 123 539 102 512 102 471 c 0
 102 451 110 426 141 426 c 0
 160 426 181 435 181 470 c 2
 181 513 l 1
 206 513 l 1
 233 470 l 1
 233 428 215 371 141 371 c 256
 80 371 44 416 44 471 c 0
 44 539 98 595 193 595 c 0
 302 595 339 531 339 461 c 0xdb
EndSplineSet
Validated: 3073
EndChar

StartChar: uni0E0B
Encoding: 3595 3595 224
Width: 637
VWidth: 1473
Flags: W
HStem: -9 66<253.285 441.152> 389 51<101.142 176.523> 421 53<377.098 422.224> 539 55<99.6868 173.961>
VStem: 44 50<445.728 534.211> 134 88<85.5674 285.054> 278 62<398.364 518.684> 468 89<83.4683 413.477> 507 84<571.726 604.49>
LayerCount: 2
Fore
SplineSet
44 490 m 0xdf
 44 556 90 594 136 594 c 0
 179 594 209 555 221 536 c 1
 295 600 l 1
 313 585 340 556 340 468 c 0
 340 333 222 316 222 224 c 2
 222 152 l 2
 222 101 239 57 340 57 c 0
 448 57 468 88 468 159 c 2
 468 351 l 258xdf
 468 382 463 403 453 414 c 0
 443 424 433 429 424 429 c 0
 409 429 413 421 398 421 c 0
 388 421 365 458 365 470 c 0
 365 472 365 474 367 474 c 0
 436 490 460 521 491 582 c 0
 498 596 503 610 507 625 c 1
 518 623 530 620 541 616 c 2
 566 606 l 2
 585 598 591 589 591 585 c 0xbe80
 591 581 547 505 489 466 c 1
 526 441 557 414 557 354 c 2
 557 166 l 2
 557 96 528 -9 339 -9 c 0
 236 -9 134 29 134 141 c 2
 134 214 l 2
 134 309 190 325 256 398 c 1
 270 415 278 437 278 466 c 0
 278 492 277 512 271 520 c 1
 218 476 l 1
 171 523 151 539 136 539 c 0
 102 539 94 511 94 492 c 0
 94 469 103 440 137 440 c 0
 157 440 181 466 186 471 c 1
 200 454 l 1
 192 420 l 1
 174 399 155 389 136 389 c 0
 73 389 44 440 44 490 c 0xdf
EndSplineSet
Validated: 3073
EndChar

StartChar: uni0E0C
Encoding: 3596 3596 225
Width: 978
VWidth: 1473
Flags: W
HStem: -9 52<198.173 276.964> -3 53<443.538 500.994> 150 52<239 277.828> 205 57<583 668.344> 385 61<212.172 272.437> 532 66<206.134 442.315> 569 20G<800 888>
VStem: 66 87<443.383 494.328> 97 89<52.4174 358.093> 286 53<52.0092 143.21> 380 53<59.1116 178.901> 494 88<260.2 475.369> 504 81<51.7581 200.556 259.935 455.641> 798 98<0 66.5148> 800 88<119 589>
LayerCount: 2
Fore
SplineSet
474 50 m 0x7868
 502 50 504 72 504 111 c 2
 504 141 l 2
 504 153 501 171 499 202 c 1
 444 184 433 162 433 119 c 0
 433 68 458 50 474 50 c 0x7868
286 385 m 0
 214 385 186 359 186 262 c 2
 186 113 l 2
 186 75 201 43 234 43 c 0
 276 43 286 78 286 97 c 256
 286 116 277 150 239 150 c 2
 197 150 l 1
 197 174 l 1
 239 202 l 1
 294 202 339 157 339 97 c 256
 339 36 291 -9 234 -9 c 0
 175 -9 97 32 97 133 c 2
 97 262 l 2xbce0
 97 330 108 359 144 395 c 1
 126 404 66 449 66 470 c 0
 66 504 180 598 326 598 c 0xbd60
 454 598 582 552 582 367 c 2
 582 262 l 1
 632 259 676 247 715 226 c 0
 754 205 783 169 804 119 c 1
 802 163 800 219 800 268 c 2
 800 589 l 1
 888 589 l 1
 888 228 l 2x3b72
 888 145 892 41 896 21 c 0
 899 6 897 0 885 0 c 2
 798 0 l 1
 770 118 715 194 583 205 c 1
 585 146 l 1x3a6c
 585 65 563 -3 474 -3 c 0
 436 -3 380 14 380 116 c 0
 380 230 474 254 498 259 c 1
 498 270 496 293 496 315 c 1
 494 346 l 1
 494 367 l 2
 494 516 435 532 326 532 c 0
 228 532 153 490 153 473 c 0x7d70
 153 462 188 427 199 427 c 0
 219 427 227 446 250 446 c 0
 262 446 289 403 289 389 c 0
 289 387 288 385 286 385 c 0
EndSplineSet
Validated: 3073
EndChar

StartChar: uni0E0D
Encoding: 3597 3597 226
Width: 976
VWidth: 1473
Flags: W
HStem: -277 59<562.479 753.273> -109 49<547.167 607.425> -9 66<596.438 767.857> -9 52<198.173 276.964> 150 52<239 277.828> 385 61<212.172 272.437> 532 66<201.623 423.888> 569 20G<807 896>
VStem: 66 87<443.383 496.599> 97 89<52.4174 358.093> 286 53<52.0092 143.21> 471 89<94.2933 483.367> 488 56<-198.312 -111.439> 610 47<-146 -110.141> 796 86<-172.842 -71> 807 89<93.4295 589>
LayerCount: 2
Fore
SplineSet
286 97 m 256xde64
 286 116 277 150 239 150 c 2
 197 150 l 1
 197 174 l 1
 239 202 l 1
 294 202 339 157 339 97 c 256
 339 36 291 -9 234 -9 c 0
 175 -9 97 32 97 133 c 2
 97 262 l 2xde64
 97 330 108 359 144 395 c 1
 126 404 66 449 66 470 c 0
 66 502 161 598 311 598 c 0xdea4
 510 598 560 487 560 367 c 2
 560 336 l 1
 558 286 l 2
 556 225 555 208 555 185 c 0
 555 138 556 57 682 57 c 256
 743 57 791 80 806 126 c 0
 808 135 810 150 810 169 c 0
 810 214 807 260 807 320 c 2
 807 589 l 1
 896 589 l 1xedb5
 896 194 l 2
 896 91 880 71 863 52 c 0
 842 27 796 -9 682 -9 c 0
 643 -9 494 -7 476 110 c 0
 473 135 471 163 471 194 c 2
 471 367 l 2
 471 513 426 532 311 532 c 0
 217 532 153 491 153 473 c 0xeeb5
 153 462 188 427 199 427 c 0
 219 427 227 446 250 446 c 0
 262 446 289 403 289 389 c 0
 289 387 288 385 286 385 c 0
 214 385 186 359 186 262 c 2
 186 113 l 2
 186 75 201 43 234 43 c 0
 276 43 286 78 286 97 c 256xde64
657 -218 m 0
 753 -218 796 -191 796 -71 c 1
 882 -71 l 1
 882 -164 838 -277 661 -277 c 0
 512 -277 488 -192 488 -149 c 0
 488 -78 552 -60 579 -60 c 0
 612 -60 657 -77 657 -146 c 1
 633 -189 l 1
 610 -189 l 1
 610 -146 l 2
 610 -113 590 -109 579 -109 c 0
 556 -109 544 -122 544 -149 c 0xcc2e
 544 -193 567 -218 657 -218 c 0
EndSplineSet
Validated: 3073
Substitution2: "Single Substitution lookup 27 subtable" uni0E0D.alt1
Substitution2: "Single Substitution lookup 27 subtable" uni0E0D.alt1
EndChar

StartChar: uni0E0E
Encoding: 3598 3598 227
Width: 713
VWidth: 1473
Flags: W
HStem: -268 60<248.309 344.59> -128 59<251.711 381.189> -9 52<105.918 187.374> 152 48<104.444 138> 379 61<275.685 334.75> 532 66<263.303 494.181>
VStem: 44 53<51.9251 146.258> 131 87<439.332 496.377> 178 87<110.826 369.213> 183 63<-204.928 -134.84> 200 74<53.884 239.912> 415 62<-89.5139 -46.25> 544 88<-183 476.858>
LayerCount: 2
Fore
SplineSet
265 283 m 0xfe98
 265 232 274 175 274 108 c 0
 274 32 224 -9 156 -9 c 256
 85 -9 44 41 44 97 c 256
 44 157 83 200 138 200 c 1
 172 175 l 1
 172 152 l 1
 138 152 l 2
 105 152 97 120 97 97 c 256
 97 78 107 43 149 43 c 0
 169 43 200 56 200 110 c 0xfe38
 200 121 199 135 196 150 c 1
 190 200 l 1
 182 257 178 266 178 295 c 0xfe98
 178 347 183 368 209 395 c 1
 191 404 131 449 131 470 c 0xff18
 131 502 226 598 376 598 c 0
 533 598 632 529 632 367 c 2
 632 -265 l 1
 532 -265 l 1
 486 -192 439 -168 435 -166 c 1
 424 -190 377 -268 289 -268 c 0
 238 -268 183 -248 183 -169 c 0xfe58
 183 -102 226 -69 305 -69 c 0
 343 -69 374 -79 401 -90 c 1
 405 -80 415 -46 415 -35 c 1
 458 -47 l 2
 477 -53 477 -59 477 -62 c 0
 477 -71 477 -69 467 -92 c 2
 457 -116 l 1
 513 -150 532 -166 545 -183 c 1
 545 -134 l 2
 545 -84 544 -34 544 117 c 2
 544 367 l 2
 544 513 490 532 376 532 c 0
 279 532 218 490 218 473 c 0xff18
 218 455 257 421 264 421 c 0
 284 421 292 440 315 440 c 0
 325 440 347 400 347 385 c 0
 347 381 346 379 343 379 c 0
 274 379 265 365 265 283 c 0xfe98
311 -128 m 0
 273 -128 246 -136 246 -172 c 0xfe58
 246 -196 260 -208 287 -208 c 0
 319 -208 347 -196 382 -143 c 1
 362 -136 339 -128 311 -128 c 0
EndSplineSet
Validated: 3073
Substitution2: "Single Substitution lookup 27 subtable" uni0E0E.alt1
Substitution2: "Single Substitution lookup 27 subtable" uni0E0E.alt1
EndChar

StartChar: uni0E0F
Encoding: 3599 3599 228
Width: 713
VWidth: 1473
Flags: W
HStem: -274 60<209.096 292.53> -131 60<208.594 290.046> -9 52<105.918 187.374> 152 48<104.444 138> 379 61<275.685 334.75> 532 66<263.303 494.181>
VStem: 44 53<51.9251 146.258> 131 87<439.332 496.377> 144 61<-209.279 -135.799> 178 87<110.826 369.213> 200 74<53.884 239.912> 343 64<-115.143 -59.5333> 544 88<-197 476.858>
LayerCount: 2
Fore
SplineSet
309 -172 m 1xfe98
 285 -147 271 -131 246 -131 c 0
 221 -131 205 -145 205 -172 c 256
 205 -200 221 -214 247 -214 c 0
 269 -214 290 -200 309 -172 c 1xfe98
265 283 m 0xfe58
 265 232 274 175 274 108 c 0
 274 32 224 -9 156 -9 c 256
 85 -9 44 41 44 97 c 256
 44 157 83 200 138 200 c 1
 172 175 l 1
 172 152 l 1
 138 152 l 2
 105 152 97 120 97 97 c 256
 97 78 107 43 149 43 c 0
 169 43 200 56 200 110 c 0xfe38
 200 121 199 135 196 150 c 1
 190 200 l 1
 182 257 178 266 178 295 c 0xfe58
 178 347 183 368 209 395 c 1
 191 404 131 449 131 470 c 0xff18
 131 502 226 598 376 598 c 0
 533 598 632 529 632 367 c 2
 631 -280 l 1
 538 -280 l 1
 466 -228 l 1
 396 -277 l 1
 343 -221 l 1
 300 -268 268 -274 243 -274 c 0
 210 -274 144 -257 144 -174 c 0xfe98
 144 -92 198 -71 243 -71 c 0
 265 -71 292 -77 331 -116 c 1
 339 -98 343 -62 343 -49 c 1
 371 -49 407 -56 407 -68 c 0
 407 -86 394 -117 389 -133 c 1
 377 -164 l 1
 402 -194 l 1
 464 -153 l 1
 545 -197 l 1
 545 -146 l 2
 545 -68 544 -42 544 115 c 2
 544 367 l 2
 544 513 490 532 376 532 c 0
 279 532 218 490 218 473 c 0xff18
 218 455 257 421 264 421 c 0
 284 421 292 440 315 440 c 0
 325 440 347 400 347 385 c 0
 347 381 346 379 343 379 c 0
 274 379 265 365 265 283 c 0xfe58
EndSplineSet
Validated: 3073
Substitution2: "Single Substitution lookup 27 subtable" uni0E0F.alt1
Substitution2: "Single Substitution lookup 27 subtable" uni0E0F.alt1
EndChar

StartChar: uni0E10
Encoding: 3600 3600 229
Width: 602
VWidth: 1473
Flags: W
HStem: -290 56<129.45 220.548> -159 57<129.465 214.924> -85 41<410.016 469.387> -3 58<349.159 423.305> 112 52<181.093 220> 255 53<181.049 267.788> 362 68<122.5 338.035> 374 77<185.157 417.228> 505 74<216.503 512.308> 523 66<169.989 366.436>
VStem: 70 56<-230.127 -163.95> 78 83<431.653 514.266> 121 53<170.863 247.162> 258 59<-149.577 -102> 283 66<21 240.25> 368 40<-151.932 -86.5426> 440 65<-231 -171.924> 449 89<142.621 344.94> 474 56<-189.723 -87.3928>
LayerCount: 2
Fore
SplineSet
126 -197 m 256xfc21
 126 -228 154 -234 169 -234 c 256
 211 -234 224 -209 231 -196 c 1
 208 -171 187 -159 168 -159 c 0
 154 -159 126 -167 126 -197 c 256xfc21
222 308 m 0
 343 308 351 222 351 128 c 0
 351 108 350 87 349 65 c 0
 349 57 372 55 385 55 c 0
 401 55 423 57 423 66 c 0
 435 202 449 202 449 292 c 0
 449 341 421 374 306 374 c 0xfd0b40
 239 374 198 362 152 362 c 0
 93 362 78 418 78 466 c 0
 78 564 146 589 199 589 c 0xfe5340
 240 589 296 579 361 579 c 0
 419 579 469 590 522 603 c 1
 525 582 536 561 536 533 c 0
 536 527 532 522 523 519 c 0
 496 510 421 505 377 505 c 0xfc9340
 333 505 253 523 231 523 c 0
 181 523 161 511 161 463 c 0
 161 436 171 430 205 430 c 256xfe5340
 261 430 295 451 377 451 c 0
 474 451 538 380 538 301 c 0
 538 245 509 132 501 19 c 1
 501 4 451 -3 399 -3 c 0
 342 -3 283 5 283 21 c 0
 285 64 287 101 287 133 c 0
 287 215 274 255 222 255 c 0
 194 255 174 234 174 209 c 0
 174 194 183 164 220 164 c 2
 264 164 l 1
 264 138 l 1
 220 112 l 1
 159 112 121 151 121 209 c 256xfd0b40
 121 267 162 308 222 308 c 0
166 -102 m 0
 183 -102 212 -107 252 -150 c 1
 256 -141 258 -131 258 -120 c 2
 258 -91 l 1
 273 -91 317 -97 317 -110 c 0
 317 -113 314 -134 312 -140 c 2
 290 -203 l 1
 311 -224 l 1
 367 -193 l 1
 440 -231 l 1xfc2580
 440 -194 474 -169 474 -128 c 256xfc0120
 474 -112 467 -85 440 -85 c 0xfc0180
 419 -85 408 -96 408 -119 c 0
 408 -131 412 -139 424 -149 c 2
 443 -164 l 1
 432 -180 l 1
 398 -174 l 1
 383 -161 368 -143 368 -122 c 0
 368 -71 401 -44 443 -44 c 0
 513 -44 530 -101 530 -127 c 0xfc0120
 530 -174 505 -211 505 -289 c 1
 424 -289 l 1
 368 -255 l 1
 305 -292 l 1
 256 -242 l 1
 236 -268 211 -290 166 -290 c 0
 139 -290 70 -278 70 -197 c 0xfc2180
 70 -118 129 -102 166 -102 c 0
EndSplineSet
Validated: 3073
Substitution2: "Single Substitution lookup 27 subtable" uni0E10.alt1
Substitution2: "Single Substitution lookup 27 subtable" uni0E10.alt1
EndChar

StartChar: uni0E11
Encoding: 3601 3601 230
Width: 715
VWidth: 1473
Flags: W
HStem: 0 21G<161.5 245.4 547 635> 393 49<100.058 178.331> 504 90<470.252 542.582> 542 52<97.9594 176.169>
VStem: 44 47<450.087 534.187> 155 90<0 50 175 245.62> 162 83<14.0586 50 175 345.745> 267 59<443.72 522.44> 547 88<0 501.404>
LayerCount: 2
Fore
SplineSet
140 442 m 0xdb80
 156 442 172 457 186 471 c 1
 200 454 l 1
 192 423 l 1
 175 403 156 393 136 393 c 0
 81 393 44 440 44 492 c 0
 44 577 109 594 133 594 c 0
 180 594 204 555 212 542 c 1
 273 600 l 1
 324 561 326 512 326 494 c 0
 326 401 245 402 245 256 c 1xdb80
 240 175 l 1
 293 317 412 594 526 594 c 1
 611 591 635 556 635 467 c 2
 635 0 l 1
 547 0 l 1
 547 454 l 2
 547 486 541 504 513 504 c 0
 420 504 302 197 280 140 c 2
 246 50 l 1
 245 0 l 1
 165 0 l 2
 158 0 155 0 155 13 c 0xed80
 155 35 162 94 162 253 c 0
 162 278 162 327 214 398 c 1
 250 450 l 1
 262 465 267 482 267 499 c 0
 267 513 263 523 261 523 c 1
 208 479 l 1
 166 538 157 542 138 542 c 0
 110 542 91 522 91 494 c 0
 91 467 109 442 140 442 c 0xdb80
EndSplineSet
Validated: 3077
EndChar

StartChar: uni0E12
Encoding: 3602 3602 231
Width: 985
VWidth: 1473
Flags: W
HStem: -3 53<451.277 508.688> 205 62<591 676.203> 376 51<278.007 360.216> 578 11G<193 255.839 401 463.5 807 896>
VStem: 74 73<228.51 484.541> 161 36<0 130> 217 51<282.56 365.776> 370 51<271.99 367.343> 387 53<59.7189 178.004> 499 90<307 492.709> 512 80<51.7581 202> 806 97<0.00440598 65.6422> 807 89<121 589>
LayerCount: 2
Fore
SplineSet
161 130 m 0xff40
 161 153 74 157 74 357 c 0
 74 536 165 578 221 598 c 1
 329 536 l 1
 433 601 l 1
 494 591 535 564 556 522 c 0
 578 478 589 421 589 348 c 2
 589 267 l 1
 639 264 684 251 722 229 c 0
 762 207 791 171 812 121 c 1
 809 150 807 268 807 268 c 1
 807 589 l 1
 896 589 l 1
 896 228 l 2xff48
 896 145 901 42 903 21 c 1
 906 6 905 0 893 0 c 2
 806 0 l 1
 777 116 723 193 591 205 c 1
 592 146 l 1
 592 65 570 -3 482 -3 c 0
 444 -3 387 14 387 116 c 0xfeb0
 387 234 483 260 505 264 c 1
 504 277 504 291 502 307 c 1
 499 365 l 1
 498 482 476 515 430 532 c 1
 329 470 l 1
 227 530 l 1
 178 514 147 486 147 357 c 0
 147 215 190 203 214 166 c 1
 222 178 246 198 271 215 c 2
 333 258 l 2
 351 271 370 291 370 321 c 0
 370 354 350 376 321 376 c 0
 290 376 268 352 268 323 c 0
 268 310 273 299 283 290 c 1
 309 262 l 1
 292 247 l 1
 246 253 l 1
 227 273 217 297 217 324 c 0
 217 384 264 427 320 427 c 0
 382 427 421 377 421 329 c 0
 421 268 397 233 361 206 c 2
 300 162 l 2
 227 109 197 65 197 0 c 1
 125 0 l 2
 113 0 112 6 115 21 c 0
 126 84 161 113 161 130 c 0xff40
482 50 m 0
 508 50 512 75 512 101 c 0
 512 115 511 130 511 141 c 0
 511 165 509 153 507 202 c 1
 451 184 440 161 440 119 c 0xfea0
 440 62 472 50 482 50 c 0
EndSplineSet
Validated: 3073
EndChar

StartChar: uni0E13
Encoding: 3603 3603 232
Width: 970
VWidth: 1473
Flags: W
HStem: -9 52<197.895 276.058> -3 53<751.616 839.679> 152 51<239 275.573> 202 62<641.231 744.608> 385 61<212.172 272.437> 532 66<201.623 420.781> 569 20G<801 890>
VStem: 66 87<443.383 496.599> 97 89<52.5398 358.093> 286 53<52.3801 144.246> 466 86<0 100.498 164 481.28> 691 51<59.1268 162.815> 801 89<250.425 589> 850 84<60.9991 160.01>
LayerCount: 2
Fore
SplineSet
794 50 m 0x4874
 820 50 850 62 850 112 c 0
 850 145 829 169 788 184 c 1
 749 159 742 126 742 112 c 0
 742 71 759 50 794 50 c 0x4874
550 164 m 1
 607 256 695 264 731 264 c 0
 751 264 760 264 797 250 c 1
 800 259 801 272 801 287 c 2
 801 589 l 1
 890 589 l 1
 890 273 l 2x1b78
 890 255 882 237 866 220 c 1
 887 208 934 176 934 109 c 0
 934 19 853 -3 809 -3 c 0
 770 -3 691 19 691 105 c 0
 691 134 700 160 745 199 c 1
 738 201 727 202 712 202 c 0
 619 202 551 102 551 0 c 1
 471 0 l 2
 463 0 461 1 461 12 c 0
 461 28 466 66 466 156 c 0
 466 240 464 283 464 367 c 0
 464 517 419 532 311 532 c 0
 217 532 153 491 153 473 c 0x5d74
 153 462 188 427 199 427 c 0
 219 427 227 446 250 446 c 0
 262 446 289 403 289 389 c 0
 289 387 288 385 286 385 c 0
 214 385 186 359 186 262 c 2
 186 118 l 2
 186 79 199 43 233 43 c 0
 267 43 286 68 286 97 c 256
 286 115 277 152 239 152 c 2
 197 152 l 1
 197 175 l 1
 239 203 l 1
 294 203 339 158 339 97 c 256
 339 36 290 -9 233 -9 c 0
 181 -9 97 16 97 118 c 2
 97 262 l 2xacf0
 97 330 108 359 144 395 c 1
 126 404 66 449 66 470 c 0
 66 502 161 598 311 598 c 0xad70
 469 598 552 527 552 367 c 2
 552 261 l 1
 550 164 l 1
EndSplineSet
Validated: 3073
EndChar

StartChar: uni0E14
Encoding: 3604 3604 233
Width: 655
VWidth: 1473
Flags: W
HStem: 0 21G<119 197 486 575> 376 56<285.552 367.542> 532 66<222.543 441.224>
VStem: 74 73<228.51 454.915> 161 36<0 130> 224 51<283.329 365.534> 377 59<273.057 367.132> 486 89<0 481.217>
LayerCount: 2
Fore
SplineSet
161 130 m 0
 161 153 74 157 74 357 c 0
 74 511 186 598 324 598 c 0
 480 598 575 548 575 348 c 2
 575 0 l 1
 486 0 l 1
 486 333 l 2
 486 495 476 532 324 532 c 0
 182 532 147 448 147 357 c 0
 147 215 190 203 214 166 c 1
 222 179 249 198 275 216 c 0
 335 258 377 273 377 321 c 0
 377 360 351 376 329 376 c 0
 297 376 275 352 275 323 c 0
 275 310 280 299 290 290 c 2
 317 262 l 1
 299 247 l 1
 253 253 l 1
 234 273 224 297 224 324 c 0
 224 381 268 432 327 432 c 1
 407 429 436 371 436 329 c 256
 436 298 430 251 368 206 c 2
 306 162 l 1
 229 110 197 65 197 0 c 1
 125 0 l 2
 113 0 112 6 115 21 c 0
 126 84 161 113 161 130 c 0
EndSplineSet
Validated: 3073
EndChar

StartChar: uni0E15
Encoding: 3605 3605 234
Width: 670
VWidth: 1473
Flags: W
HStem: 0 21G<119 205 501 589> 376 54<285.341 367.542> 578 20G<193 256.484 401.615 471.5>
VStem: 74 81<229.004 482.419> 161 44<113 153> 224 51<283.329 366.123> 377 59<271.701 367.024> 501 88<0 493.57>
LayerCount: 2
Fore
SplineSet
161 130 m 0
 161 153 74 157 74 357 c 0
 74 536 165 578 221 598 c 1
 331 536 l 1
 433 601 l 1
 510 588 589 550 589 348 c 2
 589 0 l 1
 501 0 l 1
 501 365 l 2
 501 473 498 510 430 532 c 1
 331 470 l 1
 227 530 l 1
 169 506 155 440 155 357 c 0
 155 226 195 191 221 174 c 1
 226 179 244 195 282 220 c 2
 340 259 l 2
 346 263 377 284 377 321 c 0
 377 360 351 376 329 376 c 0
 297 376 275 352 275 323 c 0
 275 310 280 299 290 290 c 2
 317 262 l 1
 299 247 l 1
 253 253 l 1
 234 273 224 297 224 324 c 0
 224 379 267 430 327 430 c 1
 407 428 436 371 436 329 c 256
 436 174 205 176 205 0 c 1
 125 0 l 2
 113 0 112 6 115 21 c 0
 126 84 161 113 161 130 c 0
EndSplineSet
Validated: 3073
EndChar

StartChar: uni0E16
Encoding: 3606 3606 235
Width: 662
VWidth: 1473
Flags: W
HStem: -9 52<198.173 276.964> 0 21G<494 582> 150 52<239 277.828> 385 61<209.5 264.587> 532 66<211.518 445.493>
VStem: 66 87<438.026 492.699> 97 89<52.4174 359.811> 286 53<52.0092 143.21> 494 88<0 481.098>
LayerCount: 2
Fore
SplineSet
333 532 m 0x7d80
 231 532 153 488 153 473 c 0x7d80
 153 463 179 427 192 427 c 0
 212 427 220 446 243 446 c 0
 254 446 281 402 281 389 c 0
 281 386 280 385 278 385 c 0
 218 385 186 368 186 262 c 2
 186 113 l 2
 186 75 201 43 234 43 c 0
 276 43 286 78 286 97 c 256
 286 116 277 150 239 150 c 2
 197 150 l 1
 197 174 l 1
 239 202 l 1
 294 202 339 157 339 97 c 256
 339 36 291 -9 234 -9 c 0
 175 -9 97 32 97 133 c 2
 97 262 l 2xbb80
 97 330 108 359 144 395 c 1
 126 404 66 449 66 470 c 0
 66 504 187 598 333 598 c 0
 532 598 582 487 582 367 c 2
 582 0 l 1
 494 0 l 1
 494 367 l 2
 494 515 445 532 333 532 c 0x7d80
EndSplineSet
Validated: 3073
EndChar

StartChar: uni0E17
Encoding: 3607 3607 236
Width: 733
VWidth: 1473
Flags: W
HStem: 0 21G<179 263.818 564 653> 389 50<112.098 144> 527 67<461.622 551.185> 548 52<116.197 197.519>
VStem: 52 53<444.546 537.719> 208 73<383.826 538.549> 564 89<0 513.75>
LayerCount: 2
Fore
SplineSet
105 494 m 256xde
 105 470 113 439 147 439 c 2
 180 439 l 1
 180 415 l 1
 144 389 l 1
 87 389 52 433 52 494 c 256
 52 557 110 600 166 600 c 0xde
 215 600 281 576 281 483 c 0
 281 419 271 435 265 323 c 2
 258 208 l 1
 339 565 455 594 504 594 c 0
 583 594 653 557 653 470 c 2
 653 0 l 1
 564 0 l 1
 564 455 l 2
 564 514 532 527 510 527 c 0xee
 401 527 276 193 264 22 c 1
 262 0 l 1
 183 0 l 2
 175 0 172 1 172 12 c 0
 172 32 180 86 180 228 c 2
 180 327 l 2
 180 362 187 390 194 416 c 1
 204 448 l 1
 206 459 208 469 208 480 c 0
 208 537 179 548 159 548 c 0
 125 548 105 522 105 494 c 256xde
EndSplineSet
Validated: 3073
EndChar

StartChar: uni0E18
Encoding: 3608 3608 237
Width: 621
VWidth: 1473
Flags: W
HStem: -9 66<233.523 414.155> 502 74<207.161 503.622> 520 69<151.354 369.777>
VStem: 65 76<423.124 508.092> 108 85<97.7317 302> 452 89<92.3406 301.802>
LayerCount: 2
Fore
SplineSet
373 576 m 0xd4
 431 576 485 590 519 603 c 1
 526 568 533 561 533 533 c 0
 533 527 529 522 520 519 c 0
 492 510 417 502 373 502 c 0xd4
 294 502 278 520 214 520 c 0
 173 520 141 509 141 464 c 0xb4
 141 425 146 420 201 420 c 0
 367 420 541 386 541 252 c 2
 541 194 l 2
 541 90 531 -9 323 -9 c 0
 117 -9 108 83 108 194 c 2
 108 306 l 1
 193 302 l 1
 193 187 l 2xac
 193 129 196 57 323 57 c 256
 450 57 452 129 452 169 c 2
 452 252 l 2
 452 386 144 327 96 370 c 0
 84 380 65 397 65 458 c 0
 65 541 119 589 196 589 c 0xb4
 224 589 314 576 373 576 c 0xd4
EndSplineSet
Validated: 3073
EndChar

StartChar: uni0E19
Encoding: 3609 3609 238
Width: 701
VWidth: 1473
Flags: W
HStem: -3 53<482.078 569.803> 200 64<368.033 475.734> 389 50<112.098 144> 548 52<115.474 196.892> 569 20G<532 620>
VStem: 52 53<444.546 537.628> 180 85<0 83.4579 149 440.294> 208 81<385.104 539.528> 421 52<58.7837 162.94> 532 88<250.425 589> 580 84<59.5141 160.536>
LayerCount: 2
Fore
SplineSet
421 105 m 0xeca0
 421 141 439 171 476 196 c 1
 469 199 458 200 443 200 c 0
 350 200 267 103 267 0 c 1
 187 0 l 2
 179 0 176 3 176 10 c 0
 176 19 180 36 180 63 c 1
 181 84 181 108 181 136 c 0
 181 212 180 251 180 327 c 0xeea0
 180 362 187 390 194 416 c 1
 204 448 l 1
 206 459 208 469 208 480 c 0xed80
 208 537 179 548 159 548 c 0
 125 548 105 522 105 494 c 256
 105 470 113 439 147 439 c 2
 180 439 l 1
 180 415 l 1xf680
 144 389 l 1
 87 389 52 433 52 494 c 0
 52 551 110 600 169 600 c 0
 235 600 289 561 289 483 c 0xf580
 289 446 265 398 265 323 c 2
 265 149 l 1
 328 247 407 264 446 264 c 0
 474 264 501 259 527 250 c 1
 530 259 532 272 532 287 c 2
 532 589 l 1
 620 589 l 1
 620 273 l 2xeec0
 620 255 612 237 597 220 c 1
 617 208 664 176 664 109 c 0
 664 19 583 -3 539 -3 c 0
 500 -3 421 19 421 105 c 0xeca0
524 50 m 0
 551 50 580 62 580 112 c 0
 580 145 560 169 519 184 c 1
 480 159 473 126 473 112 c 0
 473 71 490 50 524 50 c 0
EndSplineSet
Validated: 3073
EndChar

StartChar: uni0E1A
Encoding: 3610 3610 239
Width: 729
VWidth: 1473
Flags: W
HStem: -9 66<305.415 515.318> 387 52<114.351 150> 548 52<116.197 197.519> 569 20G<560 648>
VStem: 52 53<445.465 537.719> 180 85<97.7317 440.144> 208 73<384.48 538.549> 560 88<96.1165 589>
LayerCount: 2
Fore
SplineSet
105 494 m 256xeb
 105 472 114 439 150 439 c 2
 184 439 l 1
 184 415 l 1
 150 387 l 1
 91 387 52 436 52 494 c 256
 52 557 110 600 166 600 c 0
 215 600 281 576 281 483 c 0xeb
 281 426 265 410 265 323 c 2
 265 182 l 2
 265 122 267 57 412 57 c 256
 554 57 560 122 560 169 c 2
 560 589 l 1
 648 589 l 1
 648 194 l 2
 648 89 643 -9 412 -9 c 0
 185 -9 180 83 180 194 c 2
 180 327 l 2xdd
 180 362 187 390 194 416 c 1
 204 448 l 1
 206 459 208 469 208 480 c 0
 208 537 179 548 159 548 c 0
 125 548 105 522 105 494 c 256xeb
EndSplineSet
Validated: 3073
EndChar

StartChar: uni0E1B
Encoding: 3611 3611 240
Width: 729
VWidth: 1473
Flags: W
HStem: -9 66<305.415 515.318> 387 52<114.351 150> 548 52<116.197 197.519>
VStem: 52 53<445.465 537.719> 180 85<97.7317 440.144> 208 73<384.48 538.549> 560 88<96.1165 801>
LayerCount: 2
Fore
SplineSet
105 494 m 256xf6
 105 472 114 439 150 439 c 2
 184 439 l 1
 184 415 l 1
 150 387 l 1
 91 387 52 436 52 494 c 256
 52 557 110 600 166 600 c 0
 215 600 281 576 281 483 c 0xf6
 281 426 265 410 265 323 c 2
 265 182 l 2
 265 122 267 57 412 57 c 256
 554 57 560 122 560 169 c 2
 560 801 l 1
 648 801 l 1
 648 194 l 2
 648 89 643 -9 412 -9 c 0
 185 -9 180 83 180 194 c 2
 180 327 l 2xfa
 180 362 187 390 194 416 c 1
 204 448 l 1
 206 459 208 469 208 480 c 0
 208 537 179 548 159 548 c 0
 125 548 105 522 105 494 c 256xf6
EndSplineSet
Validated: 3073
EndChar

StartChar: uni0E1C
Encoding: 3612 3612 241
Width: 698
VWidth: 1473
Flags: W
HStem: 0 21G<81 169 522 609.5> 387 52<224 261.398> 548 52<179.745 260.829> 569 20G<523 611>
VStem: 75 89<0 72.223 137 533.841> 82 89<9.90985 84.8742 137 470.127> 271 53<446.487 538.488> 523 88<0 79.8138 130.105 589> 530 81<130 289.203>
LayerCount: 2
Fore
SplineSet
74 9 m 0xd3
 74 29 84 10 84 194 c 1
 82 317 l 1xd7
 82 395 75 411 75 473 c 0
 75 549 137 600 211 600 c 0
 269 600 324 555 324 494 c 256
 324 433 281 387 224 387 c 1
 183 415 l 1
 183 439 l 1
 224 439 l 2
 262 439 271 474 271 494 c 256
 271 522 252 548 218 548 c 0
 196 548 164 528 164 473 c 0xea
 164 433 171 376 171 317 c 0
 171 252 165 221 165 137 c 1
 192 179 235 236 349 317 c 1
 455 248 507 174 530 130 c 1xe680
 530 130 523 275 523 290 c 2
 523 589 l 1
 611 589 l 1
 611 194 l 2
 611 80 616 33 616 14 c 0
 616 -0 614 -0 605 0 c 2
 522 0 l 1
 522 15 l 2
 522 87 428 181 349 245 c 1
 209 133 169 61 169 15 c 2
 169 0 l 1
 85 0 l 2
 77 0 74 3 74 9 c 0xd3
EndSplineSet
Validated: 3073
EndChar

StartChar: uni0E1D
Encoding: 3613 3613 242
Width: 698
VWidth: 1473
Flags: W
HStem: 0 21G<81 169 522 609.5> 387 52<224 261.398> 548 52<179.745 260.829>
VStem: 75 89<0 72.223 137 533.841> 82 89<9.90985 84.8742 137 470.127> 271 53<446.487 538.488> 523 88<0 79.8138 130.105 801> 530 81<130 289.203>
LayerCount: 2
Fore
SplineSet
74 9 m 0xe6
 74 29 84 10 84 194 c 1
 82 317 l 1xee
 82 395 75 411 75 473 c 0
 75 549 137 600 211 600 c 0
 269 600 324 555 324 494 c 256
 324 433 281 387 224 387 c 1
 183 415 l 1
 183 439 l 1
 224 439 l 2
 262 439 271 474 271 494 c 256
 271 522 252 548 218 548 c 0
 196 548 164 528 164 473 c 0xf4
 164 433 171 376 171 317 c 0
 171 252 165 221 165 137 c 1
 192 179 235 236 349 317 c 1
 455 248 507 174 530 130 c 1xed
 530 130 523 275 523 290 c 2
 523 801 l 1
 611 801 l 1
 611 194 l 2
 611 80 616 33 616 14 c 0
 616 -0 614 -0 605 0 c 2
 522 0 l 1
 522 15 l 2
 522 87 428 181 349 245 c 1
 209 133 169 61 169 15 c 2
 169 0 l 1
 85 0 l 2
 77 0 74 3 74 9 c 0xe6
EndSplineSet
Validated: 3073
EndChar

StartChar: uni0E1E
Encoding: 3614 3614 243
Width: 794
VWidth: 1473
Flags: W
HStem: 0 21G<177 265 617 705.5> 387 52<114.351 150> 548 52<115.044 196.797> 569 20G<619 707>
VStem: 52 53<445.465 537.516> 170 95<0 103.848 174 271.438> 180 85<11.0014 103.848 174 432.495> 208 73<379.603 538.438> 619 88<0 100.891 168.316 589> 626 81<166 287.13>
LayerCount: 2
Fore
SplineSet
170 10 m 0xdc80
 170 32 180 12 180 194 c 2
 180 312 l 2xda
 180 406 208 418 208 480 c 0
 208 537 179 548 159 548 c 0
 125 548 105 522 105 494 c 256
 105 472 114 439 150 439 c 2
 184 439 l 1
 184 415 l 1
 150 387 l 1
 91 387 52 436 52 494 c 256
 52 540 82 600 171 600 c 0
 241 600 281 556 281 483 c 0xe9
 281 417 265 413 265 308 c 0
 265 241 261 228 261 174 c 1
 285 253 330 378 445 552 c 1
 505 466 583 328 626 166 c 1xea40
 626 216 619 228 619 290 c 2
 619 589 l 1
 707 589 l 1
 707 194 l 2
 707 80 712 33 712 14 c 0
 712 -0 710 -0 701 0 c 2
 617 0 l 1
 617 15 l 2
 617 99 502 327 445 436 c 1
 362 274 265 96 265 15 c 2
 265 0 l 1
 181 0 l 2
 173 0 170 3 170 10 c 0xdc80
EndSplineSet
Validated: 3073
EndChar

StartChar: uni0E1F
Encoding: 3615 3615 244
Width: 794
VWidth: 1473
Flags: W
HStem: 0 21G<177 265 617 705.5> 387 52<114.351 150> 548 52<115.044 196.797>
VStem: 52 53<445.465 537.516> 170 95<0 103.848 174 271.438> 180 85<11.0014 103.848 174 432.495> 208 73<379.603 538.438> 619 88<0 100.891 168.316 801> 626 81<166 287.13>
LayerCount: 2
Fore
SplineSet
170 10 m 0xf9
 170 32 180 12 180 194 c 2
 180 312 l 2xf4
 180 406 208 418 208 480 c 0
 208 537 179 548 159 548 c 0
 125 548 105 522 105 494 c 256
 105 472 114 439 150 439 c 2
 184 439 l 1
 184 415 l 1
 150 387 l 1
 91 387 52 436 52 494 c 256
 52 540 82 600 171 600 c 0
 241 600 281 556 281 483 c 0xf2
 281 417 265 413 265 308 c 0
 265 241 261 228 261 174 c 1
 285 253 330 378 445 552 c 1
 505 466 583 328 626 166 c 1xf480
 626 216 619 228 619 290 c 2
 619 801 l 1
 707 801 l 1
 707 194 l 2
 707 80 712 33 712 14 c 0
 712 -0 710 -0 701 0 c 2
 617 0 l 1
 617 15 l 2
 617 99 502 327 445 436 c 1
 362 274 265 96 265 15 c 2
 265 0 l 1
 181 0 l 2
 173 0 170 3 170 10 c 0xf9
EndSplineSet
Validated: 3073
EndChar

StartChar: uni0E20
Encoding: 3616 3616 245
Width: 713
VWidth: 1473
Flags: W
HStem: -9 52<105.918 187.374> 0 21G<544 632> 152 48<104.444 138> 379 61<275.685 334.75> 532 66<263.303 494.181>
VStem: 44 53<51.9251 146.258> 131 87<439.332 496.377> 178 87<110.826 369.213> 200 74<53.884 239.912> 544 88<0 476.858>
LayerCount: 2
Fore
SplineSet
265 283 m 0x7d40
 265 232 274 175 274 108 c 0
 274 32 224 -9 156 -9 c 256
 85 -9 44 41 44 97 c 256
 44 157 83 200 138 200 c 1
 172 175 l 1
 172 152 l 1
 138 152 l 2
 105 152 97 120 97 97 c 256
 97 78 107 43 149 43 c 0
 169 43 200 56 200 110 c 0xbcc0
 200 121 199 135 196 150 c 1
 190 200 l 1
 182 257 178 266 178 295 c 0xbd40
 178 347 183 368 209 395 c 1
 191 404 131 449 131 470 c 0
 131 502 226 598 376 598 c 0
 533 598 632 529 632 367 c 2
 632 0 l 1
 544 0 l 1
 544 367 l 2
 544 513 490 532 376 532 c 0
 279 532 218 490 218 473 c 0x7e40
 218 455 257 421 264 421 c 0
 284 421 292 440 315 440 c 0
 325 440 347 400 347 385 c 0
 347 381 346 379 343 379 c 0
 274 379 265 365 265 283 c 0x7d40
EndSplineSet
Validated: 3073
EndChar

StartChar: uni0E21
Encoding: 3617 3617 246
Width: 701
VWidth: 1473
Flags: W
HStem: -3 53<149.277 206.688> 205 59<289 378.474> 389 50<134.098 166> 548 52<138.151 219.471> 569 20G<523 611>
VStem: 74 53<444.546 537.508> 85 53<59.7189 178.825> 202 85<142.099 202 264 438.149> 210 80<51.7581 199.747> 230 73<377.935 538.874> 522 97<0 62.5364> 523 88<119 589>
LayerCount: 2
Fore
SplineSet
127 494 m 256xf440
 127 470 135 439 169 439 c 2
 202 439 l 1
 202 415 l 1xf5
 166 389 l 1
 109 389 74 433 74 494 c 256
 74 556 131 600 189 600 c 0
 257 600 303 558 303 483 c 0xf440
 303 419 287 415 287 329 c 2
 287 264 l 1
 356 264 456 247 527 119 c 1
 525 163 523 219 523 268 c 2
 523 589 l 1
 611 589 l 1
 611 228 l 2xe910
 611 145 615 41 619 21 c 0
 622 6 620 0 608 0 c 2
 522 0 l 1
 492 120 420 194 289 205 c 1
 290 146 l 1xe8a0
 290 65 268 -3 180 -3 c 0
 142 -3 85 14 85 116 c 0
 85 230 181 255 203 259 c 1
 202 272 202 280 202 285 c 2
 202 318 l 2xeb
 202 355 209 384 216 411 c 2
 226 447 l 1
 228 458 230 469 230 480 c 0
 230 537 201 548 181 548 c 0
 147 548 127 522 127 494 c 256xf440
180 50 m 0
 206 50 210 75 210 101 c 0
 210 115 209 130 209 141 c 0
 209 165 207 153 205 202 c 1
 149 184 138 161 138 119 c 0xe280
 138 62 170 50 180 50 c 0
EndSplineSet
Validated: 3073
EndChar

StartChar: uni0E22
Encoding: 3618 3618 247
Width: 661
VWidth: 1473
Flags: W
HStem: -9 66<223.293 445.678> 253 71<218.841 334.965> 404 51<224 261.671> 545 55<175.938 262.181> 569 20G<491 579>
VStem: 74 85<376.859 528.839> 93 85<97.8719 266.673> 268 55<460.056 539.615> 491 88<97.0798 589>
LayerCount: 2
Fore
SplineSet
178 199 m 2xf380
 178 164 l 2
 178 126 182 57 336 57 c 256
 484 57 491 121 491 169 c 2
 491 589 l 1
 579 589 l 1
 579 194 l 2
 579 80 567 -9 336 -9 c 0
 109 -9 93 82 93 172 c 2
 93 200 l 2xeb80
 93 232 94 271 147 311 c 1
 76 354 74 431 74 457 c 0
 74 517 116 600 214 600 c 0
 264 600 323 567 323 499 c 0
 323 442 282 404 224 404 c 1
 181 429 l 1
 181 455 l 1
 224 455 l 2
 259 455 268 482 268 498 c 0
 268 519 259 545 225 545 c 0
 185 545 159 522 159 457 c 0xf580
 159 345 238 324 349 324 c 0
 351 324 353 322 353 319 c 0
 353 303 325 253 317 253 c 0
 304 253 242 275 217 275 c 0
 200 275 178 249 178 199 c 2xf380
EndSplineSet
Validated: 3073
EndChar

StartChar: uni0E23
Encoding: 3619 3619 248
Width: 545
VWidth: 1473
Flags: W
HStem: -9 59<275.556 359.388> 143 44<277.137 317> 498 75<183.592 449.687> 517 72<139.268 336.647>
VStem: 44 86<411.288 507.419> 215 56<55.7833 137.873> 376 88<64.6162 288.505>
LayerCount: 2
Fore
SplineSet
329 -9 m 0xde
 238 -9 215 48 215 94 c 256
 215 139 235 187 317 187 c 1
 357 166 l 1
 357 143 l 1
 317 143 l 2
 286 143 271 127 271 94 c 0
 271 65 288 50 321 50 c 0
 365 50 376 97 376 137 c 2
 376 236 l 2
 376 367 130 312 78 355 c 0
 65 366 44 389 44 451 c 0
 44 531 96 589 174 589 c 0xde
 222 589 257 573 333 573 c 0
 387 573 446 591 471 603 c 1
 482 583 488 560 488 527 c 0
 488 515 467 498 346 498 c 0xee
 300 498 230 517 189 517 c 0
 150 517 130 503 130 452 c 0
 130 384 175 420 324 392 c 0
 454 368 464 283 464 243 c 2
 464 133 l 2
 464 53 410 -9 329 -9 c 0xde
EndSplineSet
Validated: 3073
EndChar

StartChar: uni0E24
Encoding: 3620 3620 249
Width: 662
VWidth: 1473
Flags: W
HStem: -9 52<198.173 276.964> 150 52<239 277.828> 385 61<209.5 264.587> 532 66<211.518 445.493>
VStem: 66 87<438.026 492.699> 97 89<52.4174 359.811> 286 53<52.0092 143.21> 494 88<-221 481.098>
LayerCount: 2
Fore
SplineSet
333 532 m 0xfb
 231 532 153 488 153 473 c 0xfb
 153 463 179 427 192 427 c 0
 212 427 220 446 243 446 c 0
 254 446 281 402 281 389 c 0
 281 386 280 385 278 385 c 0
 218 385 186 368 186 262 c 2
 186 113 l 2
 186 75 201 43 234 43 c 0
 276 43 286 78 286 97 c 256
 286 116 277 150 239 150 c 2
 197 150 l 1
 197 174 l 1
 239 202 l 1
 294 202 339 157 339 97 c 256
 339 36 291 -9 234 -9 c 0
 175 -9 97 32 97 133 c 2
 97 262 l 2xf7
 97 330 108 359 144 395 c 1
 126 404 66 449 66 470 c 0
 66 504 187 598 333 598 c 0
 532 598 582 487 582 367 c 2
 582 -221 l 1
 494 -221 l 1
 494 367 l 2
 494 515 445 532 333 532 c 0xfb
EndSplineSet
Validated: 3073
EndChar

StartChar: uni0E25
Encoding: 3621 3621 250
Width: 671
VWidth: 1473
Flags: W
HStem: -9 58<205.153 291.668> 0 21G<492 583> 136 51<252 288.98> 302 66<228.24 381.209> 526 71<260.579 444.175>
VStem: 106 83<62.5824 258.671> 296 53<54.8329 130.472> 491 88<255.319 476.226> 492 98<0 149.152> 492 74<252 403.939>
LayerCount: 2
Fore
SplineSet
579 408 m 0xbf
 579 320 566 320 566 233 c 0xbe40
 566 222 567 207 569 186 c 2
 576 122 l 2
 582 58 590 27 590 12 c 0xbe80
 590 3 587 -0 579 0 c 2x7f
 492 0 l 1x7e80
 492 136 446 302 299 302 c 0
 226 302 189 258 189 169 c 2
 189 156 l 2
 189 107 191 49 249 49 c 0
 268 49 296 57 296 90 c 0
 296 106 287 136 252 136 c 2
 208 136 l 1
 208 162 l 1
 252 187 l 1
 309 187 349 150 349 90 c 0
 349 50 328 -9 246 -9 c 0
 153 -9 106 52 106 174 c 0
 106 326 217 368 295 368 c 0
 327 368 361 360 398 344 c 0
 434 328 465 297 492 252 c 1xbe40
 492 294 491 308 491 393 c 0
 491 463 464 526 358 526 c 0
 315 526 234 517 153 418 c 0
 152 417 149 416 147 416 c 0
 132 416 92 442 74 479 c 1
 105 521 244 597 351 597 c 0
 453 597 579 559 579 408 c 0xbf
EndSplineSet
Validated: 3073
EndChar

StartChar: uni0E26
Encoding: 3622 3622 251
Width: 713
VWidth: 1473
Flags: W
HStem: -9 52<105.918 187.374> 152 48<104.444 138> 379 61<275.685 334.75> 532 66<263.303 494.181>
VStem: 44 53<51.9251 146.258> 131 87<439.332 496.377> 178 87<110.826 369.213> 200 74<53.884 239.912> 544 88<-221 476.858>
LayerCount: 2
Fore
SplineSet
265 283 m 0xfa80
 265 232 274 175 274 108 c 0
 274 32 224 -9 156 -9 c 256
 85 -9 44 41 44 97 c 256
 44 157 83 200 138 200 c 1
 172 175 l 1
 172 152 l 1
 138 152 l 2
 105 152 97 120 97 97 c 256
 97 78 107 43 149 43 c 0
 169 43 200 56 200 110 c 0xf980
 200 121 199 135 196 150 c 1
 190 200 l 1
 182 257 178 266 178 295 c 0xfa80
 178 347 183 368 209 395 c 1
 191 404 131 449 131 470 c 0
 131 502 226 598 376 598 c 0
 533 598 632 529 632 367 c 2
 632 -221 l 1
 544 -221 l 1
 544 367 l 2
 544 513 490 532 376 532 c 0
 279 532 218 490 218 473 c 0xfc80
 218 455 257 421 264 421 c 0
 284 421 292 440 315 440 c 0
 325 440 347 400 347 385 c 0
 347 381 346 379 343 379 c 0
 274 379 265 365 265 283 c 0xfa80
EndSplineSet
Validated: 3073
EndChar

StartChar: uni0E27
Encoding: 3623 3623 252
Width: 577
VWidth: 1473
Flags: W
HStem: -10 51<296.619 378.067> 150 52<294.737 333> 530 67<200.971 350.902>
VStem: 233 53<50.8682 141.87> 393 102<54.429 486.006>
LayerCount: 2
Fore
SplineSet
29 479 m 1
 61 522 197 597 283 597 c 0
 374 597 496 559 496 408 c 2
 496 374 l 2
 496 345 495 354 495 278 c 2
 495 146 l 2
 495 21 420 -10 346 -10 c 0
 277 -10 233 39 233 96 c 256
 233 153 273 202 333 202 c 1
 373 174 l 1
 373 150 l 1
 333 150 l 2
 305 150 286 127 286 96 c 256
 286 68 305 41 339 41 c 0
 361 41 393 56 393 116 c 2
 393 393 l 2
 393 506 332 530 292 530 c 0
 215 530 146 486 100 433 c 0
 99 432 97 431 95 431 c 0
 84 431 61 443 29 479 c 1
EndSplineSet
Validated: 3073
EndChar

StartChar: uni0E28
Encoding: 3624 3624 253
Width: 655
VWidth: 1473
Flags: W
HStem: 0 21G<106 199.5 486 575> 202 51<308.795 381.61> 355 65<295.379 383.076> 532 66<227.77 442.833>
VStem: 74 88<256.96 461.385> 100 97<0 135.755> 389 60<258.843 348.512> 486 89<0 487.479>
LayerCount: 2
Fore
SplineSet
132 182 m 0xf7
 132 203 74 237 74 357 c 256
 74 511 186 598 324 598 c 0
 403 598 432 588 455 577 c 1
 486 593 526 623 554 647 c 1
 622 624 631 615 631 607 c 0
 631 593 570 550 527 536 c 1
 550 510 575 465 575 348 c 2
 575 0 l 1
 486 0 l 1
 486 333 l 2
 486 495 476 532 324 532 c 0
 194 532 162 457 162 357 c 0xfb
 162 318 167 284 177 255 c 1
 203 328 245 420 346 420 c 0
 413 420 449 374 449 312 c 0
 449 256 406 202 348 202 c 0
 321 202 299 211 280 230 c 1
 274 275 l 1
 289 293 l 1
 317 267 l 1
 325 258 335 253 346 253 c 0
 380 253 389 285 389 306 c 0
 389 329 380 355 342 355 c 0
 261 355 202 172 197 0 c 1
 110 0 l 2
 102 0 100 4 100 21 c 0
 100 96 132 154 132 182 c 0xf7
EndSplineSet
Validated: 3073
EndChar

StartChar: uni0E29
Encoding: 3625 3625 254
Width: 749
VWidth: 1473
Flags: W
HStem: -9 66<325.598 534.047> 186 61<404.95 540.448> 337 49<398.832 456.97> 387 52<133.741 171> 548 52<135.784 216.815> 569 20G<580 669>
VStem: 72 53<446.466 537.335> 200 84<97.8939 435.289> 228 74<383.532 538.549> 340 58<255.332 336.161> 458 47<303 335.168> 580 89<95.2277 245 285.958 589>
LayerCount: 2
Fore
SplineSet
125 494 m 256xfaf0
 125 463 141 439 171 439 c 2
 205 439 l 1
 205 415 l 1
 171 387 l 1
 114 387 72 433 72 494 c 256
 72 557 132 600 187 600 c 0
 236 600 302 576 302 483 c 0xfaf0
 302 429 286 392 286 317 c 1
 284 187 l 2
 284 129 287 57 418 57 c 256
 580 57 585 126 585 169 c 2
 585 245 l 1
 562 199 501 186 471 186 c 0
 355 186 340 257 340 296 c 0
 340 368 403 386 430 386 c 0
 466 386 505 369 505 303 c 1
 482 271 l 1
 458 271 l 1
 458 303 l 2
 458 323 452 337 430 337 c 0
 403 337 398 328 398 303 c 0
 398 262 413 247 467 247 c 0
 557 247 580 312 580 348 c 2
 580 589 l 1
 669 589 l 1
 669 194 l 2
 669 87 664 -9 418 -9 c 0
 204 -9 200 93 200 194 c 2
 200 327 l 2xf770
 200 400 228 426 228 480 c 0
 228 537 199 548 180 548 c 0
 146 548 125 522 125 494 c 256xfaf0
EndSplineSet
Validated: 3073
EndChar

StartChar: uni0E2A
Encoding: 3626 3626 255
Width: 652
VWidth: 1473
Flags: W
HStem: -9 58<205.153 291.668> 0 21G<492 583> 136 51<252 288.98> 302 66<228.24 381.209> 526 71<260.579 444.072>
VStem: 106 83<62.5824 258.671> 296 53<54.8329 130.472> 491 88<255.319 478.078> 492 98<0 149.152> 492 74<252 403.939>
LayerCount: 2
Fore
SplineSet
638 607 m 0xbf
 638 593 579 550 535 536 c 1
 564 507 579 464 579 408 c 0xbf
 579 320 566 320 566 233 c 0xbe40
 566 222 567 207 569 186 c 2
 576 122 l 2
 582 58 590 27 590 12 c 0xbe80
 590 3 587 -0 579 0 c 2x7f
 492 0 l 1x7e80
 492 136 446 302 299 302 c 0
 226 302 189 258 189 169 c 2
 189 156 l 2
 189 107 191 49 249 49 c 0
 268 49 296 57 296 90 c 0
 296 106 287 136 252 136 c 2
 208 136 l 1
 208 162 l 1
 252 187 l 1
 309 187 349 150 349 90 c 0
 349 50 328 -9 246 -9 c 0
 153 -9 106 52 106 174 c 0
 106 326 217 368 295 368 c 0
 327 368 361 360 398 344 c 0
 434 328 465 297 492 252 c 1xbe40
 492 294 491 308 491 393 c 0
 491 463 464 526 358 526 c 0
 315 526 234 517 153 418 c 0
 152 417 149 416 147 416 c 0
 129 416 89 450 74 479 c 1
 105 521 244 597 351 597 c 0
 374 597 399 597 464 575 c 1
 502 591 524 617 561 647 c 1
 634 623 638 615 638 607 c 0xbf
EndSplineSet
Validated: 3073
EndChar

StartChar: uni0E2B
Encoding: 3627 3627 256
Width: 723
VWidth: 1473
Flags: W
HStem: 0 21G<184.5 268 554 642> 387 52<114.351 150> 548 52<116.197 197.519 495.951 576.668>
VStem: 52 53<445.465 537.719> 178 90<105.375 433.523> 208 73<380.724 538.549> 429 53<434.424 534.059> 554 88<0 336.721> 589 83<436.223 535.15>
LayerCount: 2
Fore
SplineSet
105 494 m 256xf6
 105 472 114 439 150 439 c 2
 184 439 l 1
 184 415 l 1
 150 387 l 1
 91 387 52 436 52 494 c 256
 52 557 110 600 166 600 c 0
 215 600 281 576 281 483 c 0
 281 435 273 451 265 323 c 1
 261 161 l 1
 310 269 398 337 494 382 c 1
 466 404 429 434 429 489 c 0
 429 554 486 598 551 598 c 0
 590 598 672 575 672 485 c 0xf680
 672 444 658 415 610 380 c 1
 623 372 642 355 642 336 c 2
 642 0 l 1
 554 0 l 1
 554 320 l 2
 554 329 547 342 530 336 c 1
 378 271 268 129 268 18 c 2
 268 0 l 1
 189 0 l 2
 180 0 178 1 178 11 c 0xfb
 178 26 183 60 183 136 c 0
 183 212 181 251 181 327 c 0
 181 396 208 443 208 480 c 0
 208 537 179 548 159 548 c 0
 125 548 105 522 105 494 c 256xf6
536 545 m 0
 502 545 482 517 482 489 c 0
 482 475 489 437 532 408 c 1
 585 442 589 467 589 482 c 0
 589 511 578 545 536 545 c 0
EndSplineSet
Validated: 3073
EndChar

StartChar: uni0E2C
Encoding: 3628 3628 257
Width: 783
VWidth: 1473
Flags: W
HStem: 0 21G<177 265 617 707> 388 53<112.056 150 574.486 629> 548 52<116.197 197.519> 576 52<565.8 630.175>
VStem: 52 53<445.465 537.719> 170 95<0 89.3884 152 270.891> 180 85<11.0014 89.3884 152 440.144> 208 73<384.48 538.549> 508 50<457.409 568.905> 617 95<0 93.1348> 620 83<0 393.154> 635 81<454.734 573.947>
LayerCount: 2
Fore
SplineSet
170 10 m 0xdcc0
 170 32 180 12 180 194 c 2
 180 327 l 2xda80
 180 362 187 390 194 416 c 1
 204 448 l 1
 206 459 208 469 208 480 c 0
 208 537 179 548 159 548 c 0
 125 548 105 522 105 494 c 256
 105 472 114 439 150 439 c 2
 184 439 l 1
 184 415 l 1
 150 387 l 1
 91 387 52 436 52 494 c 256
 52 557 110 600 166 600 c 0
 215 600 281 576 281 483 c 0xe980
 281 426 265 410 265 323 c 0
 265 311 265 301 264 293 c 2
 263 246 l 2
 262 199 261 171 261 152 c 1
 278 187 317 270 445 405 c 1
 530 320 594 224 626 144 c 1
 622 186 620 243 620 290 c 0xeaa0
 620 335 627 359 629 389 c 1
 624 388 620 388 615 388 c 0
 554 388 508 450 508 520 c 0
 508 606 581 628 616 628 c 0
 663 628 716 600 716 527 c 0xd890
 716 500 710 479 707 454 c 1
 728 464 770 503 784 557 c 1
 801 548 842 519 842 509 c 0
 842 487 771 426 707 401 c 1
 707 351 703 377 703 169 c 0xd8a0
 703 115 706 62 712 21 c 0
 715 6 713 0 701 0 c 2
 617 0 l 1
 617 15 l 2
 617 81 538 210 445 330 c 1
 340 198 265 78 265 15 c 2
 265 0 l 1
 181 0 l 2
 173 0 170 3 170 10 c 0xdcc0
601 576 m 256
 587 576 558 569 558 519 c 0
 558 484 574 441 616 441 c 0
 621 441 626 442 632 443 c 1
 633 458 635 504 635 519 c 0xd890
 635 557 628 576 601 576 c 256
EndSplineSet
Validated: 3073
Substitution2: "Single Substitution lookup 27 subtable" uni0E2C.alt1
Substitution2: "Single Substitution lookup 27 subtable" uni0E2C.alt1
EndChar

StartChar: uni0E2D
Encoding: 3629 3629 258
Width: 658
VWidth: 1473
Flags: W
HStem: -9 66<218.429 434.937> 181 52<243 283.27> 323 53<197.049 283.523> 530 67<220.51 435.771>
VStem: 91 89<95.3814 301.383> 289 53<239.13 317.665> 489 88<132.361 455.958>
LayerCount: 2
Fore
SplineSet
65 479 m 1
 104 529 205 597 320 597 c 0
 515 597 577 501 577 289 c 0
 577 60 480 -9 334 -9 c 0
 168 -9 91 52 91 215 c 0
 91 325 171 376 246 376 c 0
 304 376 342 336 342 277 c 256
 342 218 302 181 243 181 c 1
 200 206 l 1
 200 233 l 1
 243 233 l 2
 280 233 289 262 289 277 c 0
 289 305 272 323 246 323 c 0
 193 323 180 285 180 215 c 0
 180 87 196 57 334 57 c 256
 469 57 489 111 489 289 c 0
 489 499 461 530 320 530 c 0
 229 530 164 483 122 433 c 0
 121 431 119 430 116 430 c 0
 103 430 77 464 65 479 c 1
EndSplineSet
Validated: 3073
EndChar

StartChar: uni0E2E
Encoding: 3630 3630 259
Width: 658
VWidth: 1473
Flags: W
HStem: -9 66<222.11 434.937> 159 52<243 283.27> 301 53<196.108 283.414> 387 64<172.902 410.125> 530 67<175.611 431.112>
VStem: 80 86<463.878 517.124> 91 86<100.391 282.513> 289 53<217.13 295.665> 489 88<132.361 437.303>
LayerCount: 2
Fore
SplineSet
246 354 m 0xfb80
 304 354 342 314 342 255 c 256
 342 196 302 159 243 159 c 1
 200 184 l 1
 200 211 l 1
 243 211 l 2
 280 211 289 240 289 255 c 0
 289 283 271 301 246 301 c 0
 188 301 177 255 177 193 c 0xfb80
 177 94 208 57 334 57 c 0
 469 57 489 111 489 289 c 0
 489 395 484 412 473 439 c 1
 416 404 358 387 274 387 c 0
 119 387 80 427 80 486 c 0xfd80
 80 530 111 597 305 597 c 0
 412 597 480 559 508 532 c 1
 531 555 550 581 567 610 c 1
 596 596 628 577 628 567 c 0
 628 559 589 511 539 477 c 1
 573 411 577 345 577 289 c 0
 577 60 480 -9 334 -9 c 0
 176 -9 91 40 91 193 c 0
 91 294 150 354 246 354 c 0xfb80
166 486 m 0xfd80
 166 454 243 451 276 451 c 0
 322 451 396 455 452 494 c 1
 432 512 400 530 305 530 c 0
 181 530 166 512 166 486 c 0xfd80
EndSplineSet
Validated: 3073
EndChar

StartChar: uni0E2F
Encoding: 3631 3631 260
Width: 464
VWidth: 1473
Flags: W
HStem: 0 21G<305 396> 386 59<91.1065 229.99> 547 48<82.5066 143.317>
VStem: 24 56<456.293 544.314> 146 47<510 545.41> 305 91<0 467 511.109 589>
LayerCount: 2
Fore
SplineSet
149 445 m 0
 192 445 306 474 306 589 c 1
 385 589 l 2
 396 589 399 587 399 581 c 0
 399 574 396 564 396 547 c 2
 396 0 l 1
 305 0 l 1
 305 467 l 1
 258 391 187 386 152 386 c 0
 77 386 24 438 24 507 c 0
 24 577 85 595 115 595 c 0
 148 595 193 578 193 510 c 1
 169 467 l 1
 146 467 l 1
 146 510 l 2
 146 540 127 547 115 547 c 0
 92 547 80 534 80 507 c 0
 80 479 87 445 149 445 c 0
EndSplineSet
Validated: 3073
EndChar

StartChar: uni0E30
Encoding: 3632 3632 261
Width: 447
VWidth: 1473
Flags: W
HStem: 24 58<103.504 263.371> 175 52<95.3203 156.431> 362 59<103.192 262.873> 514 52<95.3203 156.431>
VStem: 29 64<93.7244 172.168 432.36 511.168> 159 47<138 172.578 477 511.578>
LayerCount: 2
Fore
SplineSet
168 421 m 0
 256 421 301 453 342 542 c 1
 414 513 l 1
 380 437 303 362 180 362 c 0
 80 362 29 410 29 470 c 0
 29 547 81 566 121 566 c 0
 151 566 206 548 206 477 c 1
 183 442 l 1
 159 442 l 1
 159 477 l 2
 159 510 139 514 128 514 c 0
 105 514 93 502 93 477 c 0
 93 443 108 421 168 421 c 0
168 82 m 0
 253 82 300 112 342 203 c 1
 414 174 l 1
 379 96 303 24 180 24 c 0
 65 24 29 84 29 131 c 0
 29 208 81 227 121 227 c 0
 151 227 206 209 206 138 c 1
 183 103 l 1
 159 103 l 1
 159 138 l 2
 159 171 139 175 128 175 c 0
 105 175 93 163 93 138 c 0
 93 104 109 82 168 82 c 0
EndSplineSet
Validated: 3073
EndChar

StartChar: uni0E31
Encoding: 3633 3633 262
Width: 0
VWidth: 1473
Flags: W
HStem: 673 58<-286.761 -98.0193> 826 54<-300.17 -239.75>
VStem: -365 62<748.136 824.015> -237 47<793 824.052>
LayerCount: 2
Fore
SplineSet
-215 731 m 0
 -105 731 -30 773 1 857 c 1
 82 844 l 1
 46 741 -62 673 -200 673 c 0
 -334 673 -365 740 -365 785 c 0
 -365 853 -311 880 -277 880 c 0
 -236 880 -190 855 -190 793 c 1
 -214 750 l 1
 -237 750 l 1
 -237 788 l 2
 -237 822 -258 826 -268 826 c 0
 -291 826 -303 813 -303 788 c 0
 -303 765 -287 731 -215 731 c 0
EndSplineSet
Validated: 3073
Substitution2: "Single Substitution lookup 27 subtable" uni0E31.alt1
Substitution2: "Single Substitution lookup 27 subtable" uni0E31.alt1
EndChar

StartChar: uni0E32
Encoding: 3634 3634 263
Width: 536
VWidth: 1473
Flags: W
HStem: 0 21G<357 449> 532 66<165.942 313.914>
VStem: 357 97<0 283.307> 357 89<0 390.317> 364 88<229.683 477.794>
LayerCount: 2
Fore
SplineSet
452 410 m 0xc8
 452 339 446 304 446 233 c 2
 446 186 l 2xd0
 446 172 449 51 454 21 c 0
 457 6 455 0 443 0 c 2
 357 0 l 1
 357 225 l 2xe0
 357 327 364 293 364 395 c 0
 364 519 275 532 247 532 c 0
 213 532 157 527 78 435 c 0
 76 433 75 432 72 432 c 0
 59 432 33 466 22 480 c 1
 54 527 173 598 253 598 c 0
 345 598 452 560 452 410 c 0xc8
EndSplineSet
Validated: 3073
EndChar

StartChar: uni0E33
Encoding: 3635 3635 264
Width: 514
VWidth: 1473
Flags: W
HStem: 0 21G<334 427> 532 66<148.795 291.963> 688 59<-149.819 -80.181> 826 59<-150.382 -79.5801>
VStem: -214 59<751.536 820.939> -75 59<751.536 820.916> 334 98<0 283.307> 334 90<0 390.317> 342 88<140.625 477.794>
LayerCount: 2
Fore
SplineSet
-115 885 m 256xfc
 -58 885 -16 840 -16 787 c 256
 -16 729 -61 688 -115 688 c 256
 -169 688 -214 729 -214 787 c 256
 -214 840 -172 885 -115 885 c 256xfc
-115 747 m 256
 -94 747 -75 763 -75 787 c 256
 -75 810 -94 826 -115 826 c 256
 -138 826 -155 808 -155 787 c 256
 -155 763 -136 747 -115 747 c 256
430 410 m 0xfc80
 430 339 424 304 424 233 c 2
 424 186 l 2xfd
 424 172 427 51 432 21 c 0
 435 6 433 0 421 0 c 2
 334 0 l 1
 334 225 l 2xfe
 334 327 342 293 342 395 c 0
 342 519 253 532 225 532 c 0
 163 532 134 508 71 435 c 0
 70 433 68 432 65 432 c 0
 50 432 14 463 0 480 c 1
 37 534 143 598 217 598 c 0
 306 598 430 560 430 410 c 0xfc80
EndSplineSet
Validated: 3073
Substitution2: "Single Substitution lookup 27 subtable" uni0E33.alt1
Substitution2: "Single Substitution lookup 27 subtable" uni0E33.alt1
EndChar

StartChar: uni0E34
Encoding: 3636 3636 265
Width: 0
VWidth: 1473
Flags: W
HStem: 671 57<-492 -219.103> 798 62<-458.885 -224.227>
VStem: -564 72<725 765.282>
LayerCount: 2
Fore
SplineSet
-442 671 m 0
 -503 671 -534 666 -549 666 c 0
 -562 666 -564 669 -564 682 c 0
 -561 752 -522 860 -355 860 c 0
 -152 860 -69 733 -69 657 c 0
 -69 648 -74 644 -84 644 c 0
 -106 644 -286 671 -442 671 c 0
-140 706 m 1
 -154 773 -266 798 -359 798 c 0
 -467 798 -492 754 -492 725 c 1
 -466 727 -439 728 -411 728 c 0
 -384 728 -302 726 -140 706 c 1
EndSplineSet
Validated: 3073
Substitution2: "Single Substitution lookup 27 subtable" uni0E34.alt1
Substitution2: "Single Substitution lookup 27 subtable" uni0E34.alt1
EndChar

StartChar: uni0E35
Encoding: 3637 3637 266
Width: 0
VWidth: 1473
Flags: W
HStem: 671 57<-492 -219.103> 798 62<-458.885 -225.323>
VStem: -564 72<725 765.282> -161 79<800.244 902>
LayerCount: 2
Fore
SplineSet
-153 800 m 1
 -155 805 -161 823 -161 857 c 2
 -161 902 l 1
 -82 902 l 1
 -82 731 l 1
 -78 717 -69 679 -69 657 c 0
 -69 648 -74 644 -84 644 c 0
 -106 644 -286 671 -442 671 c 0
 -503 671 -534 666 -549 666 c 0
 -562 666 -564 669 -564 682 c 0
 -561 752 -522 860 -355 860 c 0
 -257 860 -180 825 -153 800 c 1
-140 706 m 1
 -152 737 -208 798 -359 798 c 0
 -467 798 -492 754 -492 725 c 1
 -466 727 -439 728 -411 728 c 0
 -384 728 -302 726 -140 706 c 1
EndSplineSet
Validated: 3073
Substitution2: "Single Substitution lookup 27 subtable" uni0E35.alt1
Substitution2: "Single Substitution lookup 27 subtable" uni0E35.alt1
EndChar

StartChar: uni0E36
Encoding: 3638 3638 267
Width: 0
VWidth: 1473
Flags: W
HStem: 644 152<-137.66 -79> 671 57<-492 -219.103> 798 62<-458.885 -223.333> 884 41<-149.064 -80.3954>
VStem: -564 72<725 765.282> -198 43<828.239 879.521> -74 42<801.081 878.338>
LayerCount: 2
Fore
SplineSet
-140 706 m 1x7e
 -154 773 -266 798 -359 798 c 0
 -467 798 -492 754 -492 725 c 1
 -466 727 -439 728 -411 728 c 0
 -384 728 -302 726 -140 706 c 1x7e
-564 682 m 0
 -561 752 -522 860 -355 860 c 0
 -308 860 -254 853 -196 828 c 1
 -198 834 -198 841 -198 847 c 0
 -198 883 -165 925 -115 925 c 0
 -69 925 -32 893 -32 840 c 0
 -32 797 -66 764 -99 759 c 1
 -80 734 -69 698 -69 657 c 0
 -69 648 -74 644 -84 644 c 0xbe
 -106 644 -286 671 -442 671 c 0
 -503 671 -534 666 -549 666 c 0
 -562 666 -564 669 -564 682 c 0
-115 796 m 256
 -82 796 -74 824 -74 840 c 256
 -74 854 -82 884 -115 884 c 256
 -147 884 -155 854 -155 840 c 256
 -155 824 -147 796 -115 796 c 256
EndSplineSet
Validated: 3073
Substitution2: "Single Substitution lookup 27 subtable" uni0E36.alt1
Substitution2: "Single Substitution lookup 27 subtable" uni0E36.alt1
EndChar

StartChar: uni0E37
Encoding: 3639 3639 268
Width: 0
VWidth: 1473
Flags: W
HStem: 671 57<-492 -219.103> 798 62<-458.885 -284.687>
VStem: -564 72<725 765.282> -283 71<849 902> -161 79<791.425 902>
LayerCount: 2
Fore
SplineSet
-140 706 m 1
 -151 751 -251 798 -359 798 c 0
 -467 798 -492 754 -492 725 c 1
 -466 727 -439 728 -411 728 c 0
 -384 728 -302 726 -140 706 c 1
-153 791 m 1
 -158 800 -161 813 -161 846 c 2
 -161 902 l 1
 -82 902 l 1
 -82 731 l 1
 -78 717 -69 679 -69 657 c 0
 -69 648 -74 644 -84 644 c 0
 -106 644 -286 671 -442 671 c 0
 -503 671 -534 666 -549 666 c 0
 -562 666 -564 669 -564 682 c 0
 -561 752 -522 860 -355 860 c 0
 -341 860 -303 857 -283 849 c 1
 -283 902 l 1
 -212 902 l 1
 -212 831 l 1
 -187 821 -168 808 -153 791 c 1
EndSplineSet
Validated: 3073
Substitution2: "Single Substitution lookup 27 subtable" uni0E37.alt1
Substitution2: "Single Substitution lookup 27 subtable" uni0E37.alt1
EndChar

StartChar: uni0E38
Encoding: 3640 3640 269
Width: 0
VWidth: 1473
Flags: W
HStem: -99 39<-220.586 -160.849>
VStem: -262 38<-166.145 -102.079> -181 93<-295 -157.34> -156 74<-197.533 -101.303>
LayerCount: 2
Fore
SplineSet
-82 -138 m 0xd0
 -82 -180 -88 -171 -88 -221 c 2
 -88 -295 l 1
 -181 -295 l 1
 -181 -220 l 2xe0
 -181 -180 -156 -170 -156 -140 c 0
 -156 -124 -163 -99 -190 -99 c 256
 -212 -99 -224 -114 -224 -136 c 0
 -224 -156 -210 -165 -200 -169 c 2
 -184 -177 l 1
 -192 -193 l 1
 -220 -194 l 1
 -251 -187 -262 -159 -262 -136 c 0
 -262 -88 -226 -60 -171 -60 c 0
 -100 -60 -82 -107 -82 -138 c 0xd0
EndSplineSet
Validated: 3073
Substitution2: "Single Substitution lookup 26 subtable" a
Substitution2: "Single Substitution lookup 27 subtable" uni0E38.alt1
Substitution2: "Single Substitution lookup 26 subtable" a
Substitution2: "Single Substitution lookup 27 subtable" uni0E38.alt1
EndChar

StartChar: uni0E39
Encoding: 3641 3641 270
Width: 0
VWidth: 1473
Flags: W
HStem: -295 37<-266.667 -174.864> -91 38<-368.116 -308.39>
VStem: -410 39<-160.484 -94.1068> -346 78<-254.45 -174.689> -303 58<-173.688 -92.6763> -174 93<-254.45 -52>
LayerCount: 2
Fore
SplineSet
-346 -215 m 2xf4
 -346 -176 -303 -173 -303 -131 c 0
 -303 -117 -309 -91 -334 -91 c 0
 -359 -91 -371 -103 -371 -128 c 0
 -371 -137 -367 -146 -358 -155 c 2
 -342 -169 l 1
 -354 -184 l 1
 -385 -178 l 1
 -402 -163 -410 -146 -410 -127 c 0
 -410 -77 -360 -53 -321 -53 c 0
 -257 -56 -245 -110 -245 -130 c 0xec
 -245 -162 -268 -178 -268 -236 c 0
 -268 -254 -236 -258 -221 -258 c 256
 -203 -258 -174 -254 -174 -236 c 2
 -174 -52 l 1
 -81 -52 l 1
 -81 -237 l 2
 -81 -283 -183 -295 -215 -295 c 0
 -249 -295 -346 -283 -346 -237 c 2
 -346 -215 l 2xf4
EndSplineSet
Validated: 3073
Substitution2: "Single Substitution lookup 26 subtable" b
Substitution2: "Single Substitution lookup 27 subtable" uni0E39.alt1
Substitution2: "Single Substitution lookup 26 subtable" b
Substitution2: "Single Substitution lookup 27 subtable" uni0E39.alt1
EndChar

StartChar: uni0E3A
Encoding: 3642 3642 271
Width: 0
VWidth: 1473
Flags: W
HStem: -177 118<-159.776 -64.2244>
VStem: -174 124<-162.519 -73.4814>
LayerCount: 2
Fore
SplineSet
-112 -59 m 256
 -77 -59 -50 -85 -50 -118 c 256
 -50 -153 -81 -177 -112 -177 c 256
 -147 -177 -174 -151 -174 -118 c 256
 -174 -83 -143 -59 -112 -59 c 256
EndSplineSet
Validated: 3073
Substitution2: "Single Substitution lookup 26 subtable" c
Substitution2: "Single Substitution lookup 27 subtable" uni0E3A.alt1
Substitution2: "Single Substitution lookup 26 subtable" c
Substitution2: "Single Substitution lookup 27 subtable" uni0E3A.alt1
EndChar

StartChar: uni0E3F
Encoding: 3647 3647 272
Width: 629
VWidth: 1473
Flags: W
HStem: 0 77<192 286 339 427.373> 367 73<194 286 339 408.755> 635 81<194 286 339 412.585>
VStem: 88 104<77 367 440 635> 286 53<-133 0 77 365 440 635 716 857> 440 104<468.327 608.697> 482 103<130.888 319.605>
LayerCount: 2
Fore
SplineSet
544 542 m 0xfc
 544 490 529 432 457 407 c 1
 528 394 585 324 585 228 c 0xfa
 585 118 536 -0 340 0 c 2
 339 0 l 1
 339 -133 l 1
 286 -133 l 1
 286 0 l 1
 88 0 l 1
 88 716 l 1
 286 716 l 1
 286 857 l 1
 339 857 l 1
 339 716 l 1
 343 716 l 2
 512 716 544 609 544 542 c 0xfc
286 367 m 1
 192 367 l 1
 192 77 l 1
 286 77 l 1
 286 367 l 1
286 635 m 1
 194 635 l 1
 194 440 l 1
 286 440 l 1
 286 635 l 1
440 542 m 0xfc
 440 616 395 635 343 635 c 2
 339 635 l 1
 339 440 l 1
 403 445 440 463 440 542 c 0xfc
339 77 m 1
 450 82 482 131 482 228 c 0xfa
 482 310 460 362 339 365 c 1
 339 77 l 1
EndSplineSet
Validated: 3073
EndChar

StartChar: uni0E40
Encoding: 3648 3648 273
Width: 313
VWidth: 1473
Flags: W
HStem: -1 58<184.867 269.061> 152 59<234 270.94> 569 20G<90 180.706>
VStem: 82 101<365.469 589> 85 89<66.9416 363.43> 96 90<130.509 579.567> 277 59<64.8302 146.469>
LayerCount: 2
Fore
SplineSet
82 580 m 0xf2
 82 587 87 589 93 589 c 2
 180 589 l 1
 183 504 l 1xf2
 185 432 l 2
 186 408 186 388 186 371 c 0xe6
 186 292 180 229 174 125 c 1
 174 86 185 57 230 57 c 0
 255 57 277 76 277 105 c 256
 277 124 268 152 234 152 c 2
 192 152 l 1
 192 178 l 1
 234 211 l 1
 295 211 336 162 336 105 c 0
 336 44 273 -1 215 -1 c 256
 154 -1 85 37 85 125 c 1xea
 92 244 96 268 96 364 c 0xe6
 96 396 95 385 92 471 c 1
 88 547 82 571 82 580 c 0xf2
EndSplineSet
Validated: 3073
EndChar

StartChar: uni0E41
Encoding: 3649 3649 274
Width: 608
VWidth: 1473
Flags: W
HStem: -1 58<184.867 269.061 508.817 593.061> 152 59<234 270.94 558 594.94> 569 20G<90 180.706 413.5 504.706>
VStem: 82 101<365.469 589> 85 89<66.9416 363.43> 96 90<130.509 579.567> 277 59<64.8302 146.469> 410 88<65.7739 478.154 522.889 589> 420 90<129.845 580.66> 601 59<64.8302 146.891>
LayerCount: 2
Fore
SplineSet
82 580 m 0xf240
 82 587 87 589 93 589 c 2
 180 589 l 1
 183 504 l 1xf240
 185 432 l 2
 186 408 186 388 186 371 c 0xe640
 186 292 180 229 174 125 c 1
 174 86 185 57 230 57 c 0
 255 57 277 76 277 105 c 256
 277 124 268 152 234 152 c 2
 192 152 l 1
 192 178 l 1
 234 211 l 1
 295 211 336 162 336 105 c 0
 336 44 273 -1 215 -1 c 256
 154 -1 85 37 85 125 c 1xea40
 92 244 96 268 96 364 c 0xe640
 96 396 95 385 92 471 c 1
 88 547 82 571 82 580 c 0xf240
406 581 m 0
 406 586 410 589 417 589 c 2
 504 589 l 1
 507 504 l 1
 509 432 l 2
 510 408 510 388 510 371 c 0xe2c0
 510 292 504 229 498 125 c 1
 498 86 509 57 554 57 c 0
 579 57 601 76 601 105 c 256
 601 124 592 152 558 152 c 2
 516 152 l 1
 516 178 l 1
 558 211 l 1
 619 211 660 164 660 105 c 0
 660 44 597 -1 539 -1 c 256
 493 -1 410 24 410 125 c 1xe340
 414 221 420 268 420 364 c 0xe2c0
 420 396 419 385 416 471 c 1
 412 551 406 574 406 581 c 0
EndSplineSet
Validated: 3073
EndChar

StartChar: uni0E42
Encoding: 3650 3650 275
Width: 313
VWidth: 1473
Flags: W
HStem: -1 58<184.091 269.001> 152 59<234 270.94> 909 74<100.63 331.629> 924 69<57.7267 221.732>
VStem: -31 84<844.907 918.473> 85 89<66.0781 236> 96 90<179.167 765.49> 277 59<64.6242 146.469>
LayerCount: 2
Fore
SplineSet
342 937 m 0xeb
 342 915 266 909 225 909 c 0xeb
 154 909 143 924 108 924 c 0
 63 924 53 913 53 871 c 0
 53 835 70 850 116 838 c 0
 168 823 184 767 184 685 c 0
 185 652 186 620 186 589 c 2
 186 445 l 2xdb
 186 407 184 331 180 255 c 2
 174 125 l 2
 174 86 185 57 230 57 c 0
 255 57 277 76 277 105 c 256
 277 124 268 152 234 152 c 2
 192 152 l 1
 192 178 l 1
 234 211 l 1
 295 211 336 162 336 105 c 256
 336 43 288 -1 230 -1 c 0
 176 -1 85 32 85 125 c 2xdd
 91 236 l 2
 94 276 96 337 96 438 c 2
 96 685 l 2
 96 789 65 765 10 791 c 256
 -16 804 -31 822 -31 869 c 0
 -31 968 48 993 90 993 c 0xdb
 125 993 155 983 225 983 c 0
 281 983 311 995 327 1006 c 1
 331 985 342 956 342 937 c 0xeb
EndSplineSet
Validated: 3073
EndChar

StartChar: uni0E43
Encoding: 3651 3651 276
Width: 321
VWidth: 1473
Flags: W
HStem: -1 58<192.626 276.001> 152 59<242 276.413> 756 53<15.9226 88.3727> 933 63<29.3619 182.434>
VStem: -44 53<814.206 911.895> 93 88<66.5 489.562> 94 52<816.468 854> 103 90<237.876 682.469> 203 87<763.189 912.872> 284 59<64.6242 146.174>
LayerCount: 2
Fore
SplineSet
284 105 m 256xfc40
 284 133 267 152 242 152 c 2
 199 152 l 1
 199 178 l 1
 242 211 l 1
 303 211 343 162 343 105 c 256
 343 43 295 -1 237 -1 c 0
 181 -1 93 33 93 125 c 2xfc40
 99 236 l 2
 102 276 103 317 103 438 c 2
 103 603 l 2xf9
 103 745 203 715 203 847 c 0
 203 917 170 933 97 933 c 0
 56 933 9 918 9 859 c 0
 9 841 17 809 50 809 c 0
 65 809 94 818 94 854 c 2
 94 897 l 1
 119 897 l 1
 146 854 l 1xfa80
 146 796 110 756 50 756 c 256
 -11 756 -44 803 -44 859 c 0
 -44 940 27 996 118 996 c 0
 246 996 290 915 290 852 c 0
 290 713 192 717 192 603 c 0
 193 584 193 566 193 548 c 2
 193 445 l 2xf980
 193 407 191 331 187 255 c 2
 181 125 l 2
 181 88 192 57 237 57 c 0
 262 57 284 76 284 105 c 256xfc40
EndSplineSet
Validated: 3073
EndChar

StartChar: uni0E44
Encoding: 3652 3652 277
Width: 313
VWidth: 1473
Flags: W
HStem: -1 58<183.866 269.263> 152 59<234 270.94>
VStem: -68 86<873.414 977.442> 85 89<66.5067 243> 96 84<233.333 683.762> 127 86<922.108 999> 138 76<705.316 870.765> 277 59<65.2424 146.469>
LayerCount: 2
Fore
SplineSet
213 936 m 0xe5
 213 917 214 927 214 841 c 0xe3
 214 691 186 689 186 445 c 0
 186 407 184 331 180 255 c 2xe9
 174 125 l 1
 174 86 185 57 230 57 c 0
 255 57 277 76 277 105 c 256
 277 124 268 152 234 152 c 2
 192 152 l 1
 192 178 l 1
 234 211 l 1
 295 211 336 162 336 105 c 256
 336 46 292 -1 215 -1 c 256
 148 -1 85 41 85 140 c 1xf1
 91 243 l 2
 94 282 96 341 96 438 c 0xe9
 96 691 138 766 138 853 c 0xe3
 138 860 138 866 137 871 c 1
 118 832 69 775 22 728 c 1
 -14 777 -68 917 -68 962 c 0
 -68 988 -14 1003 18 1003 c 1
 26 898 37 863 46 829 c 1
 92 895 127 953 127 984 c 2
 127 999 l 1
 205 999 l 2
 214 999 216 997 216 989 c 0
 216 980 213 964 213 936 c 0xe5
EndSplineSet
Validated: 3073
EndChar

StartChar: uni0E45
Encoding: 3653 3653 278
Width: 515
VWidth: 1473
Flags: W
HStem: 532 66<179.914 322.94>
VStem: 364 88<-15.3622 485.731> 365 98<-221 57.0493>
LayerCount: 2
Fore
SplineSet
452 410 m 0xc0
 452 339 451 304 451 233 c 0
 451 154 458 -182 463 -200 c 1xa0
 466 -215 464 -221 452 -221 c 2xc0
 365 -221 l 1xa0
 365 -149 365 -83 364 -22 c 1
 364 46 361 101 361 188 c 2
 361 225 l 2
 361 327 364 293 364 395 c 0
 364 515 294 532 262 532 c 0
 228 532 172 527 93 435 c 0
 92 433 90 432 87 432 c 0
 72 432 36 463 22 480 c 1
 54 527 173 598 253 598 c 0
 345 598 452 560 452 410 c 0xc0
EndSplineSet
Validated: 3073
EndChar

StartChar: uni0E46
Encoding: 3654 3654 279
Width: 447
VWidth: 1473
Flags: W
HStem: 349 55<99.3283 178.896> 532 57<106.247 146 292 319.525>
VStem: 29 59<414.742 513.209> 314 98<-221 43.4356> 324 91<185.425 531.296>
LayerCount: 2
Fore
SplineSet
136 349 m 0xe8
 50 349 29 414 29 464 c 0
 29 546 100 591 147 591 c 1
 221 523 l 1
 283 589 l 1
 301 589 l 2
 369 589 415 559 415 461 c 0xe8
 415 100 410 221 410 -140 c 2
 410 -179 l 2
 410 -194 412 -204 412 -211 c 0
 412 -218 410 -221 401 -221 c 2
 314 -221 l 1xf0
 323 44 324 111 324 443 c 0
 324 525 319 532 292 532 c 1
 221 466 l 1
 146 526 l 1
 127 526 88 514 88 466 c 0
 88 413 123 404 143 404 c 0
 157 404 169 415 177 423 c 1
 199 454 l 1
 218 442 l 1
 212 389 l 1
 198 368 166 349 136 349 c 0xe8
EndSplineSet
Validated: 3073
EndChar

StartChar: uni0E47
Encoding: 3655 3655 280
Width: 0
VWidth: 1473
Flags: W
HStem: 676 50<-267.484 -149.201> 825 38<-200.311 -143.992> 890 62<-356.002 -160.111> 903 60<-399.244 -234.513>
VStem: -491 68<751.601 878.211> -243 40<759.635 823.491> -140 52<735.531 822.585> -133 79<990.047 1018.84>
LayerCount: 2
Fore
SplineSet
-227 890 m 0xed
 -266 890 -338 903 -362 903 c 0
 -397 903 -423 853 -423 810 c 0
 -423 790 -422 766 -389 740 c 1
 -321 810 l 1
 -300 775 -262 726 -206 726 c 0
 -164 726 -140 738 -140 784 c 0
 -140 811 -151 825 -174 825 c 0
 -193 825 -203 813 -203 788 c 0
 -203 779 -199 775 -190 766 c 2
 -174 751 l 1
 -186 737 l 1
 -217 742 l 1
 -235 761 -243 771 -243 790 c 0
 -243 834 -212 863 -168 863 c 0
 -119 862 -88 829 -88 778 c 0
 -88 717 -122 676 -208 676 c 0
 -262 676 -305 701 -326 732 c 1
 -373 681 l 1
 -411 681 l 1
 -447 689 -491 746 -491 807 c 0
 -491 916 -418 963 -354 963 c 0xde
 -293 963 -264 952 -239 952 c 0
 -173 952 -141 972 -133 1036 c 1
 -128 1036 l 2
 -92 1036 -54 1009 -54 993 c 0
 -54 992 -55 991 -55 990 c 0
 -98 896 -134 890 -227 890 c 0xed
EndSplineSet
Validated: 3073
Substitution2: "Single Substitution lookup 27 subtable" uni0E47.alt1
Substitution2: "Single Substitution lookup 27 subtable" uni0E47.alt1
EndChar

StartChar: uni0E48
Encoding: 3656 3656 281
Width: 0
VWidth: 1473
Flags: W
HStem: 958 200<-146 -90>
VStem: -159 82<1010.62 1158>
LayerCount: 2
Fore
SplineSet
-146 958 m 1
 -159 1072 l 1
 -159 1158 l 1
 -77 1158 l 1
 -77 1072 l 1
 -90 958 l 1
 -146 958 l 1
EndSplineSet
Validated: 3073
Substitution2: "Single Substitution lookup 27 subtable" uni0E48.alt2
Substitution2: "Single Substitution lookup 27 subtable" uni0E48.alt2
EndChar

StartChar: uni0E49
Encoding: 3657 3657 282
Width: 0
VWidth: 1473
Flags: W
HStem: 935 54<-279.674 -205.295> 1114 38<-237.555 -184.313>
VStem: -280 40<1046.89 1112.31> -180 56<1014.7 1112.19> -16 63<1082.1 1149>
LayerCount: 2
Fore
SplineSet
-264 989 m 0
 -212 992 -180 1022 -180 1074 c 0
 -180 1088 -185 1114 -211 1114 c 0
 -230 1114 -240 1102 -240 1078 c 0
 -240 1071 -236 1062 -227 1053 c 2
 -211 1039 l 1
 -222 1024 l 1
 -253 1030 l 1
 -271 1045 -280 1062 -280 1080 c 0
 -280 1125 -248 1152 -203 1152 c 0
 -143 1150 -124 1101 -124 1075 c 0
 -124 1015 -176 982 -212 971 c 1
 -196 973 -193 977 -180 979 c 2
 -165 981 l 2
 -91 999 -47 1018 -16 1149 c 1
 47 1149 l 1
 12 968 -77 935 -194 935 c 0
 -225 935 -262 939 -287 946 c 1
 -287 956 -283 980 -280 989 c 1
 -273 986 -269 989 -264 989 c 0
EndSplineSet
Validated: 3073
Substitution2: "Single Substitution lookup 27 subtable" uni0E49.alt2
Substitution2: "Single Substitution lookup 27 subtable" uni0E49.alt2
EndChar

StartChar: uni0E4A
Encoding: 3658 3658 283
Width: 0
VWidth: 1473
Flags: W
HStem: 921 38<-318.903 -265.59> 1087 52<-312.965 -222.399 -189.182 -142.772>
VStem: -374 50<960.945 1077.54> -264 40<960.44 1024.46> -137 59<960.463 1083.5> -32 73<1059.68 1161.79>
LayerCount: 2
Fore
SplineSet
-268 1087 m 0
 -313 1087 -324 1059 -324 1006 c 0
 -324 985 -318 959 -292 959 c 0
 -273 959 -264 970 -264 991 c 0
 -264 1000 -268 1009 -277 1018 c 2
 -293 1033 l 1
 -281 1047 l 1
 -250 1042 l 1
 -233 1026 -224 1009 -224 991 c 0
 -224 946 -250 921 -293 921 c 0
 -348 922 -374 960 -374 1022 c 0
 -374 1116 -312 1139 -275 1139 c 0
 -233 1139 -212 1113 -205 1099 c 1
 -183 1136 -157 1137 -146 1137 c 0
 -87 1137 -78 1080 -78 1049 c 0
 -78 1035 -79 1010 -93 977 c 1
 -60 1004 -32 1074 -32 1131 c 0
 -32 1142 -33 1153 -35 1162 c 1
 27 1162 l 2
 38 1162 41 1159 41 1145 c 0
 41 1050 -39 966 -100 937 c 1
 -138 937 l 2
 -142 937 -143 938 -143 942 c 0
 -143 950 -137 971 -137 1019 c 0
 -137 1062 -145 1084 -161 1084 c 0
 -170 1084 -182 1082 -206 1039 c 1
 -223 1075 -243 1087 -268 1087 c 0
EndSplineSet
Validated: 3073
Substitution2: "Single Substitution lookup 27 subtable" uni0E4A.alt2
Substitution2: "Single Substitution lookup 27 subtable" uni0E4A.alt2
EndChar

StartChar: uni0E4B
Encoding: 3659 3659 284
Width: 0
VWidth: 1473
Flags: W
HStem: 1031 56<-240 -159 -78 3>
VStem: -159 81<1087 1164> -146 56<949 1012.78>
LayerCount: 2
Fore
SplineSet
3 1031 m 1xc0
 -81 1031 l 1
 -90 949 l 1
 -146 949 l 1xa0
 -155 1031 l 1
 -240 1031 l 1
 -240 1087 l 1
 -159 1087 l 1
 -159 1164 l 1
 -78 1164 l 1
 -78 1087 l 1
 3 1087 l 1
 3 1031 l 1xc0
EndSplineSet
Validated: 3073
Substitution2: "Single Substitution lookup 27 subtable" uni0E4B.alt2
Substitution2: "Single Substitution lookup 27 subtable" uni0E4B.alt2
EndChar

StartChar: uni0E4C
Encoding: 3660 3660 285
Width: 0
VWidth: 1473
Flags: W
HStem: 902 48<-194.673 -127.464>
VStem: -258 59<953.244 1031.97> -124 43<953.127 1031.55> -121 71<1120.61 1179>
LayerCount: 2
Fore
SplineSet
-124 987 m 0xe0
 -124 1014 -134 1022 -147 1033 c 1
 -133 1044 l 1
 -102 1040 l 1
 -95 1033 -81 1019 -81 987 c 0xe0
 -81 951 -98 902 -166 902 c 0
 -224 902 -258 941 -258 990 c 0
 -258 1074 -173 1074 -137 1120 c 0
 -126 1133 -121 1153 -121 1179 c 1
 -57 1179 l 2
 -48 1179 -47 1173 -50 1162 c 0xd0
 -61 1107 -73 1083 -162 1042 c 0
 -187 1029 -199 1011 -199 990 c 0
 -199 966 -184 950 -162 950 c 256
 -147 950 -124 957 -124 987 c 0xe0
EndSplineSet
Validated: 3073
Substitution2: "Single Substitution lookup 27 subtable" uni0E4C.alt2
Substitution2: "Single Substitution lookup 27 subtable" uni0E4C.alt2
EndChar

StartChar: uni0E4D
Encoding: 3661 3661 286
Width: 0
VWidth: 1473
Flags: W
HStem: 688 59<-149.819 -80.181> 826 59<-150.382 -79.5801>
VStem: -214 59<751.536 820.939> -75 59<751.536 820.916>
LayerCount: 2
Fore
SplineSet
-115 885 m 256
 -58 885 -16 840 -16 787 c 256
 -16 729 -61 688 -115 688 c 256
 -169 688 -214 729 -214 787 c 256
 -214 840 -172 885 -115 885 c 256
-115 747 m 256
 -94 747 -75 763 -75 787 c 256
 -75 810 -94 826 -115 826 c 256
 -138 826 -155 808 -155 787 c 256
 -155 763 -136 747 -115 747 c 256
EndSplineSet
Validated: 3073
Substitution2: "Single Substitution lookup 27 subtable" uni0E4D.alt1
Substitution2: "Single Substitution lookup 27 subtable" uni0E4D.alt1
EndChar

StartChar: uni0E4E
Encoding: 3662 3662 287
Width: 0
VWidth: 1473
Flags: W
HStem: 667 39<-247.254 -189.109> 819 49<-207.37 -134.779> 927 56<-202.135 -60.703>
VStem: -314 62<708.523 797.725> -271 63<870.517 916.589> -186 40<708.491 772.486>
LayerCount: 2
Fore
SplineSet
-218 706 m 0xf4
 -205 706 -186 713 -186 741 c 0
 -186 749 -190 757 -199 766 c 2
 -215 781 l 1
 -203 796 l 1
 -172 790 l 1
 -155 774 -146 757 -146 740 c 0
 -146 693 -183 667 -225 667 c 0
 -299 667 -314 723 -314 744 c 0xf4
 -314 806 -254 838 -222 846 c 1
 -244 846 -271 864 -271 891 c 0
 -271 955 -181 983 -109 983 c 0
 -67 983 -62 977 -57 976 c 0
 -54 976 -52 972 -52 965 c 0
 -52 950 -60 934 -66 913 c 1
 -85 922 -110 927 -135 927 c 0
 -173 927 -208 915 -208 890 c 0xec
 -208 873 -184 868 -162 868 c 0
 -151 868 -141 870 -136 871 c 1
 -135 864 -134 857 -134 852 c 0
 -134 838 -137 826 -146 818 c 1
 -149 819 -165 819 -174 819 c 0
 -190 819 -252 809 -252 745 c 0
 -252 734 -245 706 -218 706 c 0xf4
EndSplineSet
Validated: 3073
Substitution2: "Single Substitution lookup 27 subtable" uni0E4E.alt1
Substitution2: "Single Substitution lookup 27 subtable" uni0E4E.alt1
EndChar

StartChar: uni0E4F
Encoding: 3663 3663 288
Width: 708
VWidth: 1473
Flags: W
HStem: 16 62<261.075 448.869> 172 67<303.32 409.742> 389 68<304.774 409.344> 547 61<260.442 447.676>
VStem: 53 69<216.083 406.1> 214 67<262.207 365.941> 432 67<262.4 366.869> 585 71<214.226 406.402>
LayerCount: 2
Fore
SplineSet
53 311 m 0
 53 471 179 608 355 608 c 256
 521 608 656 478 656 311 c 0
 656 145 519 16 355 16 c 256
 199 16 53 134 53 311 c 0
122 311 m 256
 122 180 228 78 355 78 c 0
 476 78 585 178 585 311 c 256
 585 435 485 547 355 547 c 0
 214 547 122 428 122 311 c 256
214 315 m 0
 214 397 280 457 357 457 c 256
 429 457 499 401 499 315 c 0
 499 229 430 172 357 172 c 256
 282 172 214 229 214 315 c 0
281 315 m 0
 281 270 316 239 357 239 c 256
 397 239 432 271 432 315 c 0
 432 358 396 389 357 389 c 256
 314 389 281 354 281 315 c 0
EndSplineSet
Validated: 3073
EndChar

StartChar: uni0E50
Encoding: 3664 3664 289
Width: 621
VWidth: 1473
Flags: W
HStem: -12 67<213.564 408.041> 417 66<213.779 408.041>
VStem: 52 101<125.199 346.739> 468 102<124.533 347.406>
LayerCount: 2
Fore
SplineSet
311 483 m 256
 419 483 570 434 570 236 c 256
 570 38 419 -12 311 -12 c 256
 203 -12 52 38 52 236 c 256
 52 434 203 483 311 483 c 256
311 55 m 256
 405 55 468 84 468 236 c 256
 468 388 405 417 311 417 c 256
 217 417 153 385 153 236 c 256
 153 87 216 55 311 55 c 256
EndSplineSet
Validated: 3073
EndChar

StartChar: uni0E51
Encoding: 3665 3665 290
Width: 620
VWidth: 1473
Flags: W
HStem: -114 80<262.107 303.702> 47 63<181.868 317.195> 217 48<255.78 328.696> 411 69<219.13 387.901>
VStem: 52 86<156.986 334.029> 205 47<177 211> 334 55<127.574 211.709> 477 92<112.755 317.109>
LayerCount: 2
Fore
SplineSet
293 217 m 256
 279 217 252 209 252 177 c 2
 252 137 l 1
 228 137 l 1
 205 177 l 1
 205 225 237 265 293 265 c 0
 342 265 389 230 389 174 c 0
 389 123 355 47 236 47 c 0
 146 47 52 122 52 242 c 0
 52 401 178 480 308 480 c 0
 458 480 569 377 569 221 c 0
 569 132 543 61 492 7 c 0
 407 -83 291 -114 281 -114 c 0
 257 -114 239 -87 224 -34 c 1
 360 -7 477 54 477 221 c 0
 477 352 388 411 302 411 c 0
 217 411 138 352 138 252 c 0
 138 133 203 110 247 110 c 0
 287 110 334 123 334 174 c 0
 334 199 314 217 293 217 c 256
EndSplineSet
Validated: 3073
EndChar

StartChar: uni0E52
Encoding: 3666 3666 291
Width: 724
VWidth: 1473
Flags: W
HStem: -9 66<214.32 512.636> 124 53<312.754 401.92> 268 52<364 400.156> 399 72<520 550.764>
VStem: 66 92<95.9263 472.598> 222 74<193.952 353.448> 408 53<183.155 262.034> 567 92<95.9717 384.938>
LayerCount: 2
Fore
SplineSet
408 222 m 0
 408 238 399 268 364 268 c 2
 320 268 l 1
 320 295 l 1
 364 320 l 1
 419 320 461 285 461 222 c 0
 461 166 421 124 361 124 c 0
 266 124 222 190 222 284 c 0
 222 360 271 433 361 473 c 1
 443 410 l 1
 511 471 l 1
 529 471 l 2
 596 471 659 402 659 336 c 2
 659 194 l 2
 659 91 643 71 626 52 c 0
 571 -9 375 -9 368 -9 c 0
 365 -9 147 -8 96 52 c 0
 79 71 66 102 66 194 c 2
 66 333 l 2
 66 435 44 508 -22 567 c 1
 -7 584 36 605 72 605 c 0
 82 605 89 603 94 598 c 0
 150 540 158 438 158 372 c 2
 158 202 l 2
 158 139 166 112 178 97 c 1
 199 74 292 57 368 57 c 256
 442 57 527 75 547 97 c 1
 557 110 567 132 567 184 c 2
 567 324 l 2
 567 373 537 399 520 399 c 1
 443 329 l 1
 362 390 l 1
 327 367 296 346 296 287 c 0
 296 225 303 177 361 177 c 0
 390 177 408 196 408 222 c 0
EndSplineSet
Validated: 3073
EndChar

StartChar: uni0E53
Encoding: 3667 3667 292
Width: 636
VWidth: 1473
Flags: W
HStem: -9 53<162.33 251.098> 0 21G<492 585> 136 51<214 251.516> 404 67<155.148 241.332 406.278 479.659>
VStem: 52 88<64.7892 391.464> 258 53<51.3355 129.758> 492 93<0 395.172>
LayerCount: 2
Fore
SplineSet
258 90 m 0xbe
 258 106 249 136 214 136 c 2
 171 136 l 1
 171 162 l 1
 214 187 l 1
 267 187 311 152 311 90 c 0
 311 31 269 -9 211 -9 c 0xbe
 149 -9 52 23 52 152 c 2
 52 306 l 2
 52 405 103 471 197 471 c 0
 252 471 300 453 323 323 c 1
 336 402 373 471 461 471 c 0
 560 471 585 384 585 329 c 2
 585 0 l 1
 492 0 l 1x7e
 492 320 l 2
 492 386 472 404 442 404 c 0
 392 404 366 305 358 215 c 1
 289 215 l 1
 272 350 251 404 194 404 c 0
 151 404 140 363 140 301 c 2
 140 155 l 2
 140 107 146 44 211 44 c 0
 239 44 258 65 258 90 c 0xbe
EndSplineSet
Validated: 3073
EndChar

StartChar: uni0E54
Encoding: 3668 3668 293
Width: 618
VWidth: 1473
Flags: W
HStem: -6 68<187.614 341.685 465.958 572.841> 10 68<386.972 568.273> 265 49<309.285 391.542> 400 69<191.21 445.279>
VStem: 52 94<109.303 355.256> 233 66<145.203 254.631> 399 47<180.14 257.472>
LayerCount: 2
Fore
SplineSet
270 469 m 0xbe
 308 469 280 467 365 467 c 0
 456 467 493 527 517 614 c 1
 540 606 603 578 603 554 c 0
 603 532 536 395 367 395 c 0
 334 395 299 400 267 400 c 0
 182 400 146 366 146 236 c 0
 146 62 207 62 284 62 c 0xbe
 319 62 332 64 343 66 c 1
 278 75 233 123 233 199 c 0
 233 252 266 314 352 314 c 0
 405 314 446 269 446 220 c 0
 446 195 437 174 418 155 c 1
 377 150 l 1
 361 164 l 1
 386 189 l 2
 395 196 399 206 399 218 c 0
 399 246 377 265 351 265 c 0
 335 265 299 258 299 202 c 256
 299 128 393 78 507 78 c 0
 545 78 568 77 598 63 c 1
 570 -4 l 1
 533 7 506 10 464 10 c 0x7e
 411 10 365 -6 273 -6 c 0
 144 -6 52 40 52 225 c 0
 52 388 112 469 270 469 c 0xbe
EndSplineSet
Validated: 3073
EndChar

StartChar: uni0E55
Encoding: 3669 3669 294
Width: 620
VWidth: 1473
Flags: W
HStem: -6 68<187.614 341.685 465.958 572.841> 10 68<385.888 568.273> 265 49<309.285 391.542> 386 77<313.126 367.801> 401 68<174.672 247> 554 53<307.122 370.1>
VStem: 52 94<109.303 359.943> 233 66<145.639 254.631> 240 61<468.277 549.368> 374 62<470.958 551.408> 399 47<180.14 257.472>
LayerCount: 2
Fore
SplineSet
605 556 m 1xaec0
 605 556 584 386 387 386 c 0x36c0
 361 386 336 391 312 402 c 1
 305 401 303 401 278 401 c 0
 171 401 146 395 146 236 c 0
 146 62 207 62 284 62 c 0xaec0
 319 62 332 64 343 66 c 1
 278 75 233 123 233 199 c 0
 233 252 266 314 352 314 c 0
 405 314 446 269 446 220 c 0
 446 195 437 174 418 155 c 1
 377 150 l 1
 361 164 l 1
 386 189 l 1
 395 196 399 206 399 218 c 0
 399 246 377 265 351 265 c 0
 335 265 299 258 299 202 c 256
 299 130 389 78 507 78 c 0
 545 78 568 77 598 63 c 1
 570 -4 l 1
 533 7 506 10 464 10 c 0x6720
 411 10 365 -6 273 -6 c 0
 144 -6 52 40 52 225 c 0
 52 365 101 469 229 469 c 0
 235 469 241 468 247 468 c 1
 242 478 240 491 240 507 c 0
 240 580 302 607 339 607 c 0
 387 607 436 571 436 516 c 0
 436 490 429 468 414 451 c 1
 483 468 503 542 508 565 c 2
 519 614 l 1
 566 601 605 574 605 556 c 1xaec0
321 463 m 1
 365 465 374 490 374 508 c 0
 374 547 353 554 339 554 c 0
 309 554 301 525 301 505 c 0
 301 486 308 472 321 463 c 1
EndSplineSet
Validated: 3073
EndChar

StartChar: uni0E56
Encoding: 3670 3670 295
Width: 608
VWidth: 1473
Flags: W
HStem: -7 70<216.223 394.37> 184 55<197.127 275.637> 402 71<228.259 408.282>
VStem: 130 60<88.4515 176.604> 281 52<140 177.671> 461 96<132.782 344.616>
LayerCount: 2
Fore
SplineSet
130 131 m 0
 130 204 184 239 236 239 c 0
 294 239 333 198 333 140 c 1
 308 96 l 1
 281 96 l 1
 281 140 l 2
 281 175 252 184 236 184 c 0
 211 184 190 165 190 137 c 0
 190 78 246 63 311 63 c 0
 380 63 461 96 461 228 c 0
 461 350 428 402 317 402 c 0
 265 402 215 384 193 348 c 1
 118 348 l 1
 118 353 119 358 119 363 c 0
 119 415 99 503 0 597 c 1
 18 617 59 635 88 635 c 0
 98 635 105 632 109 626 c 0
 139 584 177 506 180 424 c 1
 204 443 255 473 323 473 c 0
 426 473 557 424 557 228 c 0
 557 80 438 -7 315 -7 c 0
 174 -7 130 69 130 131 c 0
EndSplineSet
Validated: 3073
EndChar

StartChar: uni0E57
Encoding: 3671 3671 296
Width: 767
VWidth: 1473
Flags: W
HStem: -9 53<163.086 252.098> 0 21G<435.5 566.5> 136 51<215 251.98> 404 67<374 419.036> 575 20G<595.5 617>
VStem: 52 88<81.5021 362.58> 259 53<51.3355 130.472> 433 93<81 389.537> 623 93<195.807 438.674>
LayerCount: 2
Fore
SplineSet
623 314 m 0xbf80
 623 463 540 547 523 563 c 1
 538 580 581 595 610 595 c 0
 624 595 634 592 639 585 c 0
 672 541 716 454 716 323 c 0
 716 154 620 49 513 0 c 1
 439 0 l 2x7f80
 432 0 429 1 429 5 c 0
 429 9 433 17 433 31 c 2
 433 324 l 2
 433 377 413 404 374 404 c 1
 283 281 l 1
 178 392 l 1
 141 370 140 347 140 249 c 2
 140 199 l 2
 140 89 154 44 212 44 c 0
 240 44 259 65 259 90 c 0
 259 106 250 136 215 136 c 2
 171 136 l 1
 171 162 l 1
 215 187 l 1
 272 187 312 150 312 90 c 0
 312 31 270 -9 212 -9 c 0
 149 -9 52 24 52 196 c 2
 52 255 l 2
 52 386 130 447 183 473 c 1
 283 365 l 1
 358 471 l 1
 380 471 l 2
 458 471 526 420 526 343 c 2
 526 81 l 1
 598 124 623 197 623 314 c 0xbf80
EndSplineSet
Validated: 3073
EndChar

StartChar: uni0E58
Encoding: 3672 3672 297
Width: 636
VWidth: 1473
Flags: W
HStem: -6 66<177.574 294.271 384.031 518.362> 240 47<469.224 540.641> 387 76<263.302 471.176> 399 70<188.127 394.09>
VStem: 52 94<94.0849 352.605> 255 74<119.57 182.855> 417 46<156.427 233.543> 550 58<93.1263 232.791>
LayerCount: 2
Fore
SplineSet
305 78 m 1xdf
 256 127 255 161 255 162 c 0
 255 175 305 200 323 200 c 0
 327 200 329 199 329 196 c 0
 329 120 385 60 442 60 c 0
 502 60 550 82 550 169 c 256
 550 206 539 240 508 240 c 0
 482 240 463 223 463 194 c 0
 463 183 467 173 476 165 c 2
 501 140 l 1
 485 127 l 1
 443 131 l 1
 426 149 417 171 417 196 c 256
 417 245 452 287 507 287 c 0
 588 287 608 215 608 161 c 0
 608 34 523 -6 466 -6 c 0
 387 -6 351 34 329 34 c 0
 312 34 286 -6 206 -6 c 0
 144 -6 52 39 52 225 c 0
 52 409 147 469 259 469 c 0xdf
 286 469 368 463 395 463 c 0
 502 463 527 551 547 614 c 1
 592 598 621 579 621 562 c 0
 621 533 544 387 396 387 c 0xef
 364 387 313 399 264 399 c 0
 180 399 146 358 146 236 c 0
 146 82 173 63 246 63 c 0
 270 63 276 69 305 78 c 1xdf
EndSplineSet
Validated: 3073
EndChar

StartChar: uni0E59
Encoding: 3673 3673 298
Width: 624
VWidth: 1473
Flags: W
HStem: 0 53<181.98 266.465> 144 52<230 266.98> 410 63<184.064 280.773 402.951 483.836>
VStem: 52 91<101.918 365.681> 274 53<60.7476 137.933> 467 93<0 57.6882> 533 76<417.352 590.681>
LayerCount: 2
Fore
SplineSet
492 355 m 0xfa
 492 379 482 410 442 410 c 0
 421 410 406 399 386 362 c 1
 461 244 538 76 560 0 c 1
 467 0 l 1xfc
 418 170 338 404 239 404 c 0
 170 404 143 367 143 222 c 0
 143 150 160 53 227 53 c 0
 255 53 274 74 274 99 c 0
 274 115 265 144 230 144 c 2
 186 144 l 1
 186 171 l 1
 230 196 l 1
 287 196 327 159 327 99 c 0
 327 42 285 0 224 0 c 0
 86 0 52 121 52 220 c 0
 52 420 125 470 239 470 c 0
 290 470 333 441 354 415 c 1
 362 431 388 473 438 473 c 0
 478 473 506 454 523 417 c 1
 528 429 533 452 533 482 c 0
 533 514 527 554 510 595 c 1
 531 605 557 607 569 607 c 0
 597 607 603 599 604 591 c 0
 607 574 609 557 609 540 c 0
 609 441 561 339 545 339 c 0
 505 339 515 342 495 342 c 1
 490 343 492 345 492 355 c 0xfa
EndSplineSet
Validated: 3073
EndChar

StartChar: uni0E5A
Encoding: 3674 3674 299
Width: 640
VWidth: 1473
Flags: W
HStem: 0 21G<305 396 481.898 573> 374 64<97.8824 235.89> 547 48<82.8903 143.317>
VStem: 24 56<456.6 544.77> 146 47<510 545.41> 305 91<0 458 508.212 589> 482 91<0 589>
LayerCount: 2
Fore
SplineSet
156 438 m 0
 248 438 297 500 309 589 c 1
 385 589 l 2
 396 589 399 587 399 581 c 0
 399 574 396 564 396 547 c 2
 396 0 l 1
 305 0 l 1
 305 458 l 1
 253 379 182 374 147 374 c 0
 71 374 24 434 24 499 c 0
 24 583 91 595 115 595 c 0
 148 595 193 578 193 510 c 1
 169 467 l 1
 146 467 l 1
 146 510 l 2
 146 540 127 547 115 547 c 0
 92 547 80 534 80 507 c 0
 80 448 130 438 156 438 c 0
479 589 m 1
 561 589 l 2
 573 589 576 587 576 581 c 0
 576 574 573 564 573 547 c 2
 573 0 l 1
 482 0 l 1
 479 589 l 1
EndSplineSet
Validated: 3073
LCarets2: 1 0 
Ligature2: "'liga' Standard Ligatures in Latin lookup 24 subtable" uni0E2F uni0E2F
EndChar

StartChar: uni0E5B
Encoding: 3675 3675 300
Width: 1026
VWidth: 1473
Flags: W
HStem: 35 49<236.246 396.633> 190 40<280.262 349.121> 247 17<931.151 963.447> 312 40<280.454 349.731> 455 46<225.576 357.513>
VStem: 113 53<162.494 383.114> 236 38<237.189 304.288> 379 51<324.743 432.282> 491 39<203.914 317> 713 25<268.135 323.797>
LayerCount: 2
Fore
SplineSet
810 342 m 1
 839 335 896 264 978 264 c 2
 986 264 l 1
 966 253 946 247 925 247 c 0
 893 247 865 259 840 284 c 1
 834 237 820 210 798 203 c 1
 777 203 757 305 738 324 c 1
 738 234 725 189 698 189 c 0
 682 189 666 289 642 317 c 1
 636 220 617 172 586 172 c 0
 571 172 550 292 530 317 c 1
 530 129 457 35 311 35 c 0
 184 35 113 131 113 270 c 0
 113 404 167 501 287 501 c 0
 377 501 430 443 430 349 c 0
 430 261 391 190 315 190 c 0
 270 190 236 230 236 271 c 0
 236 318 271 352 315 352 c 0
 341 352 362 342 379 323 c 1
 379 326 l 1
 381 335 382 347 382 361 c 0
 382 424 352 455 292 455 c 0
 200 455 166 365 166 262 c 0
 166 152 226 84 311 84 c 0
 438 84 491 188 491 327 c 0
 491 358 489 381 486 396 c 1
 541 385 578 333 597 240 c 1
 606 269 610 296 610 323 c 0
 610 342 606 365 598 393 c 1
 639 382 675 339 706 265 c 1
 711 290 713 308 713 320 c 0
 713 329 711 347 706 374 c 1
 748 363 779 321 800 250 c 1
 810 263 815 281 815 302 c 0
 815 314 813 327 810 342 c 1
315 230 m 256
 338 230 357 250 357 271 c 256
 357 292 337 312 315 312 c 256
 294 312 274 294 274 271 c 256
 274 250 292 230 315 230 c 256
EndSplineSet
Validated: 3073
EndChar

StartChar: zerowidthnonjoiner
Encoding: 8204 8204 301
Width: 0
VWidth: 1473
Flags: W
LayerCount: 2
Back
SplineSet
44 -374 m 1
 -44 -374 l 1
 -44 417 l 1
 44 417 l 1
 44 -374 l 1
EndSplineSet
EndChar

StartChar: zerowidthjoiner
Encoding: 8205 8205 302
Width: 0
VWidth: 1473
Flags: W
LayerCount: 2
Back
SplineSet
44 -374 m 1
 -44 -374 l 1
 -44 258 l 1
 -81 236 l 1
 -116 293 l 1
 -47 329 l 1
 -112 385 l 1
 -68 436 l 1
 0 371 l 1
 68 436 l 1
 112 385 l 1
 47 329 l 1
 116 293 l 1
 80 236 l 1
 44 258 l 1
 44 -374 l 1
EndSplineSet
EndChar

StartChar: lefttorightmark
Encoding: 8206 8206 303
Width: 0
VWidth: 1473
Flags: W
LayerCount: 2
Back
SplineSet
44 -374 m 1
 -44 -374 l 1
 -44 380 l 1
 159 380 l 1
 125 421 l 1
 178 457 l 1
 255 336 l 1
 178 215 l 1
 125 252 l 1
 159 293 l 1
 44 293 l 1
 44 -374 l 1
EndSplineSet
EndChar

StartChar: righttoleftmark
Encoding: 8207 8207 304
Width: 0
VWidth: 1473
Flags: W
LayerCount: 2
Back
SplineSet
-44 293 m 1
 -159 293 l 1
 -125 252 l 1
 -178 215 l 1
 -255 336 l 1
 -178 457 l 1
 -125 421 l 1
 -159 380 l 1
 44 380 l 1
 44 -374 l 1
 -44 -374 l 1
 -44 293 l 1
EndSplineSet
EndChar

StartChar: endash
Encoding: 8211 8211 305
Width: 559
VWidth: 1473
Flags: W
HStem: 267 64<0 560>
LayerCount: 2
Fore
SplineSet
0 267 m 1
 0 331 l 1
 560 331 l 1
 560 267 l 1
 0 267 l 1
EndSplineSet
Validated: 3073
EndChar

StartChar: emdash
Encoding: 8212 8212 306
Width: 1119
VWidth: 1473
Flags: W
HStem: 267 64<0 1120>
LayerCount: 2
Fore
SplineSet
1120 267 m 1
 0 267 l 1
 0 331 l 1
 1120 331 l 1
 1120 267 l 1
EndSplineSet
Validated: 3073
EndChar

StartChar: quoteleft
Encoding: 8216 8216 307
Width: 278
VWidth: 1473
Flags: W
HStem: 536 117<138 193>
VStem: 68 125<536 653>
LayerCount: 2
Fore
SplineSet
68 536 m 1
 68 653 l 1
 137 821 l 1
 212 821 l 1
 138 653 l 1
 193 653 l 1
 193 536 l 1
 68 536 l 1
EndSplineSet
Validated: 3073
EndChar

StartChar: quoteright
Encoding: 8217 8217 308
Width: 278
VWidth: 1473
Flags: W
HStem: 709 115<85 138>
VStem: 85 127<709 824>
LayerCount: 2
Fore
SplineSet
212 824 m 1
 212 709 l 1
 140 541 l 1
 68 541 l 1
 138 709 l 1
 85 709 l 1
 85 824 l 1
 212 824 l 1
EndSplineSet
Validated: 3073
EndChar

StartChar: quotesinglbase
Encoding: 8218 8218 309
Width: 278
VWidth: 1473
Flags: W
HStem: 0 115<85 146>
VStem: 85 127<0 115>
LayerCount: 2
Fore
SplineSet
212 115 m 1
 212 0 l 1
 140 -168 l 1
 68 -168 l 1
 146 0 l 1
 85 0 l 1
 85 115 l 1
 212 115 l 1
EndSplineSet
Validated: 3073
EndChar

StartChar: quotedblleft
Encoding: 8220 8220 310
Width: 524
VWidth: 1473
Flags: W
HStem: 536 117<186 233 373 420>
VStem: 108 125<536 653> 293 127<536 653>
LayerCount: 2
Fore
SplineSet
108 536 m 1
 108 653 l 1
 178 821 l 1
 250 821 l 1
 186 653 l 1
 233 653 l 1
 233 536 l 1
 108 536 l 1
293 536 m 1
 293 653 l 1
 365 821 l 1
 438 821 l 1
 373 653 l 1
 420 653 l 1
 420 536 l 1
 293 536 l 1
EndSplineSet
Validated: 3073
EndChar

StartChar: quotedblright
Encoding: 8221 8221 311
Width: 524
VWidth: 1473
Flags: W
HStem: 709 116<105 152 292 339>
VStem: 105 126<709 825> 292 125<709 825>
LayerCount: 2
Fore
SplineSet
417 825 m 1
 417 709 l 1
 346 541 l 1
 274 541 l 1
 339 709 l 1
 292 709 l 1
 292 825 l 1
 417 825 l 1
231 825 m 1
 231 709 l 1
 159 541 l 1
 87 541 l 1
 152 709 l 1
 105 709 l 1
 105 825 l 1
 231 825 l 1
EndSplineSet
Validated: 3073
EndChar

StartChar: quotedblbase
Encoding: 8222 8222 312
Width: 511
VWidth: 1473
Flags: W
HStem: 0 115<90 138 293 339>
VStem: 90 127<0 115> 293 125<0 115>
LayerCount: 2
Fore
SplineSet
418 115 m 1
 418 0 l 1
 348 -168 l 1
 289 -168 l 1
 339 0 l 1
 293 0 l 1
 293 115 l 1
 418 115 l 1
217 115 m 1
 217 0 l 1
 146 -168 l 1
 87 -168 l 1
 138 0 l 1
 90 0 l 1
 90 115 l 1
 217 115 l 1
EndSplineSet
Validated: 3073
EndChar

StartChar: dagger
Encoding: 8224 8224 313
Width: 559
VWidth: 1473
Flags: W
VStem: 250 59<-90 41.8333>
LayerCount: 2
Fore
SplineSet
250 -90 m 1
 227 362 l 1
 247 547 l 1
 78 526 l 1
 78 610 l 1
 247 591 l 1
 231 821 l 1
 329 821 l 1
 312 591 l 1
 482 610 l 1
 482 526 l 1
 312 547 l 1
 333 362 l 1
 309 -90 l 1
 250 -90 l 1
EndSplineSet
Validated: 3073
EndChar

StartChar: daggerdbl
Encoding: 8225 8225 314
Width: 559
VWidth: 1473
Flags: W
LayerCount: 2
Fore
SplineSet
482 526 m 1
 312 547 l 1
 333 365 l 1
 312 184 l 1
 482 203 l 1
 482 121 l 1
 312 138 l 1
 329 -90 l 1
 231 -90 l 1
 247 138 l 1
 78 121 l 1
 78 203 l 1
 247 184 l 1
 227 365 l 1
 247 547 l 1
 78 526 l 1
 78 610 l 1
 247 591 l 1
 231 821 l 1
 329 821 l 1
 312 591 l 1
 482 610 l 1
 482 526 l 1
EndSplineSet
Validated: 3073
EndChar

StartChar: bullet
Encoding: 8226 8226 315
Width: 559
VWidth: 1473
Flags: W
HStem: 202 403<189.14 367.684>
VStem: 77 405<317.477 491.409>
LayerCount: 2
Fore
SplineSet
278 202 m 0
 170 202 77 290 77 405 c 0
 77 525 173 605 278 605 c 0
 404 605 482 505 482 405 c 0
 482 304 401 202 278 202 c 0
EndSplineSet
Validated: 3073
EndChar

StartChar: ellipsis
Encoding: 8230 8230 316
Width: 1119
VWidth: 1473
Flags: W
HStem: 0 116<122 252 496 626 866 996>
VStem: 122 130<0 116> 496 130<0 116> 866 130<0 116>
LayerCount: 2
Fore
SplineSet
122 0 m 1
 122 116 l 1
 252 116 l 1
 252 0 l 1
 122 0 l 1
496 0 m 1
 496 116 l 1
 626 116 l 1
 626 0 l 1
 496 0 l 1
866 0 m 1
 866 116 l 1
 996 116 l 1
 996 0 l 1
 866 0 l 1
EndSplineSet
Validated: 3073
EndChar

StartChar: perthousand
Encoding: 8240 8240 317
Width: 1208
VWidth: 1473
Flags: W
HStem: -10 21G<190 275.761> 0 69<546.921 665.686 904.921 1023.69> 256 68<547.947 663.942 905.947 1021.94> 390 70<182.749 301.549> 645 71<182.608 302.181>
VStem: 81 69<492.251 612.23> 336 69<494.335 612.423> 443 71<101.918 223.572> 700 69<102.547 220.072> 801 71<101.918 223.572> 1058 69<102.547 220.072>
LayerCount: 2
Fore
SplineSet
81 552 m 256x3fe0
 81 649 162 716 242 716 c 0
 322 716 405 651 405 552 c 256
 405 468 338 390 242 390 c 0
 154 390 81 462 81 552 c 256x3fe0
336 552 m 0
 336 608 293 645 242 645 c 0
 192 645 150 609 150 552 c 0
 150 502 188 460 242 460 c 0
 296 460 336 502 336 552 c 0
443 162 m 0
 443 248 515 324 605 324 c 0
 700 324 769 246 769 162 c 0
 769 81 697 0 605 0 c 0x7fe0
 517 0 443 79 443 162 c 0
700 162 m 0
 700 212 660 256 605 256 c 0
 554 256 514 214 514 162 c 0
 514 109 556 69 605 69 c 0
 658 69 700 110 700 162 c 0
265 -10 m 1xbfe0
 190 -10 l 1
 585 726 l 1
 661 726 l 1
 265 -10 l 1xbfe0
801 162 m 0
 801 248 873 324 963 324 c 0
 1058 324 1127 246 1127 162 c 0
 1127 81 1055 0 963 0 c 0x7fe0
 875 0 801 79 801 162 c 0
1058 162 m 0
 1058 212 1018 256 963 256 c 0
 912 256 872 214 872 162 c 0
 872 109 914 69 963 69 c 0
 1016 69 1058 110 1058 162 c 0
EndSplineSet
Validated: 3073
EndChar

StartChar: minute
Encoding: 8242 8242 318
Width: 235
VWidth: 1473
Flags: W
HStem: 517 237<74 162>
VStem: 74 88<517 754>
LayerCount: 2
Fore
SplineSet
74 754 m 1
 162 754 l 1
 162 517 l 1
 74 517 l 1
 74 754 l 1
EndSplineSet
Validated: 3073
EndChar

StartChar: second
Encoding: 8243 8243 319
Width: 331
VWidth: 1473
Flags: W
HStem: 517 237<44 133 199 287>
VStem: 44 89<517 754> 199 88<517 754>
LayerCount: 2
Fore
SplineSet
44 754 m 1
 133 754 l 1
 133 517 l 1
 44 517 l 1
 44 754 l 1
199 754 m 1
 287 754 l 1
 287 517 l 1
 199 517 l 1
 199 754 l 1
EndSplineSet
Validated: 3073
EndChar

StartChar: guilsinglleft
Encoding: 8249 8249 320
Width: 372
VWidth: 1473
Flags: W
VStem: 71 210
LayerCount: 2
Fore
SplineSet
172 295 m 1
 281 119 l 1
 178 119 l 1
 71 295 l 1
 164 463 l 1
 281 463 l 1
 172 295 l 1
EndSplineSet
Validated: 3073
EndChar

StartChar: guilsinglright
Encoding: 8250 8250 321
Width: 372
VWidth: 1473
Flags: W
VStem: 93 208
LayerCount: 2
Fore
SplineSet
202 289 m 1
 93 463 l 1
 194 463 l 1
 301 289 l 1
 194 119 l 1
 93 119 l 1
 202 289 l 1
EndSplineSet
Validated: 3073
EndChar

StartChar: fraction
Encoding: 8260 8260 322
Width: 238
VWidth: 1473
Flags: W
HStem: 0 21G<-53 15.1312>
LayerCount: 2
Fore
SplineSet
7 0 m 1
 -53 0 l 1
 231 701 l 1
 292 701 l 1
 7 0 l 1
EndSplineSet
Validated: 3073
EndChar

StartChar: Euro
Encoding: 8364 8364 323
Width: 558
VWidth: 1473
Flags: W
HStem: -10 79<235.631 434.535> 221 78<-27 60 166 404> 410 78<-27 60 166 404> 591 21G<460 496.143> 644 79<234.833 434.535>
VStem: 59 100<299 410>
LayerCount: 2
Back
SplineSet
404 410 m 1
 -27 410 l 1
 -27 488 l 1
 404 488 l 1
 404 410 l 1
404 221 m 1
 -27 221 l 1
 -27 299 l 1
 404 299 l 1
 404 221 l 1
59 357 m 256
 59 421.667 63.3333 477 72 523 c 128
 80.6667 569 95.6667 607 117 637 c 128
 138.333 667 166.333 688.833 201 702.5 c 128
 235.667 716.167 278.667 723 330 723 c 0
 362.667 723 397.333 717.833 434 707.5 c 128
 470.667 697.167 502.333 681.667 529 661 c 1
 483 591 l 1
 460.333 610.333 436.333 624 411 632 c 128
 385.667 640 358.333 644 329 644 c 0
 294.333 644 266 639 244 629 c 128
 222 619 204.833 602.833 192.5 580.5 c 128
 180.167 558.167 171.5 528.833 166.5 492.5 c 128
 161.5 456.167 159 411 159 357 c 256
 159 302.333 161.5 256.833 166.5 220.5 c 128
 171.5 184.167 180.167 154.833 192.5 132.5 c 128
 204.833 110.167 222 94 244 84 c 128
 266 74 294.333 69 329 69 c 0
 358.333 69 385.667 73 411 81 c 128
 436.333 89 460.333 102.667 483 122 c 1
 529 52 l 1
 502.333 31.3333 470.667 15.8333 434 5.5 c 128
 397.333 -4.83333 362.667 -10 330 -10 c 0
 278.667 -10 235.667 -3.16667 201 10.5 c 128
 166.333 24.1667 138.333 46 117 76 c 128
 95.6667 106 80.6667 144 72 190 c 128
 63.3333 236 59 291.667 59 357 c 256
EndSplineSet
Fore
SplineSet
160 299 m 1
 404 299 l 1
 404 221 l 1
 166 221 l 1
 182 110 227 69 329 69 c 0
 387 69 437 83 483 122 c 1
 529 52 l 1
 467 4 380 -10 330 -10 c 0
 158 -10 88 67 67 221 c 1
 -27 221 l 1
 -27 299 l 1
 60 299 l 1
 59 318 59 337 59 357 c 0
 59 375 59 393 60 410 c 1
 -27 410 l 1
 -27 488 l 1
 66 488 l 1
 87 645 156 723 330 723 c 0
 380 723 467 709 529 661 c 1
 483 591 l 1
 437 630 387 644 329 644 c 0
 226 644 181 602 166 488 c 1
 404 488 l 1
 404 410 l 1
 160 410 l 1
 159 393 159 376 159 357 c 0
 159 336 159 317 160 299 c 1
EndSplineSet
Validated: 3073
EndChar

StartChar: uni2113
Encoding: 8467 8467 324
Width: 307
VWidth: 1473
Flags: W
HStem: -4 67<155.312 251.268> 659 60<156.646 200.944>
VStem: 75 80<64.2255 187 321 658.741> 218 77<400.201 645.012>
LayerCount: 2
Fore
SplineSet
181 63 m 0
 195 63 206 63 253 84 c 1
 253 13 l 1
 226 -4 170 -4 169 -4 c 0
 94 -4 75 46 75 85 c 2
 75 187 l 1
 29 156 l 1
 -7 220 l 1
 75 274 l 1
 75 607 l 2
 75 682 108 719 175 719 c 0
 272 719 295 595 295 533 c 0
 295 387 228 295 155 228 c 1
 155 87 l 2
 155 73 158 63 181 63 c 0
155 321 m 1
 205 380 218 469 218 523 c 0
 218 614 203 659 174 659 c 0
 159 659 155 645 155 614 c 2
 155 321 l 1
EndSplineSet
Validated: 3073
EndChar

StartChar: trademark
Encoding: 8482 8482 325
Width: 1043
VWidth: 1473
Flags: W
HStem: 650 65<44 186 265 402>
VStem: 186 79<253 650> 485 78<253 591> 891 78<253 591>
LayerCount: 2
Fore
SplineSet
402 650 m 1
 265 650 l 1
 265 253 l 1
 186 253 l 1
 186 650 l 1
 44 650 l 1
 44 715 l 1
 402 715 l 1
 402 650 l 1
729 376 m 1
 866 715 l 1
 969 715 l 1
 969 253 l 1
 891 253 l 1
 891 591 l 1
 888 591 l 1
 744 253 l 1
 710 253 l 1
 566 591 l 1
 563 591 l 1
 563 253 l 1
 485 253 l 1
 485 715 l 1
 588 715 l 1
 729 376 l 1
EndSplineSet
Validated: 3073
EndChar

StartChar: Ohm
Encoding: 8486 8486 326
Width: 692
VWidth: 1473
Flags: W
HStem: 0 74<52 211 482 641> 639 90<245.474 446.572>
VStem: 52 95<307.771 535.539> 211 91<74 157.075> 390 92<74 157.064> 545 96<306.59 535.745>
LayerCount: 2
Fore
SplineSet
641 420 m 0
 641 292 581 183 482 150 c 1
 482 74 l 1
 641 74 l 1
 641 0 l 1
 390 0 l 1
 390 206 l 1
 539 241 545 366 545 420 c 0
 545 530 505 639 346 639 c 256
 187 639 147 530 147 420 c 0
 147 296 203 229 302 206 c 1
 302 0 l 1
 52 0 l 1
 52 74 l 1
 211 74 l 1
 211 150 l 1
 112 183 52 293 52 420 c 0
 52 591 155 729 346 729 c 256
 537 729 641 592 641 420 c 0
EndSplineSet
Validated: 3073
EndChar

StartChar: estimated
Encoding: 8494 8494 327
Width: 713
VWidth: 1473
Flags: W
HStem: -12 69<285.498 468.628> 311 69<169 536> 614 68<269.303 447.385>
VStem: 74 95<194.051 311 380 473.399>
LayerCount: 2
Fore
SplineSet
74 321 m 0
 74 615 244 682 357 682 c 0
 567 682 633 534 633 311 c 1
 169 311 l 1
 169 191 231 57 371 57 c 0
 490 57 544 133 570 174 c 1
 639 131 l 1
 584 39 492 -12 365 -12 c 0
 224 -12 74 106 74 321 c 0
536 380 m 1
 525 568 463 614 354 614 c 0
 206 614 171 472 169 380 c 1
 536 380 l 1
EndSplineSet
Validated: 3073
EndChar

StartChar: partialdiff
Encoding: 8706 8706 328
Width: 559
VWidth: 1473
Flags: W
HStem: -12 69<193.337 365.774> 526 68<197.173 364.588>
VStem: 41 96<136.236 445.161> 423 96<137.365 456.708>
LayerCount: 2
Fore
SplineSet
423 292 m 256
 423 460 394 526 280 526 c 256
 159 526 137 451 137 292 c 256
 137 116 166 57 280 57 c 256
 390 57 423 113 423 292 c 256
385 572 m 1
 367 615 283 696 187 742 c 1
 255 809 l 1
 389 716 485 591 509 426 c 0
 516 382 519 337 519 292 c 0
 519 68 423 -12 280 -12 c 0
 137 -12 41 70 41 292 c 256
 41 466 101 594 280 594 c 0
 321 594 345 587 382 569 c 1
 385 572 l 1
EndSplineSet
Validated: 3073
EndChar

StartChar: Delta
Encoding: 8710 8710 329
Width: 573
VWidth: 1473
Flags: W
HStem: 0 74<110 449> 696 20G<229.408 330.592>
LayerCount: 2
Fore
SplineSet
560 0 m 1
 0 0 l 1
 236 716 l 1
 324 716 l 1
 560 0 l 1
449 74 m 1
 280 605 l 1
 110 74 l 1
 449 74 l 1
EndSplineSet
Validated: 3073
EndChar

StartChar: product
Encoding: 8719 8719 330
Width: 692
VWidth: 1473
Flags: W
HStem: 0 21G<96 193 477 575> 635 81<193 477> 645 71<35 96 575 633>
VStem: 96 97<0 635> 477 98<0 635>
LayerCount: 2
Fore
SplineSet
575 0 m 1xb8
 477 0 l 1
 477 635 l 1
 193 635 l 1xd8
 193 0 l 1
 96 0 l 1
 96 638 l 1
 35 645 l 1
 35 716 l 1
 633 716 l 1
 633 645 l 1
 575 638 l 1
 575 0 l 1xb8
EndSplineSet
Validated: 3073
EndChar

StartChar: summation
Encoding: 8721 8721 331
Width: 646
VWidth: 1473
Flags: W
HStem: 0 74<134 595> 642 74<152 573>
LayerCount: 2
Fore
SplineSet
595 0 m 1
 52 0 l 1
 52 110 l 1
 298 368 l 1
 57 608 l 1
 57 716 l 1
 573 716 l 1
 573 642 l 1
 152 642 l 1
 386 407 l 1
 386 339 l 1
 134 74 l 1
 595 74 l 1
 595 0 l 1
EndSplineSet
Validated: 3073
EndChar

StartChar: minus
Encoding: 8722 8722 332
Width: 592
VWidth: 1473
Flags: W
HStem: 264 81<38 527>
LayerCount: 2
Fore
SplineSet
38 264 m 1
 38 345 l 1
 527 345 l 1
 527 264 l 1
 38 264 l 1
EndSplineSet
Validated: 3073
EndChar

StartChar: radical
Encoding: 8730 8730 333
Width: 570
VWidth: 1473
Flags: W
HStem: 0 21G<237 318.769> 295 73<44 127>
LayerCount: 2
Fore
SplineSet
312 0 m 1
 245 0 l 1
 127 295 l 1
 37 295 l 1
 44 368 l 1
 172 368 l 1
 277 106 l 1
 452 653 l 1
 533 653 l 1
 312 0 l 1
EndSplineSet
Validated: 3073
EndChar

StartChar: infinity
Encoding: 8734 8734 334
Width: 822
VWidth: 1473
Flags: W
HStem: 147 67<173.924 290.18 533.708 653.584> 424 65<165.157 286.829 532.646 653.268>
VStem: 59 75<255.139 392.573> 688 75<250.477 389.525>
LayerCount: 2
Fore
SplineSet
134 324 m 0
 134 255 186 214 225 214 c 0
 292 214 343 279 367 326 c 1
 294 403 269 424 224 424 c 0
 186 424 134 400 134 324 c 0
598 489 m 0
 666 489 763 452 763 311 c 0
 763 213 692 147 600 147 c 0
 513 147 442 240 405 281 c 1
 326 160 260 147 224 147 c 0
 159 147 59 181 59 326 c 0
 59 423 131 489 222 489 c 0
 300 489 358 419 415 357 c 1
 499 477 561 489 598 489 c 0
598 212 m 0
 645 212 688 259 688 312 c 0
 688 409 623 423 597 423 c 0
 540 423 494 378 455 311 c 1
 528 233 553 212 598 212 c 0
EndSplineSet
Validated: 3073
EndChar

StartChar: integral
Encoding: 8747 8747 335
Width: 356
VWidth: 1473
Flags: W
HStem: -152 81<-6.8206 105.524> 632 78<231.117 331.892>
VStem: 124 94<-51.0413 619.336>
LayerCount: 2
Fore
SplineSet
124 579 m 2
 124 664 164 710 246 710 c 2
 263 710 l 2
 283 710 315 710 342 706 c 1
 331 631 l 1
 324 632 310 632 293 632 c 0
 240 632 220 617 220 561 c 2
 218 -16 l 2
 218 -105 137 -152 62 -152 c 0
 24 -152 1 -148 -13 -144 c 1
 -6 -68 l 1
 3 -69 29 -71 38 -71 c 0
 110 -71 124 -39 124 15 c 2
 124 579 l 2
EndSplineSet
Validated: 3073
EndChar

StartChar: approxequal
Encoding: 8776 8776 336
Width: 578
VWidth: 1473
Flags: W
HStem: 118 78<317.966 444.427> 186 75<121.641 256.68> 320 78<320.976 446.036> 387 76<123.084 258.747>
LayerCount: 2
Fore
SplineSet
393 196 m 0x80
 430 196 444 212 483 265 c 1
 535 208 l 1
 514 172 481 118 401 118 c 0x80
 331 118 247 186 181 186 c 0
 128 186 100 146 93 121 c 1
 43 178 l 1
 54 198 69 217 90 234 c 0
 111 252 140 261 177 261 c 0x40
 236 261 334 196 393 196 c 0x80
395 398 m 0x20
 429 398 446 412 485 467 c 1
 536 410 l 1
 513 371 482 320 402 320 c 0x20
 334 320 249 387 183 387 c 0
 130 387 102 348 94 323 c 1
 44 380 l 1
 55 400 70 419 91 436 c 0
 112 454 141 463 178 463 c 0x10
 242 463 330 398 395 398 c 0x20
EndSplineSet
Validated: 3073
EndChar

StartChar: notequal
Encoding: 8800 8800 337
Width: 568
VWidth: 1473
Flags: W
HStem: 0 21G<102 166.321> 159 78<47 192 277 522> 383 78<47 299 386 522>
LayerCount: 2
Fore
SplineSet
192 159 m 1
 47 159 l 1
 47 237 l 1
 224 237 l 1
 299 383 l 1
 47 383 l 1
 47 461 l 1
 333 461 l 1
 426 626 l 1
 479 626 l 1
 386 461 l 1
 522 461 l 1
 522 383 l 1
 352 383 l 1
 277 237 l 1
 522 237 l 1
 522 159 l 1
 245 159 l 1
 155 0 l 1
 102 0 l 1
 192 159 l 1
EndSplineSet
Validated: 3073
EndChar

StartChar: lessequal
Encoding: 8804 8804 338
Width: 671
VWidth: 1473
Flags: W
HStem: 0 75<44 628>
LayerCount: 2
Fore
SplineSet
44 410 m 1
 626 604 l 1
 626 519 l 1
 138 368 l 1
 626 211 l 1
 626 127 l 1
 44 330 l 1
 44 410 l 1
44 75 m 1
 628 75 l 1
 628 0 l 1
 44 0 l 1
 44 75 l 1
EndSplineSet
Validated: 3073
EndChar

StartChar: greaterequal
Encoding: 8805 8805 339
Width: 671
VWidth: 1473
Flags: W
HStem: 0 75<44 628>
LayerCount: 2
Fore
SplineSet
628 330 m 1
 46 127 l 1
 46 211 l 1
 533 368 l 1
 46 519 l 1
 46 604 l 1
 628 410 l 1
 628 330 l 1
628 0 m 1
 44 0 l 1
 44 75 l 1
 628 75 l 1
 628 0 l 1
EndSplineSet
Validated: 3073
EndChar

StartChar: lozenge
Encoding: 9674 9674 340
Width: 534
VWidth: 1473
Flags: W
LayerCount: 2
Fore
SplineSet
377 359 m 1
 268 554 l 1
 161 359 l 1
 268 162 l 1
 377 359 l 1
468 359 m 1
 301 82 l 1
 237 82 l 1
 66 359 l 1
 237 633 l 1
 301 633 l 1
 468 359 l 1
EndSplineSet
Validated: 3073
EndChar

StartChar: dottedcircle
Encoding: 9676 9676 341
Width: 797
VWidth: 1473
Flags: W
HStem: 35 80<355.619 429.359> 55 81<246.783 316.979 468.021 539.979> 116 80<153.113 223.526 562.041 631.887> 214 79<91.0211 162.005 623.047 693.819> 324 80<69.1809 139.526 646.562 715.079> 432 79<91.0211 162.005 620.286 692.819> 529 79<152.783 224.018 560.486 631.217> 589 81<246.783 316.979 466.995 537.979> 608 81<356.443 428.079>
VStem: 65 79<327.783 399.741> 87 79<217.641 289.255 435.745 507.359> 149 79<120.579 191.979 533.181 603.844> 243 78<58.6411 132.211 592.839 666.359> 352 81<39.0211 110.979 612.706 685.005> 464 80<58.6411 132.211 593.616 665.079> 558 78<119.859 192.381 532.977 604.359> 619 79<218.047 289.217 435.783 506.953> 642 78<328.181 399.369>
LayerCount: 2
Fore
SplineSet
598 196 m 256x3c0f
 628 196 636 172 636 156 c 0
 636 142 628 116 598 116 c 256
 572 116 558 136 558 156 c 0
 558 180 574 196 598 196 c 256x3c0f
679 404 m 0
 704 404 720 385 720 362 c 0
 720 339 702 324 679 324 c 0
 657 324 642 341 642 362 c 0x1c0e40
 642 385 657 404 679 404 c 0
103 404 m 0
 128 404 144 387 144 362 c 0
 144 339 128 324 103 324 c 0
 80 324 65 339 65 362 c 0x1c4e
 65 387 80 404 103 404 c 0
281 136 m 256x5c0e
 306 136 321 119 321 96 c 256
 321 71 305 55 281 55 c 256
 258 55 243 71 243 96 c 256
 243 120 259 136 281 136 c 256x5c0e
281 670 m 256x1d0e
 305 670 321 654 321 629 c 0
 321 597 297 589 281 589 c 0
 256 589 243 602 243 629 c 0
 243 654 258 670 281 670 c 256x1d0e
597 608 m 0x1e0e
 620 608 635 592 635 567 c 0
 635 546 620 529 597 529 c 0
 565 529 557 550 557 567 c 0
 557 592 570 608 597 608 c 0x1e0e
504 136 m 256x5c0e
 529 136 544 119 544 96 c 256
 544 71 528 55 504 55 c 256
 480 55 464 71 464 96 c 256
 464 119 479 136 504 136 c 256x5c0e
127 511 m 256
 150 511 166 495 166 470 c 0
 166 449 150 432 127 432 c 256
 102 432 87 448 87 470 c 0x1c2e
 87 495 103 511 127 511 c 256
127 293 m 256
 150 293 166 276 166 255 c 0
 166 230 150 214 127 214 c 256
 103 214 87 230 87 255 c 0
 87 277 102 293 127 293 c 256
187 608 m 256x1e1e
 211 608 228 593 228 567 c 0
 228 544 210 529 187 529 c 256
 164 529 149 544 149 567 c 0
 149 583 157 608 187 608 c 256x1e1e
187 196 m 256x3c1e
 212 196 228 180 228 156 c 0
 228 135 212 116 187 116 c 256
 157 116 149 142 149 156 c 0
 149 172 157 196 187 196 c 256x3c1e
660 293 m 0
 683 293 698 276 698 255 c 0
 698 232 683 214 660 214 c 0
 635 214 619 230 619 255 c 0x1c0e80
 619 278 635 293 660 293 c 0
502 670 m 256x1d0e
 526 670 542 654 542 629 c 0
 542 597 518 589 502 589 c 256
 486 589 463 597 463 629 c 0
 463 654 479 670 502 670 c 256x1d0e
392 115 m 256x9c0e
 417 115 433 99 433 75 c 256
 433 51 417 35 392 35 c 256
 368 35 352 51 352 75 c 256
 352 99 368 115 392 115 c 256x9c0e
659 511 m 0
 682 511 697 493 697 470 c 0
 697 447 680 432 659 432 c 0
 633 432 616 447 616 470 c 0
 616 495 633 511 659 511 c 0
392 689 m 256x1c8e
 420 689 433 668 433 650 c 0
 433 627 417 608 392 608 c 256
 368 608 352 625 352 650 c 0
 352 671 368 689 392 689 c 256x1c8e
EndSplineSet
Validated: 3073
EndChar

StartChar: uni0E10.alt1
Encoding: 63232 63232 342
Width: 602
VWidth: 1473
Flags: W
HStem: -3 58<349.159 423.305> 112 52<181.093 220> 255 53<181.049 267.788> 362 68<122.5 338.035> 374 77<185.157 417.228> 505 74<216.503 512.308> 523 66<169.989 366.436>
VStem: 78 83<431.653 514.266> 121 53<170.863 247.162> 283 66<21 240.25> 449 89<142.621 344.94>
LayerCount: 2
Back
SplineSet
264 138 m 1
 220 112 l 1
 190 112 166 120.833 148 138.5 c 128
 130 156.167 121 179.667 121 209 c 256
 121 238.333 130.5 262.167 149.5 280.5 c 128
 168.5 298.833 192.667 308 222 308 c 0
 254 308 278.833 302.5 296.5 291.5 c 128
 314.167 280.5 327.167 264.5 335.5 243.5 c 128
 343.833 222.5 348.667 197 350 167 c 128
 351.333 137 351 103 349 65 c 0
 349 61.6667 352.667 59.1667 360 57.5 c 128
 367.333 55.8333 375.667 55 385 55 c 128
 394.333 55 403 55.8333 411 57.5 c 128
 419 59.1667 423 62 423 66 c 0
 427 110.667 432.333 150.833 439 186.5 c 128
 445.667 222.167 449 257.333 449 292 c 0
 449 301.333 447.5 311 444.5 321 c 128
 441.5 331 435.333 339.833 426 347.5 c 128
 416.667 355.167 402.5 361.5 383.5 366.5 c 128
 364.5 371.5 338.667 374 306 374 c 0
 276 374 247.667 372 221 368 c 128
 194.333 364 171.333 362 152 362 c 0
 123.333 362 103.833 371.167 93.5 389.5 c 128
 83.1667 407.833 78 430.333 78 457 c 0
 78 497 89 527.5 111 548.5 c 128
 133 569.5 162.333 580 199 580 c 0
 205.667 580 215.167 579.5 227.5 578.5 c 128
 246 577 246 577 269 575 c 128
 284.333 573.667 300 572.5 316 571.5 c 128
 332 570.5 347 570 361 570 c 0
 378.333 570 396.667 571.167 416 573.5 c 128
 435.333 575.833 452.667 578.667 468 582 c 0
 522 594 l 1
 523.333 584 525.667 574.667 529 566 c 0
 533.667 549.333 536 535.333 536 524 c 0
 536 518.667 531.667 514 523 510 c 1
 512.333 506.667 492.5 503.5 463.5 500.5 c 128
 434.5 497.5 405.667 496 377 496 c 0
 364.333 496 350.833 497 336.5 499 c 128
 315 502 315 502 294.5 505 c 128
 280.833 507 268.333 509 257 511 c 128
 245.667 513 237 514 231 514 c 0
 203 514 184.333 510.333 175 503 c 128
 165.667 495.667 161 480.667 161 458 c 0
 161 447.333 163.333 440 168 436 c 128
 172.667 432 185 430 205 430 c 256
 224.333 430 249.333 432 280 436 c 128
 310.667 440 343 442 377 442 c 0
 402.333 442 425.167 438 445.5 430 c 128
 465.833 422 482.833 411.5 496.5 398.5 c 128
 510.167 385.5 520.5 370.667 527.5 354 c 128
 534.5 337.333 538 319.667 538 301 c 0
 538 287 536.5 269.5 533.5 248.5 c 128
 530.5 227.5 526.833 204.333 522.5 179 c 128
 518.167 153.667 514 127.333 510 100 c 128
 506 72.6667 503 45.6667 501 19 c 0
 501 14.3333 495.333 10.1667 484 6.5 c 128
 472.667 2.83333 458.833 0.333333 442.5 -1 c 128
 426.167 -2.33333 408.667 -2.66667 390 -2 c 128
 371.333 -1.33333 354 -0.333333 338 1 c 128
 322 2.33333 308.833 4.66667 298.5 8 c 128
 288.167 11.3333 283 15.6667 283 21 c 0
 285 61 286.167 95.5 286.5 124.5 c 128
 286.833 153.5 285.333 177.833 282 197.5 c 128
 278.667 217.167 272.333 231.667 263 241 c 128
 253.667 250.333 240 255 222 255 c 0
 208.667 255 197.333 250.5 188 241.5 c 128
 178.667 232.5 174 221.667 174 209 c 0
 174 198.333 177.833 188.167 185.5 178.5 c 128
 193.167 168.833 204.667 164 220 164 c 2
 264 164 l 1
 264 138 l 1
EndSplineSet
Fore
SplineSet
222 308 m 0xe8e0
 343 308 351 222 351 128 c 0
 351 108 350 87 349 65 c 0
 349 57 372 55 385 55 c 0
 401 55 423 57 423 66 c 0
 435 202 449 202 449 292 c 0
 449 341 421 374 306 374 c 0xe8e0
 239 374 198 362 152 362 c 0
 93 362 78 418 78 466 c 0
 78 564 146 589 199 589 c 0xf360
 240 589 296 579 361 579 c 0
 419 579 469 590 522 603 c 1
 525 582 536 561 536 533 c 0
 536 527 532 522 523 519 c 0
 496 510 421 505 377 505 c 0xe560
 333 505 253 523 231 523 c 0
 181 523 161 511 161 463 c 0
 161 436 171 430 205 430 c 256xf360
 261 430 295 451 377 451 c 0
 474 451 538 380 538 301 c 0
 538 245 509 132 501 19 c 1
 501 4 451 -3 399 -3 c 0
 342 -3 283 5 283 21 c 0
 285 64 287 101 287 133 c 0
 287 215 274 255 222 255 c 0
 194 255 174 234 174 209 c 0
 174 194 183 164 220 164 c 2
 264 164 l 1
 264 138 l 1
 220 112 l 1
 159 112 121 151 121 209 c 256
 121 267 162 308 222 308 c 0xe8e0
EndSplineSet
Validated: 3073
EndChar

StartChar: uni0E34.alt1
Encoding: 63233 63233 343
Width: 0
VWidth: 1473
Flags: W
HStem: 671 57<-595 -327.33> 798 62<-562.6 -342.018>
VStem: -667 72<725 764.531>
LayerCount: 2
Fore
SplineSet
-549 671 m 0
 -608 671 -637 666 -652 666 c 0
 -665 666 -667 669 -667 682 c 0
 -664 750 -628 860 -458 860 c 0
 -261 860 -217 735 -217 657 c 0
 -217 648 -222 644 -231 644 c 0
 -251 644 -405 671 -549 671 c 0
-287 706 m 1
 -302 775 -364 798 -463 798 c 0
 -570 798 -595 754 -595 725 c 1
 -569 727 -544 728 -519 728 c 0
 -473 728 -449 726 -287 706 c 1
EndSplineSet
Validated: 3073
EndChar

StartChar: uni0E35.alt1
Encoding: 63234 63234 344
Width: 0
VWidth: 1473
Flags: W
HStem: 671 57<-595 -327.33> 798 62<-566.574 -358.5>
VStem: -667 72<725 766.743> -308 78<800.612 902>
LayerCount: 2
Fore
SplineSet
-667 682 m 0
 -664 755 -628 860 -466 860 c 0
 -362 860 -316 820 -301 800 c 1
 -304 813 -308 830 -308 857 c 2
 -308 902 l 1
 -230 902 l 1
 -230 731 l 1
 -224 715 -217 679 -217 657 c 0
 -217 648 -222 644 -231 644 c 0
 -251 644 -405 671 -549 671 c 0
 -608 671 -637 666 -652 666 c 0
 -665 666 -667 669 -667 682 c 0
-287 706 m 1
 -308 756 -366 798 -470 798 c 0
 -569 798 -595 761 -595 725 c 1
 -569 727 -544 728 -519 728 c 0
 -473 728 -449 726 -287 706 c 1
EndSplineSet
Validated: 3073
EndChar

StartChar: uni0E36.alt1
Encoding: 63235 63235 345
Width: 0
VWidth: 1473
Flags: W
HStem: 644 152<-285.463 -226.5> 671 57<-595 -327.33> 798 62<-569.901 -362.973> 884 41<-296.064 -227.766>
VStem: -667 72<725 772.25> -345 43<828.239 878.908> -221 41<801.711 878.501>
LayerCount: 2
Fore
SplineSet
-287 706 m 1x7e
 -309 751 -342 798 -477 798 c 0
 -542 798 -595 783 -595 725 c 1
 -569 727 -544 728 -519 728 c 0
 -473 728 -449 726 -287 706 c 1x7e
-667 682 m 0
 -662 830 -562 860 -473 860 c 0
 -439 860 -389 858 -343 828 c 1
 -345 834 -345 841 -345 847 c 0
 -345 884 -312 925 -262 925 c 0
 -213 925 -180 889 -180 842 c 0
 -180 790 -220 763 -246 759 c 1
 -223 727 -217 682 -217 657 c 0
 -217 648 -222 644 -231 644 c 0xbe
 -251 644 -405 671 -549 671 c 0
 -608 671 -637 666 -652 666 c 0
 -665 666 -667 669 -667 682 c 0
-262 796 m 256
 -229 796 -221 824 -221 840 c 256
 -221 854 -229 884 -262 884 c 256
 -294 884 -302 854 -302 840 c 256
 -302 824 -294 796 -262 796 c 256
EndSplineSet
Validated: 3073
EndChar

StartChar: uni0E37.alt1
Encoding: 63236 63236 346
Width: 0
VWidth: 1473
Flags: W
HStem: 671 57<-595 -323.712> 798 62<-569.901 -407.984>
VStem: -667 72<725 772.25> -407 71<849 902> -293 78<791.425 902>
LayerCount: 2
Fore
SplineSet
-273 706 m 1
 -284 741 -376 798 -477 798 c 0
 -542 798 -595 783 -595 725 c 1
 -569 727 -543 728 -518 728 c 0
 -469 728 -419 724 -273 706 c 1
-286 791 m 1
 -291 800 -293 813 -293 846 c 2
 -293 902 l 1
 -215 902 l 1
 -215 731 l 1
 -211 717 -202 679 -202 657 c 0
 -202 648 -207 644 -217 644 c 0
 -237 644 -402 671 -547 671 c 0
 -607 671 -638 666 -653 666 c 0
 -665 666 -667 669 -667 682 c 0
 -662 830 -562 860 -473 860 c 0
 -447 860 -419 854 -407 849 c 1
 -407 902 l 1
 -336 902 l 1
 -336 831 l 1
 -307 819 -309 814 -286 791 c 1
EndSplineSet
Validated: 3073
EndChar

